<svg xmlns="http://www.w3.org/2000/svg" xmlns:xlink="http://www.w3.org/1999/xlink" viewBox="0 0 1920 1080"><defs><style>.cls-1{fill:none;}.cls-2{fill:#262626;}.cls-3{fill:#d3d3d3;}.cls-4{fill:#4fa8ad;}.cls-5{fill:#b3b3b3;}.cls-6{fill:#99c453;}.cls-7{clip-path:url(#clip-path);}</style><clipPath id="clip-path"><rect class="cls-1" x="158" y="305" width="1435" height="615"/></clipPath></defs><g id="_2-1" data-name="2-1"><rect class="cls-2" width="1920" height="1080"/><path class="cls-3" d="M75.81836,500.1665a.86024.86024,0,0,1-.86328-.86425V475.8667a.87873.87873,0,0,1,.252-.64844.83517.83517,0,0,1,.61133-.25195H92.30664a.82444.82444,0,0,1,.63086.25195.91529.91529,0,0,1,.23438.64844v2.51953a.86631.86631,0,0,1-.23438.61231.821.821,0,0,1-.63086.252H79.959v5.75976h6.084a9.35126,9.35126,0,0,1,6.37109,2.01661,6.89492,6.89492,0,0,1,2.30469,5.47168,7.576,7.576,0,0,1-.55859,2.8623,7.32878,7.32878,0,0,1-1.63672,2.46582,7.72159,7.72159,0,0,1-2.70117,1.71,10.396,10.396,0,0,1-3.7793.62988Zm4.14062-3.8164h5.58008a4.19092,4.19092,0,0,0,2.19532-.54,3.59112,3.59112,0,0,0,1.36914-1.43945,4.16741,4.16741,0,0,0,.46679-1.94434,3.63245,3.63245,0,0,0-1.00781-2.62793,4.02239,4.02239,0,0,0-3.02344-1.04395H79.959Z"/><path class="cls-3" d="M72.59766,550.1665a.74668.74668,0,0,1-.52149-.21582.705.705,0,0,1-.23437-.54.8712.8712,0,0,1,.07226-.32421l8.67578-23.21973a1.33948,1.33948,0,0,1,.41407-.62988,1.23041,1.23041,0,0,1,.8457-.27051h3.92383a1.16681,1.16681,0,0,1,.82812.27051,1.73834,1.73834,0,0,1,.43164.62988L95.709,549.08643a1.72777,1.72777,0,0,1,.03711.32421.73246.73246,0,0,1-.21679.54.69391.69391,0,0,1-.50391.21582H91.89258a.99646.99646,0,0,1-.73633-.23437,1.18228,1.18228,0,0,1-.30664-.44922l-1.69141-4.39258H78.46484l-1.6914,4.39258a1.20531,1.20531,0,0,1-.30664.44922,1.0046,1.0046,0,0,1-.73828.23437Zm7.12695-9.21582h8.17187l-4.10351-11.124Z"/><path class="cls-3" d="M90.07422,600.1665a.86024.86024,0,0,1-.86328-.86425V579.46631h-7.8125v4.53613a51.86058,51.86058,0,0,1-.44922,7.37988,15.37328,15.37328,0,0,1-1.459,4.9502,6.5835,6.5835,0,0,1-2.73437,2.80762,9.722,9.722,0,0,1-4.32031.99023.74962.74962,0,0,1-.63086-.2334.86673.86673,0,0,1-.26953-.63086v-2.69922q0-.75585.82812-.86425a3.1987,3.1987,0,0,0,1.85352-1.00782,6.53076,6.53076,0,0,0,1.29687-2.33984,17.80907,17.80907,0,0,0,.77344-3.76269,47.66848,47.66848,0,0,0,.252-5.23731v-7.52441a.86025.86025,0,0,1,.86328-.86426H93.31445a.86309.86309,0,0,1,.90039.90039v23.43555a.83354.83354,0,0,1-.25195.6123.87871.87871,0,0,1-.64844.252Z"/><path class="cls-3" d="M72.59766,650.1665a.74668.74668,0,0,1-.52149-.21582.705.705,0,0,1-.23437-.54.8712.8712,0,0,1,.07226-.32421l8.67578-23.21973a1.33948,1.33948,0,0,1,.41407-.62988,1.23041,1.23041,0,0,1,.8457-.27051h3.92383a1.16681,1.16681,0,0,1,.82812.27051,1.73834,1.73834,0,0,1,.43164.62988L95.709,649.08643a1.72777,1.72777,0,0,1,.03711.32421.73246.73246,0,0,1-.21679.54.69391.69391,0,0,1-.50391.21582H91.89258a.99646.99646,0,0,1-.73633-.23437,1.18228,1.18228,0,0,1-.30664-.44922l-1.69141-4.39258H78.46484l-1.6914,4.39258a1.20531,1.20531,0,0,1-.30664.44922,1.0046,1.0046,0,0,1-.73828.23437Zm7.12695-9.21582h8.17187l-4.10351-11.124Z"/><path class="cls-3" d="M74.36133,700.1665a.86436.86436,0,0,1-.61328-.23437.81594.81594,0,0,1-.252-.62988V675.8667a.87873.87873,0,0,1,.252-.64844.83954.83954,0,0,1,.61328-.25195h3.27539a.82444.82444,0,0,1,.63086.25195.92273.92273,0,0,1,.23242.64844v9.28809H89.12109V675.8667a.87873.87873,0,0,1,.252-.64844.83515.83515,0,0,1,.61133-.25195h3.24023a.86309.86309,0,0,1,.90039.90039v23.43555a.83354.83354,0,0,1-.25195.6123.87873.87873,0,0,1-.64844.252H89.98438a.86025.86025,0,0,1-.86329-.86425v-9.64746H78.5v9.64746a.87322.87322,0,0,1-.23242.6123.821.821,0,0,1-.63086.252Z"/><path class="cls-3" d="M84.02734,750.52686a12.51077,12.51077,0,0,1-5.66992-1.16993,8.18531,8.18531,0,0,1-3.54687-3.34863A11.69515,11.69515,0,0,1,73.44336,740.77q-.03516-1.4751-.03516-3.168,0-1.69043.03516-3.23926a11.58266,11.58266,0,0,1,1.38672-5.2207,8.273,8.273,0,0,1,3.5625-3.36523,12.41122,12.41122,0,0,1,5.63476-1.16993,13.86588,13.86588,0,0,1,4.39258.64746,10.196,10.196,0,0,1,3.3125,1.78223,8.17008,8.17008,0,0,1,2.123,2.64551,7.60354,7.60354,0,0,1,.793,3.27637.60676.60676,0,0,1-.19922.54.79678.79678,0,0,1-.55859.21582H90.4707a1.00524,1.00524,0,0,1-.64648-.19825,1.13943,1.13943,0,0,1-.36133-.666,4.94434,4.94434,0,0,0-1.97851-3.23926,6.55753,6.55753,0,0,0-3.49219-.86426,5.4099,5.4099,0,0,0-3.85352,1.34961,6.19291,6.19291,0,0,0-1.54687,4.44629q-.10841,2.95166,0,6.04785.10839,3.09669,1.54687,4.44629a5.40986,5.40986,0,0,0,3.85352,1.34961,6.53788,6.53788,0,0,0,3.50976-.88184,4.846,4.846,0,0,0,1.96094-3.22168.913.913,0,0,1,1.00781-.86425h3.41993a.79674.79674,0,0,1,.55859.21582.6077.6077,0,0,1,.19922.54,7.59673,7.59673,0,0,1-.793,3.27636,8.17,8.17,0,0,1-2.123,2.64551,10.19581,10.19581,0,0,1-3.3125,1.78223A13.8651,13.8651,0,0,1,84.02734,750.52686Z"/><path class="cls-3" d="M1633.19336,626.1792a.87722.87722,0,0,1-.64844-.252.83354.83354,0,0,1-.252-.61231V601.87939a.8631.8631,0,0,1,.90039-.90039h2.84375a.983.983,0,0,1,.75586.27051,2.07677,2.07677,0,0,1,.32422.41406l6.94824,12.96,7.01953-12.96a2.07677,2.07677,0,0,1,.32422-.41406.983.983,0,0,1,.75586-.27051h2.80859a.86305.86305,0,0,1,.89942.90039v23.43555a.83355.83355,0,0,1-.252.61231.87648.87648,0,0,1-.64746.252h-3.02441a.81739.81739,0,0,1-.62988-.252.86629.86629,0,0,1-.23438-.61231V609.72705l-5.04,9.61231a1.8907,1.8907,0,0,1-.46777.55761,1.16154,1.16154,0,0,1-.75586.23438h-1.47559a1.14513,1.14513,0,0,1-.77441-.23438,2.04443,2.04443,0,0,1-.4502-.55761l-5.04-9.61231v15.58789a.86024.86024,0,0,1-.86328.86426Z"/><path class="cls-3" d="M1669.55273,626.1792a.86024.86024,0,0,1-.86425-.86426V601.87939a.8787.8787,0,0,1,.252-.64843.83732.83732,0,0,1,.6123-.252h15.83985a.8631.8631,0,0,1,.90039.90039v2.376a.83735.83735,0,0,1-.252.61231.87876.87876,0,0,1-.64844.252h-11.84375v6.37109h11.05176a.91957.91957,0,0,1,.64843.23438.82223.82223,0,0,1,.252.62988v2.23242a.82079.82079,0,0,1-.252.62989.91526.91526,0,0,1-.64843.23437h-11.05176v6.58789h12.13183a.863.863,0,0,1,.90039.89941v2.376a.83735.83735,0,0,1-.252.61231.87875.87875,0,0,1-.64844.252Z"/><path class="cls-3" d="M1708.001,626.53955a12.50795,12.50795,0,0,1-5.66993-1.16992,8.18548,8.18548,0,0,1-3.54687-3.34863,11.68277,11.68277,0,0,1-1.36719-5.23829q-.03661-1.47509-.03613-3.168,0-1.69044.03613-3.23926a11.58263,11.58263,0,0,1,1.38574-5.2207,8.27008,8.27008,0,0,1,3.56348-3.36524,12.41136,12.41136,0,0,1,5.63477-1.16992,13.8597,13.8597,0,0,1,4.3916.64746,10.17573,10.17573,0,0,1,3.3125,1.78223,8.17315,8.17315,0,0,1,2.124,2.6455,7.58879,7.58879,0,0,1,.792,3.27637.60863.60863,0,0,1-.19824.54.79674.79674,0,0,1-.55859.21582h-3.41992a1.01,1.01,0,0,1-.64746-.19824,1.13885,1.13885,0,0,1-.36036-.666,4.94877,4.94877,0,0,0-1.97949-3.23925,6.55267,6.55267,0,0,0-3.49219-.86426,5.40742,5.40742,0,0,0-3.85254,1.34961q-1.43994,1.35059-1.54785,4.44629-.10839,2.95166,0,6.04785.1084,3.09668,1.54785,4.44629a5.40746,5.40746,0,0,0,3.85254,1.34961,6.53318,6.53318,0,0,0,3.50977-.88184,4.84681,4.84681,0,0,0,1.96191-3.22168.91173.91173,0,0,1,1.00782-.86426h3.41992a.79678.79678,0,0,1,.55859.21582.60958.60958,0,0,1,.19824.54,7.582,7.582,0,0,1-.792,3.27637,8.17318,8.17318,0,0,1-2.124,2.64551,10.17572,10.17572,0,0,1-3.3125,1.78222A13.85892,13.85892,0,0,1,1708.001,626.53955Z"/><path class="cls-3" d="M1730.46387,626.1792a.69076.69076,0,0,1-.50391-.21582.73167.73167,0,0,1-.21582-.54.90748.90748,0,0,1,.10742-.39648l5.94043-9.6836,4.752.792-5.36426,9.07227a3.46094,3.46094,0,0,1-.52149.666,1.24758,1.24758,0,0,1-.918.30566Zm14.40039,0a.89315.89315,0,0,1-.62988-.252.80451.80451,0,0,1-.27051-.61231V617.0708h-5.292a9.78048,9.78048,0,0,1-4.42774-.95312,6.92546,6.92546,0,0,1-2.95215-2.73633,8.97479,8.97479,0,0,1-.03613-8.334,7.49373,7.49373,0,0,1,3.00586-2.95215,10.04374,10.04374,0,0,1,4.95019-1.11621h8.89161a.82443.82443,0,0,1,.63086.252.87139.87139,0,0,1,.23339.6123v23.47168a.86975.86975,0,0,1-.23339.61231.821.821,0,0,1-.63086.252Zm-5.43653-13.17578h4.53614V604.9751h-4.53614a3.80678,3.80678,0,0,0-2.96972,1.16992,4.30139,4.30139,0,0,0-1.0625,3.00586,3.83184,3.83184,0,0,0,1.00879,2.8623A4.14983,4.14983,0,0,0,1739.42773,613.00342Z"/><path class="cls-3" d="M1780.93555,631.21924a.81742.81742,0,0,1-.62989-.25195.8663.8663,0,0,1-.23437-.61231V626.1792h-17.3877a.83358.83358,0,0,1-.6123-.252.87718.87718,0,0,1-.252-.64844V601.84326a.8188.8188,0,0,1,.252-.62988.86628.86628,0,0,1,.6123-.23438H1765.96a.82223.82223,0,0,1,.62988.252.87136.87136,0,0,1,.2334.6123V621.6792h10.62012V601.84326a.86026.86026,0,0,1,.86426-.86426h3.24023a.88027.88027,0,0,1,.64746.252.8351.8351,0,0,1,.252.6123V621.6792h1.72851a.87646.87646,0,0,1,.64746.25195.83443.83443,0,0,1,.25293.61231V630.355a.83445.83445,0,0,1-.25293.61231.87649.87649,0,0,1-.64746.25195Z"/><path class="cls-3" d="M1797.13574,626.1792a.86026.86026,0,0,1-.86426-.86426V601.84326a.86028.86028,0,0,1,.86426-.86426h3.27637a.82223.82223,0,0,1,.62988.252.87136.87136,0,0,1,.2334.6123v8.24414h3.99609a9.903,9.903,0,0,1,6.624,1.99805,7.3541,7.3541,0,0,1,2.34082,5.92187,8.72353,8.72353,0,0,1-.99024,4.13965,7.09224,7.09224,0,0,1-2.98828,2.95215,10.39625,10.39625,0,0,1-4.98633,1.08008Zm4.13965-3.99609h3.81641a3.7508,3.7508,0,0,0,2.95215-1.16993,4.39917,4.39917,0,0,0,1.04394-3.042,3.8331,3.8331,0,0,0-1.02637-2.916,4.15438,4.15438,0,0,0-2.96972-.97168h-3.81641Zm16.9209,3.99609a.86024.86024,0,0,1-.86426-.86426V601.84326a.86026.86026,0,0,1,.86426-.86426h3.38379a.82223.82223,0,0,1,.62988.252.87223.87223,0,0,1,.23438.6123v23.47168a.87058.87058,0,0,1-.23438.61231.81884.81884,0,0,1-.62988.252Z"/><path class="cls-3" d="M206.7207,191.1792a.86024.86024,0,0,1-.86425-.86426V166.87939a.8787.8787,0,0,1,.25195-.64843.83732.83732,0,0,1,.6123-.252h9.64844a12.51292,12.51292,0,0,1,4.89551.88184,6.99416,6.99416,0,0,1,3.24023,2.66406,8.03765,8.03765,0,0,1,1.15235,4.44629,7.92562,7.92562,0,0,1-1.15235,4.44629,6.94853,6.94853,0,0,1-3.24023,2.60938,12.738,12.738,0,0,1-4.89551.86425h-5.36426v8.42383a.86628.86628,0,0,1-.23437.61231.81884.81884,0,0,1-.62988.252Zm4.21192-13.28418h5.25586a4.67229,4.67229,0,0,0,3.2041-.99023,3.7148,3.7148,0,0,0,1.11621-2.9336,4.03621,4.03621,0,0,0-1.04395-2.89844,4.339,4.339,0,0,0-3.27636-1.09765h-5.25586Z"/><path class="cls-3" d="M244.08887,184.87939l-9.61231-17.748a.84386.84386,0,0,1-.10742-.36035.73251.73251,0,0,1,.252-.55762.78.78,0,0,1,.54-.23438h3.52735a.95791.95791,0,0,1,.55859.16211,1.12694,1.12694,0,0,1,.37793.52246l7.0918,13.24805Zm-5.58008,6.29981a.86024.86024,0,0,1-.86426-.86426v-2.66406a.87649.87649,0,0,1,.25195-.64746.83355.83355,0,0,1,.61231-.252h1.332a3.44875,3.44875,0,0,0,1.79981-.45019,4.47867,4.47867,0,0,0,1.40429-1.44043,15.94957,15.94957,0,0,0,1.2959-2.53809l6.876-15.65918a1.06415,1.06415,0,0,1,.3955-.52246,1.03958,1.03958,0,0,1,.57618-.16211h3.34863a.75358.75358,0,0,1,.52148.21582.6674.6674,0,0,1,.23438.50391,1.36053,1.36053,0,0,1-.03613.32422,1.42183,1.42183,0,0,1-.1084.28809l-7.23535,16.52441q-.90089,1.98046-1.69239,3.36621a9.70974,9.70974,0,0,1-1.72851,2.26758,5.77429,5.77429,0,0,1-2.21387,1.2959,10.04153,10.04153,0,0,1-3.07812.41406Z"/><path class="cls-3" d="M267.12793,191.1792a.86026.86026,0,0,1-.86426-.86426V166.87939a.87871.87871,0,0,1,.252-.64843.8373.8373,0,0,1,.6123-.252h16.48828a.82223.82223,0,0,1,.62988.252.91526.91526,0,0,1,.23438.64843v2.51954a.86628.86628,0,0,1-.23438.6123.8188.8188,0,0,1-.62988.25195H271.26758V176.023h6.085a9.353,9.353,0,0,1,6.37109,2.0166,6.898,6.898,0,0,1,2.30469,5.47168,7.59475,7.59475,0,0,1-.55859,2.86231,7.33149,7.33149,0,0,1-1.6377,2.46582,7.70855,7.70855,0,0,1-2.70019,1.71,10.396,10.396,0,0,1-3.7793.62988Zm4.13965-3.81641h5.58008a4.192,4.192,0,0,0,2.19629-.54,3.58853,3.58853,0,0,0,1.36816-1.43945,4.15639,4.15639,0,0,0,.46777-1.94434,3.63241,3.63241,0,0,0-1.00781-2.62792,4.02474,4.02474,0,0,0-3.02441-1.04395h-5.58008Z"/><path class="cls-3" d="M313.459,191.1792a.86025.86025,0,0,1-.86328-.86426V170.479h-7.8125v4.53614a51.70272,51.70272,0,0,1-.45019,7.37988,15.35021,15.35021,0,0,1-1.458,4.95019,6.58006,6.58006,0,0,1-2.73535,2.80762,9.72205,9.72205,0,0,1-4.32031.99024.74775.74775,0,0,1-.62989-.2334.8678.8678,0,0,1-.2705-.63086v-2.69922q0-.75586.82812-.86426a3.20408,3.20408,0,0,0,1.85449-1.00781,6.51536,6.51536,0,0,0,1.2959-2.33984,17.86577,17.86577,0,0,0,.77442-3.7627,47.91281,47.91281,0,0,0,.252-5.2373v-7.52442a.86025.86025,0,0,1,.86328-.86426h15.91211a.8631.8631,0,0,1,.90039.90039v23.43555a.83735.83735,0,0,1-.25195.61231.87876.87876,0,0,1-.64844.252Z"/><path class="cls-3" d="M331.2793,191.1792a.83358.83358,0,0,1-.61231-.252.87718.87718,0,0,1-.252-.64844V166.87939a.8631.8631,0,0,1,.90039-.90039h3.24023a.82224.82224,0,0,1,.62989.252.919.919,0,0,1,.2334.64843v16.52344l11.84472-16.84765a2.39771,2.39771,0,0,1,.39551-.37793,1.01857,1.01857,0,0,1,.64844-.19825h2.98828a.8367.8367,0,0,1,.61133.252.8787.8787,0,0,1,.25195.64843v23.43555a.86024.86024,0,0,1-.86328.86426h-3.24024a.87721.87721,0,0,1-.64843-.252.83355.83355,0,0,1-.252-.61231V174.11475L335.34766,190.603a2.50824,2.50824,0,0,1-.36036.36035,1.01708,1.01708,0,0,1-.68359.21582Z"/><path class="cls-4" d="M1456.82324,118.9834a22.611,22.611,0,0,1-9.41992-1.79981,13.71689,13.71689,0,0,1-6.18066-5.42968,18.469,18.469,0,0,1-2.39942-9.15039q-.06006-2.57812-.06054-5.12989,0-2.54883.06054-5.18945a18.37754,18.37754,0,0,1,2.42969-9.09082,14.12756,14.12756,0,0,1,6.24023-5.54981,24.18636,24.18636,0,0,1,18.59961,0,14.31968,14.31968,0,0,1,6.27051,5.54981,18.1811,18.1811,0,0,1,2.46,9.09082q.11865,2.63965.12012,5.18945,0,2.55176-.12012,5.12989a18.25783,18.25783,0,0,1-2.42969,9.15039,13.90168,13.90168,0,0,1-6.21,5.42968A22.45963,22.45963,0,0,1,1456.82324,118.9834Zm0-7.79981a8.06329,8.06329,0,0,0,5.72949-2.09961q2.25-2.09912,2.37012-6.78027.12012-2.63964.12012-4.95019,0-2.30861-.12012-4.88965a11.05668,11.05668,0,0,0-1.13965-5.09961,6.72314,6.72314,0,0,0-2.84961-2.88086,9.77271,9.77271,0,0,0-8.19043,0,6.67065,6.67065,0,0,0-2.87988,2.88086,11.5521,11.5521,0,0,0-1.20019,5.09961q-.06006,2.581-.05957,4.88965,0,2.31152.05957,4.95019.18017,4.68018,2.40039,6.78027A8.03593,8.03593,0,0,0,1456.82324,111.18359Z"/><path class="cls-4" d="M1486.22363,118.38379a1.267,1.267,0,0,1-.93066-.38965,1.33775,1.33775,0,0,1-.38965-.99023,1.48467,1.48467,0,0,1,.12012-.66016l12.35937-19.74023-11.21972-18.23926a1.29161,1.29161,0,0,1-.24024-.72071,1.31808,1.31808,0,0,1,.33008-.87011,1.15236,1.15236,0,0,1,.93066-.38965h7.25977a2.615,2.615,0,0,1,1.37988.33008,2.01822,2.01822,0,0,1,.78028.80957l9.35937,15.36035h4.2002v-15a1.46224,1.46224,0,0,1,.41992-1.08008,1.39071,1.39071,0,0,1,1.02051-.41992h6.2998a1.43841,1.43841,0,0,1,1.5,1.5v15h4.13965l9.2998-15.36035a2.52528,2.52528,0,0,1,.84082-.80957,2.61023,2.61023,0,0,1,1.37989-.33008h7.25976a1.15166,1.15166,0,0,1,.92969.38965,1.31808,1.31808,0,0,1,.33008.87011,1.29161,1.29161,0,0,1-.24024.72071l-11.21972,18.23926,12.36035,19.74023a1.51266,1.51266,0,0,1,.12012.66016,1.34226,1.34226,0,0,1-.39063.99023,1.2664,1.2664,0,0,1-.92969.38965h-7.55957a1.88815,1.88815,0,0,1-1.32031-.38965,3.35362,3.35362,0,0,1-.60059-.69043l-9.89941-15.90039h-4.5v15.54a1.39072,1.39072,0,0,1-.41992,1.02051,1.46228,1.46228,0,0,1-1.08008.41992h-6.2998a1.387,1.387,0,0,1-1.02051-.41992,1.45918,1.45918,0,0,1-.41992-1.08008V101.40332h-4.55957l-9.83985,15.90039a6.71665,6.71665,0,0,1-.66015.69043,1.89147,1.89147,0,0,1-1.32032.38965Z"/><path class="cls-4" d="M1557.502,118.38379a1.3417,1.3417,0,0,1-1.01953-.4502,1.48773,1.48773,0,0,1-.41992-1.0498v-39a1.43841,1.43841,0,0,1,1.5-1.5h6.59961a1.39165,1.39165,0,0,1,1.01953.41992,1.463,1.463,0,0,1,.4209,1.08008v25.86035l18.41992-26.28027a3.65407,3.65407,0,0,1,.71973-.75,1.79771,1.79771,0,0,1,1.13965-.33008h6a1.39383,1.39383,0,0,1,1.0205.41992,1.46609,1.46609,0,0,1,.41993,1.08008v39a1.463,1.463,0,0,1-.41993,1.08008,1.39006,1.39006,0,0,1-1.0205.41992h-6.59961a1.48777,1.48777,0,0,1-1.04981-.41992,1.407,1.407,0,0,1-.45019-1.08008V91.74414l-18.36035,25.55957a3.5973,3.5973,0,0,1-.66016.71973,1.89368,1.89368,0,0,1-1.25977.36035Z"/><path class="cls-4" d="M1606.28223,126.78418a1.39076,1.39076,0,0,1-1.02051-.41992,1.46383,1.46383,0,0,1-.41992-1.08008V111.30371a1.4894,1.4894,0,0,1,.41992-1.0498,1.34375,1.34375,0,0,1,1.02051-.4502h1.13965a3.01028,3.01028,0,0,0,2.46-1.34961,10.49785,10.49785,0,0,0,1.62011-3.90039,43.08373,43.08373,0,0,0,.90039-6.17969q.29883-3.62988.29981-8.12988V77.88379a1.46228,1.46228,0,0,1,.41992-1.08008,1.39072,1.39072,0,0,1,1.02051-.41992h27a1.43985,1.43985,0,0,1,1.5,1.5v31.91992h2.87988a1.41331,1.41331,0,0,1,1.08008.4502,1.4936,1.4936,0,0,1,.41992,1.0498v13.98047a1.4936,1.4936,0,0,1-.41992,1.0498,1.41331,1.41331,0,0,1-1.08008.4502h-6.60058a1.41039,1.41039,0,0,1-1.08008-.4502,1.48936,1.48936,0,0,1-.41992-1.0498v-6.90039h-23.04v6.90039a1.49361,1.49361,0,0,1-.41993,1.0498,1.41183,1.41183,0,0,1-1.08007.4502Zm12.66015-16.98047h14.16016V84.90332h-11.16016v6.54a68.176,68.176,0,0,1-.78027,11.37012A21.94078,21.94078,0,0,1,1618.94238,109.80371Z"/><path class="cls-4" d="M1656.32129,118.38379a1.1717,1.1717,0,0,1-.90039-.38965,1.25115,1.25115,0,0,1-.36035-.87012,2.18048,2.18048,0,0,1,.06054-.54l14.2793-38.58007a2.32179,2.32179,0,0,1,.7207-1.13965,2.17619,2.17619,0,0,1,1.5-.48047h7.67969a2.17955,2.17955,0,0,1,1.5.48047,2.77832,2.77832,0,0,1,.78027,1.13965l14.21973,38.58007a1.18986,1.18986,0,0,1,.12012.54,1.20835,1.20835,0,0,1-.38965.87012,1.26854,1.26854,0,0,1-.93066.38965h-6.29981a1.70756,1.70756,0,0,1-1.25976-.41992,2.09559,2.09559,0,0,1-.54-.78028l-2.58008-6.71972H1667.001l-2.52051,6.71972a3.45367,3.45367,0,0,1-.56934.78028,1.69586,1.69586,0,0,1-1.29.41992Zm12.96-15.66016h12.35938l-6.17969-17.21972Z"/><path class="cls-4" d="M1707.86035,118.38379a1.38478,1.38478,0,0,1-1.01953-.41992,1.45922,1.45922,0,0,1-.41992-1.08008v-39a1.46228,1.46228,0,0,1,.41992-1.08008,1.38852,1.38852,0,0,1,1.01953-.41992h6.60059a1.43985,1.43985,0,0,1,1.5,1.5v15h16.25976v-15a1.46225,1.46225,0,0,1,.41993-1.08008,1.38851,1.38851,0,0,1,1.01953-.41992h6.60058a1.43841,1.43841,0,0,1,1.5,1.5v39a1.43841,1.43841,0,0,1-1.5,1.5h-6.60058a1.38477,1.38477,0,0,1-1.01953-.41992,1.45919,1.45919,0,0,1-.41993-1.08008V101.40332h-16.25976v15.48047a1.43985,1.43985,0,0,1-1.5,1.5Z"/><path class="cls-4" d="M1757.48047,118.38379a1.34169,1.34169,0,0,1-1.01953-.4502,1.48769,1.48769,0,0,1-.41992-1.0498v-39a1.43841,1.43841,0,0,1,1.5-1.5h6.59961a1.39167,1.39167,0,0,1,1.01953.41992,1.463,1.463,0,0,1,.42089,1.08008v25.86035L1784.001,77.46387a3.65429,3.65429,0,0,1,.71972-.75,1.79775,1.79775,0,0,1,1.13965-.33008h6a1.39384,1.39384,0,0,1,1.02051.41992,1.46608,1.46608,0,0,1,.41992,1.08008v39a1.463,1.463,0,0,1-.41992,1.08008,1.39007,1.39007,0,0,1-1.02051.41992h-6.59961a1.48773,1.48773,0,0,1-1.0498-.41992,1.407,1.407,0,0,1-.4502-1.08008V91.74414l-18.36035,25.55957a3.5973,3.5973,0,0,1-.66016.71973,1.89365,1.89365,0,0,1-1.25976.36035Z"/><path class="cls-4" d="M1809.01953,118.38379A1.38478,1.38478,0,0,1,1808,117.96387a1.45922,1.45922,0,0,1-.41992-1.08008v-39A1.46228,1.46228,0,0,1,1808,76.80371a1.38852,1.38852,0,0,1,1.01953-.41992h27.24024a1.43842,1.43842,0,0,1,1.5,1.5v4.7998a1.43842,1.43842,0,0,1-1.5,1.5h-19.44043V93.544h18.12011a1.43841,1.43841,0,0,1,1.5,1.5V99.4834a1.4959,1.4959,0,0,1-.41992,1.05078,1.41255,1.41255,0,0,1-1.08008.44922h-18.12011V110.584h19.91992a1.43842,1.43842,0,0,1,1.5,1.5v4.79981a1.43841,1.43841,0,0,1-1.5,1.5Z"/><g id="Линии"><rect class="cls-5" x="706.66699" y="916" width="4" height="4"/><path class="cls-5" d="M710.667,891.72021h-4V883.627h4Zm0-32.37353h-4v-8.09326h4Zm0-32.37305h-4v-8.09326h4Zm0-32.37353h-4v-8.09326h4Zm0-32.37305h-4v-8.09326h4Zm0-32.37353h-4v-8.09327h4Zm0-32.37354h-4v-8.09326h4Zm0-32.373h-4v-8.09326h4Zm0-32.37353h-4v-8.09326h4Zm0-32.373h-4v-8.09326h4Zm0-32.37353h-4v-8.09327h4Zm0-32.373h-4V527.52h4Zm0-32.37354h-4V495.147h4Zm0-32.37353h-4v-8.09326h4Zm0-32.373h-4v-8.09326h4Zm0-32.37353h-4v-8.09326h4Zm0-32.373h-4v-8.09326h4Zm0-32.37353h-4v-8.09327h4Z"/><rect class="cls-5" x="706.66699" y="305" width="4" height="4"/><rect class="cls-5" x="817" y="916" width="4" height="4"/><path class="cls-5" d="M821,891.72021h-4V883.627h4Zm0-32.37353h-4v-8.09326h4Zm0-32.37305h-4v-8.09326h4Zm0-32.37353h-4v-8.09326h4Zm0-32.37305h-4v-8.09326h4Zm0-32.37353h-4v-8.09327h4ZM821,697.48h-4v-8.09326h4Zm0-32.373h-4v-8.09326h4Zm0-32.37353h-4v-8.09326h4Zm0-32.373h-4v-8.09326h4Zm0-32.37353h-4v-8.09327h4Zm0-32.373h-4V527.52h4Zm0-32.37354h-4V495.147h4Zm0-32.37353h-4v-8.09326h4Zm0-32.373h-4v-8.09326h4Zm0-32.37353h-4v-8.09326h4Zm0-32.373h-4v-8.09326h4Zm0-32.37353h-4v-8.09327h4Z"/><rect class="cls-5" x="817" y="305" width="4" height="4"/><rect class="cls-5" x="927.33301" y="916" width="4" height="4"/><path class="cls-5" d="M931.333,891.72021h-4V883.627h4Zm0-32.37353h-4v-8.09326h4Zm0-32.37305h-4v-8.09326h4Zm0-32.37353h-4v-8.09326h4Zm0-32.37305h-4v-8.09326h4Zm0-32.37353h-4v-8.09327h4Zm0-32.37354h-4v-8.09326h4Zm0-32.373h-4v-8.09326h4Zm0-32.37353h-4v-8.09326h4Zm0-32.373h-4v-8.09326h4Zm0-32.37353h-4v-8.09327h4Zm0-32.373h-4V527.52h4Zm0-32.37354h-4V495.147h4Zm0-32.37353h-4v-8.09326h4Zm0-32.373h-4v-8.09326h4Zm0-32.37353h-4v-8.09326h4Zm0-32.373h-4v-8.09326h4Zm0-32.37353h-4v-8.09327h4Z"/><rect class="cls-5" x="927.33301" y="305" width="4" height="4"/><rect class="cls-6" x="1035.66699" y="911" width="8" height="9"/><path class="cls-6" d="M1043.667,885.04346h-8V867.07373h8Zm0-43.92627h-8V823.147h8Zm0-43.92676h-8V779.2207h8Zm0-43.92627h-8V735.29443h8Zm0-43.92627h-8V691.36768h8Zm0-43.92676h-8V647.44141h8Zm0-43.92627h-8V603.51514h8Zm0-43.92627h-8V559.58838h8Zm0-43.92675h-8V515.66211h8Zm0-43.92627h-8V471.73584h8Zm0-43.92627h-8V427.80908h8Zm0-43.92627h-8V383.88281h8Zm0-43.92676h-8V339.95654h8Z"/><rect class="cls-6" x="1035.66699" y="305" width="8" height="9"/><rect class="cls-5" x="1148" y="916" width="4" height="4"/><path class="cls-5" d="M1152,891.72021h-4V883.627h4Zm0-32.37353h-4v-8.09326h4Zm0-32.37305h-4v-8.09326h4Zm0-32.37353h-4v-8.09326h4Zm0-32.37305h-4v-8.09326h4Zm0-32.37353h-4v-8.09327h4Zm0-32.37354h-4v-8.09326h4Zm0-32.373h-4v-8.09326h4Zm0-32.37353h-4v-8.09326h4Zm0-32.373h-4v-8.09326h4Zm0-32.37353h-4v-8.09327h4Zm0-32.373h-4V527.52h4Zm0-32.37354h-4V495.147h4Zm0-32.37353h-4v-8.09326h4Zm0-32.373h-4v-8.09326h4Zm0-32.37353h-4v-8.09326h4Zm0-32.373h-4v-8.09326h4Zm0-32.37353h-4v-8.09327h4Z"/><rect class="cls-5" x="1148" y="305" width="4" height="4"/><rect class="cls-5" x="1258.33398" y="916" width="4" height="4"/><path class="cls-5" d="M1262.334,891.72021h-4V883.627h4Zm0-32.37353h-4v-8.09326h4Zm0-32.37305h-4v-8.09326h4Zm0-32.37353h-4v-8.09326h4Zm0-32.37305h-4v-8.09326h4Zm0-32.37353h-4v-8.09327h4Zm0-32.37354h-4v-8.09326h4Zm0-32.373h-4v-8.09326h4Zm0-32.37353h-4v-8.09326h4Zm0-32.373h-4v-8.09326h4Zm0-32.37353h-4v-8.09327h4Zm0-32.373h-4V527.52h4Zm0-32.37354h-4V495.147h4Zm0-32.37353h-4v-8.09326h4Zm0-32.373h-4v-8.09326h4Zm0-32.37353h-4v-8.09326h4Zm0-32.373h-4v-8.09326h4Zm0-32.37353h-4v-8.09327h4Z"/><rect class="cls-5" x="1258.33398" y="305" width="4" height="4"/><rect class="cls-5" x="1368.66602" y="916" width="4" height="4"/><path class="cls-5" d="M1372.666,891.72021h-4V883.627h4Zm0-32.37353h-4v-8.09326h4Zm0-32.37305h-4v-8.09326h4Zm0-32.37353h-4v-8.09326h4Zm0-32.37305h-4v-8.09326h4Zm0-32.37353h-4v-8.09327h4Zm0-32.37354h-4v-8.09326h4Zm0-32.373h-4v-8.09326h4Zm0-32.37353h-4v-8.09326h4Zm0-32.373h-4v-8.09326h4Zm0-32.37353h-4v-8.09327h4Zm0-32.373h-4V527.52h4Zm0-32.37354h-4V495.147h4Zm0-32.37353h-4v-8.09326h4Zm0-32.373h-4v-8.09326h4Zm0-32.37353h-4v-8.09326h4Zm0-32.373h-4v-8.09326h4Zm0-32.37353h-4v-8.09327h4Z"/><rect class="cls-5" x="1368.66602" y="305" width="4" height="4"/><rect class="cls-5" x="1479" y="916" width="4" height="4"/><path class="cls-5" d="M1483,891.72021h-4V883.627h4Zm0-32.37353h-4v-8.09326h4Zm0-32.37305h-4v-8.09326h4Zm0-32.37353h-4v-8.09326h4Zm0-32.37305h-4v-8.09326h4Zm0-32.37353h-4v-8.09327h4Zm0-32.37354h-4v-8.09326h4Zm0-32.373h-4v-8.09326h4Zm0-32.37353h-4v-8.09326h4Zm0-32.373h-4v-8.09326h4Zm0-32.37353h-4v-8.09327h4Zm0-32.373h-4V527.52h4Zm0-32.37354h-4V495.147h4Zm0-32.37353h-4v-8.09326h4Zm0-32.373h-4v-8.09326h4Zm0-32.37353h-4v-8.09326h4Zm0-32.373h-4v-8.09326h4Zm0-32.37353h-4v-8.09327h4Z"/><rect class="cls-5" x="1479" y="305" width="4" height="4"/><rect class="cls-5" x="265.33301" y="916" width="4" height="4"/><path class="cls-5" d="M269.333,891.72021h-4V883.627h4Zm0-32.37353h-4v-8.09326h4Zm0-32.37305h-4v-8.09326h4Zm0-32.37353h-4v-8.09326h4Zm0-32.37305h-4v-8.09326h4Zm0-32.37353h-4v-8.09327h4Zm0-32.37354h-4v-8.09326h4Zm0-32.373h-4v-8.09326h4Zm0-32.37353h-4v-8.09326h4Zm0-32.373h-4v-8.09326h4Zm0-32.37353h-4v-8.09327h4Zm0-32.373h-4V527.52h4Zm0-32.37354h-4V495.147h4Zm0-32.37353h-4v-8.09326h4Zm0-32.373h-4v-8.09326h4Zm0-32.37353h-4v-8.09326h4Zm0-32.373h-4v-8.09326h4Zm0-32.37353h-4v-8.09327h4Z"/><rect class="cls-5" x="265.33301" y="305" width="4" height="4"/><rect class="cls-5" x="375.66699" y="916" width="4" height="4"/><path class="cls-5" d="M379.667,891.72021h-4V883.627h4Zm0-32.37353h-4v-8.09326h4Zm0-32.37305h-4v-8.09326h4Zm0-32.37353h-4v-8.09326h4Zm0-32.37305h-4v-8.09326h4Zm0-32.37353h-4v-8.09327h4Zm0-32.37354h-4v-8.09326h4Zm0-32.373h-4v-8.09326h4Zm0-32.37353h-4v-8.09326h4Zm0-32.373h-4v-8.09326h4Zm0-32.37353h-4v-8.09327h4Zm0-32.373h-4V527.52h4Zm0-32.37354h-4V495.147h4Zm0-32.37353h-4v-8.09326h4Zm0-32.373h-4v-8.09326h4Zm0-32.37353h-4v-8.09326h4Zm0-32.373h-4v-8.09326h4Zm0-32.37353h-4v-8.09327h4Z"/><rect class="cls-5" x="375.66699" y="305" width="4" height="4"/><rect class="cls-5" x="486" y="916" width="4" height="4"/><path class="cls-5" d="M490,891.72021h-4V883.627h4Zm0-32.37353h-4v-8.09326h4Zm0-32.37305h-4v-8.09326h4Zm0-32.37353h-4v-8.09326h4Zm0-32.37305h-4v-8.09326h4Zm0-32.37353h-4v-8.09327h4ZM490,697.48h-4v-8.09326h4Zm0-32.373h-4v-8.09326h4Zm0-32.37353h-4v-8.09326h4Zm0-32.373h-4v-8.09326h4Zm0-32.37353h-4v-8.09327h4Zm0-32.373h-4V527.52h4Zm0-32.37354h-4V495.147h4Zm0-32.37353h-4v-8.09326h4Zm0-32.373h-4v-8.09326h4Zm0-32.37353h-4v-8.09326h4Zm0-32.373h-4v-8.09326h4Zm0-32.37353h-4v-8.09327h4Z"/><rect class="cls-5" x="486" y="305" width="4" height="4"/><rect class="cls-6" x="594.33301" y="305" width="8" height="615"/><rect class="cls-3" x="155" y="199.24219" width="4" height="720.75781"/><polygon class="cls-3" points="157 171 173.262 210.797 157 201.354 140.742 210.797 157 171"/></g><g class="cls-7"><polygon class="cls-4" points="598.026 888.013 149.913 619.145 156.087 608.855 597.974 873.987 1520.875 310.878 1527.125 321.122 598.026 888.013"/></g><circle class="cls-6" cx="598" cy="963" r="50"/><path class="cls-2" d="M562.46,976.88135a.82781.82781,0,0,1-.61328-.23828.786.786,0,0,1-.23828-.57862V953.90283a.81623.81623,0,0,1,.85156-.85107h2.68848a.93085.93085,0,0,1,.71484.25488,1.9958,1.9958,0,0,1,.30664.3916l6.57031,12.25537,6.63868-12.25537a1.98068,1.98068,0,0,1,.30566-.3916.93464.93464,0,0,1,.71582-.25488h2.65527a.81617.81617,0,0,1,.85059.85107v22.16162a.7898.7898,0,0,1-.23828.57862.82863.82863,0,0,1-.61231.23828h-2.86035a.77184.77184,0,0,1-.5957-.23828.8187.8187,0,0,1-.2207-.57862V961.32373l-4.76661,9.08936a1.79134,1.79134,0,0,1-.44238.52783,1.09618,1.09618,0,0,1-.71484.22119h-1.39551a1.08425,1.08425,0,0,1-.73242-.22119,1.92911,1.92911,0,0,1-.42481-.52783l-4.7666-9.08936v14.74072a.81356.81356,0,0,1-.8164.8169Z"/><path class="cls-2" d="M598.71387,976.88135a1.23213,1.23213,0,0,1-.85059-.27246,1.53621,1.53621,0,0,1-.44238-.68067l-7.28516-21.85547a.8248.8248,0,0,1-.06836-.30615.69759.69759,0,0,1,.71485-.71484h2.99609a.99047.99047,0,0,1,.73145.25488,1.18284,1.18284,0,0,1,.32324.49365l5.7539,17.53223,5.75293-17.53223a1.19253,1.19253,0,0,1,.32325-.49365.99132.99132,0,0,1,.73242-.25488h2.99512a.71291.71291,0,0,1,.49414.2041.66553.66553,0,0,1,.2207.51074.8416.8416,0,0,1-.06738.30615l-7.28516,21.85547a1.54645,1.54645,0,0,1-.44336.68067,1.2338,1.2338,0,0,1-.85059.27246Z"/><path class="cls-2" d="M618.085,976.88135a.81357.81357,0,0,1-.81738-.8169V953.90283a.82821.82821,0,0,1,.23828-.61279.78741.78741,0,0,1,.5791-.23828h9.123a11.83214,11.83214,0,0,1,4.62988.834,6.6058,6.6058,0,0,1,3.06348,2.519,7.59163,7.59163,0,0,1,1.08984,4.2041,7.48826,7.48826,0,0,1-1.08984,4.20459,6.57247,6.57247,0,0,1-3.06348,2.46777,12.04791,12.04791,0,0,1-4.62988.81689h-5.07227v7.96631a.81952.81952,0,0,1-.22168.57862.77184.77184,0,0,1-.5957.23828Zm3.98242-12.56153h4.97071a4.41989,4.41989,0,0,0,3.02929-.93652,3.51553,3.51553,0,0,0,1.05567-2.77441,3.81306,3.81306,0,0,0-.98731-2.74024,4.10227,4.10227,0,0,0-3.09765-1.03857h-4.97071Z"/><rect class="cls-3" x="158" y="610.5" width="1406.75781" height="4"/><polygon class="cls-3" points="1593 612.5 1553.203 628.762 1562.646 612.5 1553.203 596.242 1593 612.5"/><g id="Месяцы"><rect class="cls-3" x="242" y="587.5" width="50" height="50"/><path class="cls-2" d="M268.31543,622.75635a.65483.65483,0,0,1-.50488-.20215.69239.69239,0,0,1-.18848-.49121V607.09863l-4.39062,3.37989a.70666.70666,0,0,1-.52051.12988.74191.74191,0,0,1-.46192-.30322l-1.21289-1.56006a.75817.75817,0,0,1-.13086-.54883.65963.65963,0,0,1,.30371-.4624l6.47071-4.99756a.74449.74449,0,0,1,.34668-.17334,2.32424,2.32424,0,0,1,.376-.02881h2.542a.69021.69021,0,0,1,.69336.69336V622.063a.69021.69021,0,0,1-.69336.69336Z"/><rect class="cls-3" x="352.36364" y="587.5" width="50" height="50"/><path class="cls-2" d="M370.416,622.75635a.69019.69019,0,0,1-.69336-.69336v-1.47315a1.90313,1.90313,0,0,1,.12988-.62109,1.79718,1.79718,0,0,1,.59277-.73682l4.56446-4.53564q1.90575-1.50147,3.07617-2.55664a9.1288,9.1288,0,0,0,1.70508-1.93555,3.35853,3.35853,0,0,0,.53418-1.74756,3.08663,3.08663,0,0,0-.708-2.10888,2.82625,2.82625,0,0,0-2.23926-.80909,3.24376,3.24376,0,0,0-1.7041.41895,2.99846,2.99846,0,0,0-1.083,1.1123,4.72923,4.72923,0,0,0-.53418,1.53077.66736.66736,0,0,1-.31836.52,1.05685,1.05685,0,0,1-.51953.14453h-2.57129a.58659.58659,0,0,1-.43359-.17334.55383.55383,0,0,1-.17285-.4043,6.56572,6.56572,0,0,1,.51953-2.41211,6.2246,6.2246,0,0,1,1.42968-2.08008,7.05316,7.05316,0,0,1,2.29688-1.459,8.11332,8.11332,0,0,1,3.0625-.54883,8.65339,8.65339,0,0,1,3.97168.80908,5.5798,5.5798,0,0,1,2.36914,2.19531,6.16612,6.16612,0,0,1,.79492,3.12012,5.955,5.955,0,0,1-.52051,2.499,8.26981,8.26981,0,0,1-1.50195,2.19531,21.32978,21.32978,0,0,1-2.36914,2.15234l-4.10156,4.15967h8.23242a.6471.6471,0,0,1,.69336.69336V622.063a.69582.69582,0,0,1-.1875.49121.657.657,0,0,1-.50586.20215Z"/><rect class="cls-3" x="462.72727" y="587.5" width="50" height="50"/><path class="cls-2" d="M487.61328,623.04541a11.0914,11.0914,0,0,1-3.49512-.49121,7.57661,7.57661,0,0,1-2.4414-1.28565,5.64208,5.64208,0,0,1-1.459-1.73339,4.26647,4.26647,0,0,1-.51953-1.86328.51939.51939,0,0,1,.1875-.41895.67208.67208,0,0,1,.44727-.15869h2.60058a.98246.98246,0,0,1,.49121.11523.92317.92317,0,0,1,.34668.46241,2.55116,2.55116,0,0,0,.85157,1.24218,3.54147,3.54147,0,0,0,1.37207.6499,7.00669,7.00669,0,0,0,1.64746.188,4.28367,4.28367,0,0,0,2.75879-.82324,2.84411,2.84411,0,0,0,1.02539-2.35449,2.52442,2.52442,0,0,0-.95313-2.21,4.52127,4.52127,0,0,0-2.6582-.6792h-2.97559a.72941.72941,0,0,1-.51953-.1875.65287.65287,0,0,1-.20215-.50586v-1.21289a.96309.96309,0,0,1,.12989-.50586,1.81342,1.81342,0,0,1,.27441-.36084l5.1709-5.05566h-8.2627a.65483.65483,0,0,1-.50488-.20215.69157.69157,0,0,1-.1875-.49121v-1.90674a.73007.73007,0,0,1,.1875-.52.6565.6565,0,0,1,.50488-.20215h12.39356a.69249.69249,0,0,1,.72266.72217v1.7334a.91158.91158,0,0,1-.11622.46191,1.59507,1.59507,0,0,1-.25976.34668l-4.99707,5.14258.3457.02881a8.9889,8.9889,0,0,1,3.13477.79443,4.92692,4.92692,0,0,1,2.13769,1.89209,5.85033,5.85033,0,0,1,.76563,3.12012,5.542,5.542,0,0,1-1.02539,3.36572,6.51987,6.51987,0,0,1-2.81641,2.15186A10.52666,10.52666,0,0,1,487.61328,623.04541Z"/><rect class="cls-6" x="573.09091" y="587.5" width="50" height="50"/><path class="cls-2" d="M600.085,622.75635a.69021.69021,0,0,1-.69336-.69336v-3.69776h-9.1582a.6548.6548,0,0,1-.50488-.20214.69239.69239,0,0,1-.18848-.49121v-1.96436a1.5398,1.5398,0,0,1,.07226-.41895,1.20683,1.20683,0,0,1,.2461-.44775l8.52246-11.81543a1.26446,1.26446,0,0,1,1.06836-.49121h3.14941a.69021.69021,0,0,1,.69336.69336v11.729h2.57031a.7261.7261,0,0,1,.53516.1875.68484.68484,0,0,1,.1875.50586v2.022a.69019.69019,0,0,1-.69336.69335H603.292V622.063a.69021.69021,0,0,1-.69336.69336Zm-6.5293-7.68457h5.92286v-8.34864Z"/><rect class="cls-3" x="683.45455" y="587.5" width="50" height="50"/><path class="cls-2" d="M708.34082,623.07422a9.57938,9.57938,0,0,1-4.18848-.82324,6.28061,6.28061,0,0,1-2.58593-2.15235,5.41465,5.41465,0,0,1-.93848-2.83105.45006.45006,0,0,1,.1582-.41895.67323.67323,0,0,1,.44825-.15918h2.68652a1.01893,1.01893,0,0,1,.53418.13037.82406.82406,0,0,1,.333.44776,3.61425,3.61425,0,0,0,.82324,1.41553,3.28858,3.28858,0,0,0,1.24219.80859,4.27884,4.27884,0,0,0,1.4873.26025,4.23284,4.23284,0,0,0,1.89258-.41894,3.31046,3.31046,0,0,0,1.37207-1.25684,3.81567,3.81567,0,0,0,.51953-2.05078,3.40076,3.40076,0,0,0-.49023-1.84912,3.46135,3.46135,0,0,0-1.34375-1.22754,4.13458,4.13458,0,0,0-1.9502-.44775,3.71265,3.71265,0,0,0-1.3291.20215,3.947,3.947,0,0,0-.88086.46191c-.24121.17334-.45215.32812-.63574.4624a1.01947,1.01947,0,0,1-.6211.20215H702.2168a.64022.64022,0,0,1-.63575-.63525l1.01075-9.88038a.78816.78816,0,0,1,.80957-.77978h10.8623a.69018.69018,0,0,1,.69238.69336v1.93555a.69018.69018,0,0,1-.69238.69336h-8.34961l-.46191,4.709a6.65842,6.65842,0,0,1,1.38672-.66455,7.20256,7.20256,0,0,1,2.39746-.31787,7.82049,7.82049,0,0,1,2.64355.44775,6.95852,6.95852,0,0,1,2.23926,1.29981,6.14408,6.14408,0,0,1,1.54492,2.05127,6.34112,6.34112,0,0,1,.56348,2.73,6.73627,6.73627,0,0,1-.98242,3.66894,6.59942,6.59942,0,0,1-2.74414,2.42676A9.33055,9.33055,0,0,1,708.34082,623.07422Z"/><rect class="cls-3" x="793.81818" y="587.5" width="50" height="50"/><path class="cls-2" d="M818.97754,623.04541a9.09144,9.09144,0,0,1-4.27539-.939,6.94866,6.94866,0,0,1-2.77344-2.54249,6.74289,6.74289,0,0,1-.98242-3.59667,6.4457,6.4457,0,0,1,.23144-1.7334,8.67154,8.67154,0,0,1,.60645-1.58887q.375-.75073.73633-1.34326a7.926,7.926,0,0,1,.65039-.939l5.28613-7.251a3.65222,3.65222,0,0,1,.34668-.36084.8931.8931,0,0,1,.63574-.2168H822.126a.56493.56493,0,0,1,.43359.1875.64016.64016,0,0,1,.17285.44824.53474.53474,0,0,1-.043.21631.51312.51312,0,0,1-.10058.15918L818.544,609.1499a2.60943,2.60943,0,0,1,.60644-.11572q.34717-.02856.63574-.02881a7.54993,7.54993,0,0,1,2.74414.563,7.40342,7.40342,0,0,1,2.28223,1.459,6.81094,6.81094,0,0,1,1.5459,2.167,6.48932,6.48932,0,0,1,.56348,2.71533,6.90275,6.90275,0,0,1-.95313,3.53906,7,7,0,0,1-2.73047,2.61426A8.68138,8.68138,0,0,1,818.97754,623.04541Zm-.0293-3.32227a4.28878,4.28878,0,0,0,1.9209-.43359,3.56216,3.56216,0,0,0,1.43066-1.271,3.72231,3.72231,0,0,0,.54883-2.08007,3.66768,3.66768,0,0,0-.54883-2.05078,3.567,3.567,0,0,0-1.43066-1.27149,4.47637,4.47637,0,0,0-3.8418,0,3.558,3.558,0,0,0-1.42968,1.27149,3.65985,3.65985,0,0,0-.54883,2.05078,3.71445,3.71445,0,0,0,.54883,2.08007,3.55316,3.55316,0,0,0,1.42968,1.271A4.28881,4.28881,0,0,0,818.94824,619.72314Z"/><rect class="cls-3" x="904.18182" y="587.5" width="50" height="50"/><path class="cls-2" d="M925.52637,622.75635a.56309.56309,0,0,1-.43262-.188.63473.63473,0,0,1-.17383-.44775.72023.72023,0,0,1,.05762-.25977l6.96289-15.88916h-9.07129a.65525.65525,0,0,1-.50586-.20215.69464.69464,0,0,1-.1875-.49072v-2.02246a.73438.73438,0,0,1,.1875-.52.65868.65868,0,0,1,.50586-.20215h12.68164a.65866.65866,0,0,1,.50586.20215.73438.73438,0,0,1,.1875.52v1.791a2.72794,2.72794,0,0,1-.07226.6792,4.72526,4.72526,0,0,1-.1875.563l-6.9043,15.77344a1.743,1.743,0,0,1-.30371.44775.78218.78218,0,0,1-.6211.24561Z"/><rect class="cls-6" x="1014.54545" y="587.5" width="50" height="50"/><path class="cls-2" d="M1039.54492,623.04541a11.6,11.6,0,0,1-3.40918-.4624,7.36422,7.36422,0,0,1-2.52734-1.29981,5.64869,5.64869,0,0,1-1.56055-1.96484,5.788,5.788,0,0,1-.53418-2.51318,5.09128,5.09128,0,0,1,.82324-2.90332,5.52519,5.52519,0,0,1,2.15235-1.89209,4.76251,4.76251,0,0,1-1.66113-1.70459,4.82189,4.82189,0,0,1-.5918-2.42676,5.09694,5.09694,0,0,1,.85156-2.93213,5.68773,5.68773,0,0,1,2.48438-1.979,11.35205,11.35205,0,0,1,7.93066-.01416,5.50614,5.50614,0,0,1,2.45508,1.96435,5.16228,5.16228,0,0,1,.83789,2.93213,4.75958,4.75958,0,0,1-2.19531,4.16016,5.09984,5.09984,0,0,1,2.167,1.89209,5.308,5.308,0,0,1,.80859,2.93212,5.651,5.651,0,0,1-.93945,3.2212,6.20139,6.20139,0,0,1-2.74414,2.1958A10.76411,10.76411,0,0,1,1039.54492,623.04541Zm0-3.00439a5.13023,5.13023,0,0,0,2.03711-.39014,3.44486,3.44486,0,0,0,1.44434-1.11231,3.0094,3.0094,0,0,0,0-3.42334,3.49157,3.49157,0,0,0-1.44434-1.09765,5.51344,5.51344,0,0,0-4.07422,0,3.48529,3.48529,0,0,0-1.44433,1.09765,3.0094,3.0094,0,0,0,0,3.42334,3.43877,3.43877,0,0,0,1.44433,1.11231A5.13026,5.13026,0,0,0,1039.54492,620.041Zm0-9.27344a4.68635,4.68635,0,0,0,1.748-.37549,3.21583,3.21583,0,0,0,1.27051-.95361,2.22049,2.22049,0,0,0,.47656-1.41553,2.4348,2.4348,0,0,0-.44727-1.459,2.94737,2.94737,0,0,0-1.24218-.96777,4.8757,4.8757,0,0,0-3.61133,0,2.94135,2.94135,0,0,0-1.24219.96777,2.42827,2.42827,0,0,0-.44727,1.459,2.36081,2.36081,0,0,0,.44727,1.44434,2.98427,2.98427,0,0,0,1.24219.95361A4.4726,4.4726,0,0,0,1039.54492,610.76758Z"/><rect class="cls-3" x="1124.90909" y="587.5" width="50" height="50"/><path class="cls-2" d="M1146.3125,622.75635a.56659.56659,0,0,1-.43359-.188.63811.63811,0,0,1-.17286-.44775.52806.52806,0,0,1,.043-.231c.0293-.05762.05274-.10547.07227-.14453l4.24707-5.86426a3.92884,3.92884,0,0,1-1.18457.11572,7.26892,7.26892,0,0,1-2.73047-.56347,7.14735,7.14735,0,0,1-2.19531-1.44434,6.7249,6.7249,0,0,1-1.47363-2.10889,6.34637,6.34637,0,0,1-.53418-2.61474,6.97573,6.97573,0,0,1,.49121-2.55664,6.7994,6.7994,0,0,1,3.88574-3.8711,9.0692,9.0692,0,0,1,3.42285-.59228,9.75573,9.75573,0,0,1,3.40918.54883,6.98988,6.98988,0,0,1,2.46973,1.51709,6.44414,6.44414,0,0,1,1.50293,2.21,6.92608,6.92608,0,0,1,.50488,2.6289,6.47848,6.47848,0,0,1-.4043,2.311,9.51624,9.51624,0,0,1-.99609,1.9497q-.59327.88185-1.16992,1.71924l-5.085,7.04883a4.595,4.595,0,0,1-.332.36084.88333.88333,0,0,1-.65039.2168Zm3.4668-9.82227a4.00344,4.00344,0,0,0,1.89258-.44775,3.45041,3.45041,0,0,0,1.35742-1.271,3.655,3.655,0,0,0,.50586-1.95019,3.71309,3.71309,0,0,0-.50586-1.979,3.42847,3.42847,0,0,0-1.37207-1.271,4.19268,4.19268,0,0,0-3.77051,0,3.4472,3.4472,0,0,0-1.35742,1.271,3.713,3.713,0,0,0-.50586,1.979,3.65488,3.65488,0,0,0,.50586,1.95019,3.44382,3.44382,0,0,0,1.35742,1.271A4.00344,4.00344,0,0,0,1149.7793,612.93408Z"/><rect class="cls-3" x="1235.27273" y="587.5" width="50" height="50"/><path class="cls-2" d="M1251.374,622.75635a.65483.65483,0,0,1-.50488-.20215.69239.69239,0,0,1-.18848-.49121V607.09863l-4.39062,3.37989a.70666.70666,0,0,1-.52051.12988.74187.74187,0,0,1-.46191-.30322l-1.21289-1.56006a.75817.75817,0,0,1-.13086-.54883.6596.6596,0,0,1,.30371-.4624l6.4707-4.99756a.74454.74454,0,0,1,.34668-.17334,2.32427,2.32427,0,0,1,.376-.02881h2.542a.69021.69021,0,0,1,.69336.69336V622.063a.69021.69021,0,0,1-.69336.69336Z"/><path class="cls-2" d="M1267.667,623.04541a9.01089,9.01089,0,0,1-3.49511-.60693,6.28539,6.28539,0,0,1-2.36915-1.6753,7.13371,7.13371,0,0,1-1.38671-2.47021,11.4775,11.4775,0,0,1-.54883-2.98975q-.0293-.78-.04395-1.71924-.01464-.93822,0-1.89209.01466-.95361.04395-1.7622a10.06546,10.06546,0,0,1,.54883-2.99024,7.10235,7.10235,0,0,1,1.42968-2.44091,6.58365,6.58365,0,0,1,2.38379-1.64649,8.839,8.839,0,0,1,3.4375-.60693,8.93114,8.93114,0,0,1,3.4668.60693,6.58794,6.58794,0,0,1,2.38281,1.64649,6.93643,6.93643,0,0,1,1.416,2.44091,10.44732,10.44732,0,0,1,.53418,2.99024q.05712.80932.05761,1.7622V613.584q0,.939-.05761,1.71924a10.7832,10.7832,0,0,1-.51953,2.98975,7.16539,7.16539,0,0,1-1.38672,2.47021,6.27951,6.27951,0,0,1-2.38379,1.6753A9.1296,9.1296,0,0,1,1267.667,623.04541Zm0-3.32227a3.1643,3.1643,0,0,0,2.75879-1.228,5.76648,5.76648,0,0,0,.91016-3.33643q.05712-.83788.05761-1.68994v-1.71924q0-.86644-.05761-1.64648a5.80021,5.80021,0,0,0-.91016-3.30762,3.62517,3.62517,0,0,0-5.48926,0,5.95,5.95,0,0,0-.93847,3.30762q0,.78-.01465,1.64648-.01466.86719,0,1.71924.01464.85254.01465,1.68994a5.83363,5.83363,0,0,0,.95312,3.33643A3.14046,3.14046,0,0,0,1267.667,619.72314Z"/><rect class="cls-3" x="1345.63636" y="587.5" width="50" height="50"/><path class="cls-2" d="M1364.541,622.75635a.65483.65483,0,0,1-.50489-.20215.69243.69243,0,0,1-.18847-.49121V607.09863l-4.39063,3.37989a.70666.70666,0,0,1-.52051.12988.74189.74189,0,0,1-.46191-.30322l-1.21289-1.56006a.75817.75817,0,0,1-.13086-.54883.65963.65963,0,0,1,.30371-.4624l6.4707-4.99756a.74454.74454,0,0,1,.34668-.17334,2.32427,2.32427,0,0,1,.376-.02881h2.542a.69021.69021,0,0,1,.69336.69336V622.063a.69021.69021,0,0,1-.69336.69336Z"/><path class="cls-2" d="M1379.36035,622.75635a.65483.65483,0,0,1-.50488-.20215.69239.69239,0,0,1-.18848-.49121V607.09863l-4.39062,3.37989a.70666.70666,0,0,1-.52051.12988.74187.74187,0,0,1-.46191-.30322l-1.2129-1.56006a.75816.75816,0,0,1-.13085-.54883.65957.65957,0,0,1,.30371-.4624l6.4707-4.99756a.74449.74449,0,0,1,.34668-.17334,2.32427,2.32427,0,0,1,.376-.02881h2.542a.69021.69021,0,0,1,.69336.69336V622.063a.69021.69021,0,0,1-.69336.69336Z"/><rect class="cls-3" x="1456" y="587.5" width="50" height="50"/><path class="cls-2" d="M1472.65137,622.75635a.65483.65483,0,0,1-.50489-.20215.69243.69243,0,0,1-.18847-.49121V607.09863l-4.39063,3.37989a.70665.70665,0,0,1-.5205.12988.74189.74189,0,0,1-.46192-.30322l-1.21289-1.56006a.75817.75817,0,0,1-.13086-.54883.65963.65963,0,0,1,.30371-.4624l6.47071-4.99756a.74451.74451,0,0,1,.34667-.17334,2.32445,2.32445,0,0,1,.376-.02881h2.542a.69021.69021,0,0,1,.69336.69336V622.063a.69021.69021,0,0,1-.69336.69336Z"/><path class="cls-2" d="M1481.46191,622.75635a.69021.69021,0,0,1-.69336-.69336v-1.47315a1.90317,1.90317,0,0,1,.12989-.62109,1.79718,1.79718,0,0,1,.59277-.73682l4.56445-4.53564q1.90576-1.50147,3.07618-2.55664a9.12843,9.12843,0,0,0,1.70507-1.93555,3.35844,3.35844,0,0,0,.53418-1.74756,3.08662,3.08662,0,0,0-.708-2.10888,2.82625,2.82625,0,0,0-2.23926-.80909,3.24376,3.24376,0,0,0-1.7041.41895,2.99839,2.99839,0,0,0-1.083,1.1123,4.72923,4.72923,0,0,0-.53418,1.53077.66736.66736,0,0,1-.31836.52,1.05685,1.05685,0,0,1-.51953.14453h-2.57129a.58659.58659,0,0,1-.43359-.17334.55385.55385,0,0,1-.17286-.4043,6.56594,6.56594,0,0,1,.51954-2.41211,6.22446,6.22446,0,0,1,1.42968-2.08008,7.05305,7.05305,0,0,1,2.29688-1.459,8.11332,8.11332,0,0,1,3.0625-.54883,8.65339,8.65339,0,0,1,3.97168.80908,5.5798,5.5798,0,0,1,2.36914,2.19531,6.16612,6.16612,0,0,1,.79492,3.12012,5.955,5.955,0,0,1-.52051,2.499,8.26981,8.26981,0,0,1-1.50195,2.19531,21.32978,21.32978,0,0,1-2.36914,2.15234l-4.10156,4.15967h8.23242a.6471.6471,0,0,1,.69336.69336V622.063a.69582.69582,0,0,1-.1875.49121.657.657,0,0,1-.50586.20215Z"/></g><g id="Версии"><path class="cls-3" d="M276.417,256.60547c-.24023,2.59961-.52051,8.63818-.52051,13.23779,0,2.23926.68067,2.99951,1.83985,2.95947l-.2793,3.4795a6.10951,6.10951,0,0,1-1.71973.23974c-2,0-3.43945-1.15967-3.7998-3.79931h-.12012a7.16853,7.16853,0,0,1-6.43847,3.79931c-4.55957,0-8.03907-3.83935-8.03907-9.79834,0-6.439,4.31934-10.5581,8.79883-10.5581a5.91024,5.91024,0,0,1,5.59863,3.39941h.16016c.12012-1.19971.28027-2.11963.40039-2.95947Zm-9.71875,15.99707c2.08008,0,3.79981-1.99951,4.31934-4.19922a13.582,13.582,0,0,0,.16015-2.27978,9.27564,9.27564,0,0,0-.12011-1.8794c-.40039-2.35986-2-4.2793-4.11914-4.2793-2.75977,0-4.59961,2.8794-4.59961,6.59864C262.33887,269.84326,264.01855,272.60254,266.69824,272.60254Z"/><path class="cls-3" d="M373.81836,274.44238v2.4795a37.5667,37.5667,0,0,0,.48047,7.07861h-4.55957c-.51953-1.19971-.67969-4.0791-.67969-6.83887V259.20508c0-5.6792,1.44043-8.15869,3.0791-9.71875a8.64584,8.64584,0,0,1,6.15918-2.23926c4.55957,0,7.51856,3.0791,7.51856,7.11865a6.933,6.933,0,0,1-3.35938,6.11914v.19971a7.34006,7.34006,0,0,1,5.59961,7.479,8.0938,8.0938,0,0,1-8.39844,8.3584,7.96208,7.96208,0,0,1-5.75976-2.07959Zm0-4.19922a5.71879,5.71879,0,0,0,4.67969,2.55957,4.493,4.493,0,0,0,4.59961-4.75927c0-3.2793-2.28028-4.999-5.19922-5.15918h-.96v-3.11963a3.94486,3.94486,0,0,0,.67968-.08008,4.23609,4.23609,0,0,0,3.71973-4.519c0-2.43946-1.36035-4.0791-3.40039-4.0791-2.59961,0-4.11914,2.19921-4.11914,7.31836Z"/><path class="cls-3" d="M485.53906,284.00049a46.26676,46.26676,0,0,0-.63965-11.23779,54.50808,54.50808,0,0,0-6.79882-16.15723h5.47851c1.59961,2.39941,4.11914,8.43848,5.23926,14.11767h.16016c1.51953-3.07959,3.63964-8.15869,3.63964-12.5581,0-.75977,0-1.15967-.04-1.55957h4.67871a7.76412,7.76412,0,0,1,.08007,1.43945c0,4.95947-2.959,11.39844-6.8789,17.15723a1.38976,1.38976,0,0,0-.24024.96c.08008,1.95947.08008,5.15918.12012,7.83838Z"/><path class="cls-6" d="M570.9209,275.24219a1.02547,1.02547,0,0,1-.75195-.24024,2.11952,2.11952,0,0,1-.4004-.55957l-5.98437-14.84814a.77738.77738,0,0,1-.06348-.28809.71028.71028,0,0,1,.7041-.7041h2.5918a.74849.74849,0,0,1,.57617.208,1.1505,1.1505,0,0,1,.25586.3999l4.25586,11.23242L576.36035,259.21a1.1505,1.1505,0,0,1,.25586-.3999.74993.74993,0,0,1,.57617-.208h2.624a.64376.64376,0,0,1,.46386.208.67828.67828,0,0,1,.208.49609,1.54217,1.54217,0,0,1-.03125.28809l-6.0166,14.84814a1.53461,1.53461,0,0,1-.38379.55957,1.08606,1.08606,0,0,1-.76758.24024Z"/><path class="cls-6" d="M597.47949,275.24219a.72654.72654,0,0,1-.55957-.22412.76957.76957,0,0,1-.208-.54395V257.898l-4.86425,3.74414a.78314.78314,0,0,1-.57618.144.82226.82226,0,0,1-.51171-.33593l-1.34375-1.728a.844.844,0,0,1-.14454-.60791.72775.72775,0,0,1,.33692-.51221l7.168-5.53564a.8151.8151,0,0,1,.38379-.19239,2.57263,2.57263,0,0,1,.416-.03173h2.81543a.766.766,0,0,1,.76856.76806v20.86377a.766.766,0,0,1-.76856.76807Z"/><path class="cls-6" d="M606.12012,275.24219a.766.766,0,0,1-.76856-.76807v-3.168a.78159.78159,0,0,1,.22461-.57617.73946.73946,0,0,1,.54395-.22363h3.20019a.7426.7426,0,0,1,.54395.22363.78469.78469,0,0,1,.22363.57617v3.168a.76438.76438,0,0,1-.76758.76807Z"/><path class="cls-6" d="M622.15234,275.562a9.97974,9.97974,0,0,1-3.87207-.67187,6.95888,6.95888,0,0,1-2.624-1.856,7.907,7.907,0,0,1-1.53613-2.73584,12.7421,12.7421,0,0,1-.6084-3.312q-.03223-.86426-.04785-1.9043-.01611-1.0393,0-2.0957.01611-1.05615.04785-1.95215a11.18037,11.18037,0,0,1,.6084-3.312,7.864,7.864,0,0,1,1.584-2.7041,7.2979,7.2979,0,0,1,2.63965-1.82373,9.79573,9.79573,0,0,1,3.80859-.67237,9.89471,9.89471,0,0,1,3.83985.67237,7.298,7.298,0,0,1,2.63965,1.82373,7.679,7.679,0,0,1,1.56836,2.7041,11.56147,11.56147,0,0,1,.59179,3.312q.06445.89649.06446,1.95215v2.0957q0,1.04077-.06446,1.9043a11.931,11.931,0,0,1-.57617,3.312,7.93871,7.93871,0,0,1-1.53613,2.73584,6.94149,6.94149,0,0,1-2.63965,1.856A10.10342,10.10342,0,0,1,622.15234,275.562Zm0-3.67969A3.50563,3.50563,0,0,0,625.208,270.522a6.383,6.383,0,0,0,1.00781-3.6958q.06445-.928.06445-1.87207v-1.90381q0-.96019-.06445-1.82422A6.4245,6.4245,0,0,0,625.208,257.562a3.47538,3.47538,0,0,0-3.05567-1.3916,3.43935,3.43935,0,0,0-3.02441,1.3916,6.59009,6.59009,0,0,0-1.04,3.66406q0,.86427-.01562,1.82422-.01758.96021,0,1.90381.01464.9441.01562,1.87207a6.46492,6.46492,0,0,0,1.05566,3.6958A3.47792,3.47792,0,0,0,622.15234,271.88232Z"/><path class="cls-3" d="M682.377,275.24219a1.0255,1.0255,0,0,1-.75195-.24024,2.14171,2.14171,0,0,1-.40039-.55957l-5.98438-14.84814a.77754.77754,0,0,1-.06347-.28809.71028.71028,0,0,1,.7041-.7041h2.5918a.74849.74849,0,0,1,.57617.208,1.1505,1.1505,0,0,1,.25586.3999l4.25586,11.23242L687.81641,259.21a1.16488,1.16488,0,0,1,.25586-.3999.74992.74992,0,0,1,.57617-.208h2.625a.64332.64332,0,0,1,.46289.208.67926.67926,0,0,1,.209.49609,1.55067,1.55067,0,0,1-.03222.28809l-6.01661,14.84814a1.54411,1.54411,0,0,1-.38281.55957,1.09031,1.09031,0,0,1-.76855.24024Z"/><path class="cls-3" d="M708.93555,275.24219a.723.723,0,0,1-.5586-.22412.76615.76615,0,0,1-.209-.54395V257.898l-4.86328,3.74414a.78518.78518,0,0,1-.57617.144.81725.81725,0,0,1-.51172-.33593l-1.34473-1.728a.83862.83862,0,0,1-.14355-.60791.72345.72345,0,0,1,.33593-.51221l7.168-5.53564a.8151.8151,0,0,1,.38379-.19239,2.57267,2.57267,0,0,1,.416-.03173h2.81543a.76439.76439,0,0,1,.76855.76806v20.86377a.76439.76439,0,0,1-.76855.76807Z"/><path class="cls-3" d="M717.57617,275.24219a.7644.7644,0,0,1-.76758-.76807v-3.168a.78084.78084,0,0,1,.22364-.57617.74256.74256,0,0,1,.54394-.22363h3.2002a.74256.74256,0,0,1,.54394.22363.7847.7847,0,0,1,.22364.57617v3.168a.7644.7644,0,0,1-.76758.76807Z"/><path class="cls-3" d="M733.416,275.562a12.28006,12.28006,0,0,1-3.87207-.54394,8.40131,8.40131,0,0,1-2.70411-1.42383,6.25309,6.25309,0,0,1-1.61621-1.91992,4.74425,4.74425,0,0,1-.57519-2.064.57784.57784,0,0,1,.207-.46435.74735.74735,0,0,1,.49609-.17579h2.88086a1.07893,1.07893,0,0,1,.543.12793,1.01366,1.01366,0,0,1,.38477.51221,2.82654,2.82654,0,0,0,.94336,1.376,3.9275,3.9275,0,0,0,1.5205.71972,7.7414,7.7414,0,0,0,1.82325.208,4.74069,4.74069,0,0,0,3.05664-.91211,3.15057,3.15057,0,0,0,1.13574-2.60791,2.79624,2.79624,0,0,0-1.05567-2.44775,5.01127,5.01127,0,0,0-2.94433-.75195h-3.2959a.814.814,0,0,1-.57617-.208.72654.72654,0,0,1-.22363-.56006V263.082a1.07177,1.07177,0,0,1,.14355-.56006,2.043,2.043,0,0,1,.30469-.3999l5.72754-5.6001h-9.15137a.72694.72694,0,0,1-.56055-.22363.76957.76957,0,0,1-.208-.54395v-2.1123a.81274.81274,0,0,1,.208-.57568.72723.72723,0,0,1,.56055-.22412H740.2959a.76688.76688,0,0,1,.7998.7998V255.562a1.016,1.016,0,0,1-.12793.51221,1.79253,1.79253,0,0,1-.28808.38379l-5.53516,5.69629.38281.03174A9.95987,9.95987,0,0,1,739,263.06641a5.45314,5.45314,0,0,1,2.36719,2.0957,6.47341,6.47341,0,0,1,.84863,3.45605,6.14066,6.14066,0,0,1-1.13574,3.728A7.21967,7.21967,0,0,1,737.96,274.73,11.66325,11.66325,0,0,1,733.416,275.562Z"/><path class="cls-3" d="M792.35254,275.24219a1.027,1.027,0,0,1-.75195-.24024,2.11643,2.11643,0,0,1-.39942-.55957l-5.98437-14.84814a.78043.78043,0,0,1-.06446-.28809.71028.71028,0,0,1,.70411-.7041h2.59277a.74618.74618,0,0,1,.57519.208,1.16926,1.16926,0,0,1,.25684.3999l4.25586,11.23242L797.793,259.21a1.13633,1.13633,0,0,1,.25586-.3999.74849.74849,0,0,1,.57617-.208h2.624a.64539.64539,0,0,1,.46387.208.67831.67831,0,0,1,.208.49609,1.47085,1.47085,0,0,1-.03223.28809l-6.01562,14.84814a1.55891,1.55891,0,0,1-.38379.55957,1.09036,1.09036,0,0,1-.76856.24024Z"/><path class="cls-3" d="M818.91211,275.24219a.72367.72367,0,0,1-.55957-.22412.76533.76533,0,0,1-.208-.54395V257.898l-4.86426,3.74414a.78414.78414,0,0,1-.57617.144.8173.8173,0,0,1-.51172-.33593l-1.34472-1.728a.83868.83868,0,0,1-.14356-.60791.72645.72645,0,0,1,.33594-.51221l7.168-5.53564a.8151.8151,0,0,1,.38379-.19239,2.57263,2.57263,0,0,1,.416-.03173h2.81641a.7644.7644,0,0,1,.76758.76806v20.86377a.7644.7644,0,0,1-.76758.76807Z"/><path class="cls-3" d="M827.55176,275.24219a.76438.76438,0,0,1-.76758-.76807v-3.168a.78087.78087,0,0,1,.22363-.57617.7426.7426,0,0,1,.54395-.22363H830.752a.7426.7426,0,0,1,.54395.22363.78087.78087,0,0,1,.22363.57617v3.168a.76438.76438,0,0,1-.76758.76807Z"/><path class="cls-3" d="M843.3916,275.562a10.06611,10.06611,0,0,1-4.73535-1.04,7.69292,7.69292,0,0,1-3.07227-2.81592,7.47115,7.47115,0,0,1-1.08789-3.98388,7.18032,7.18032,0,0,1,.25586-1.91992,9.64322,9.64322,0,0,1,.67188-1.76026q.416-.8313.8164-1.48779a8.72364,8.72364,0,0,1,.71973-1.04l5.85547-8.03174a4.03117,4.03117,0,0,1,.38477-.40039.987.987,0,0,1,.7041-.23974h2.97558a.62433.62433,0,0,1,.4795.208.70219.70219,0,0,1,.19238.4961.5957.5957,0,0,1-.04785.23974.54832.54832,0,0,1-.11231.17627l-4.47949,6.208a2.87236,2.87236,0,0,1,.67187-.12842q.38379-.03148.70411-.03174a8.37161,8.37161,0,0,1,3.04.624,8.21534,8.21534,0,0,1,2.52734,1.61572,7.54354,7.54354,0,0,1,1.71191,2.40039,7.197,7.197,0,0,1,.624,3.00781,7.63486,7.63486,0,0,1-1.05567,3.91993,7.75729,7.75729,0,0,1-3.02344,2.896A9.6175,9.6175,0,0,1,843.3916,275.562Zm-.03222-3.67969a4.76231,4.76231,0,0,0,2.1289-.48,3.95589,3.95589,0,0,0,1.584-1.4082,4.1247,4.1247,0,0,0,.60742-2.30371,4.06667,4.06667,0,0,0-.60742-2.27246,3.95833,3.95833,0,0,0-1.584-1.40772,4.95909,4.95909,0,0,0-4.25683,0,3.95184,3.95184,0,0,0-1.584,1.40772,4.05875,4.05875,0,0,0-.60742,2.27246,4.11674,4.11674,0,0,0,.60742,2.30371,3.94941,3.94941,0,0,0,1.584,1.4082A4.76112,4.76112,0,0,0,843.35938,271.88232Z"/><path class="cls-3" d="M904.07324,275.24219a1.0255,1.0255,0,0,1-.752-.24024,2.11926,2.11926,0,0,1-.40039-.55957l-5.98438-14.84814a.77734.77734,0,0,1-.06347-.28809.71026.71026,0,0,1,.7041-.7041h2.5918a.7485.7485,0,0,1,.57617.208,1.1505,1.1505,0,0,1,.25586.3999l4.25586,11.23242L909.5127,259.21a1.15045,1.15045,0,0,1,.25585-.3999.75.75,0,0,1,.57618-.208h2.624a.64377.64377,0,0,1,.46387.208.67831.67831,0,0,1,.208.49609,1.543,1.543,0,0,1-.03125.28809l-6.01661,14.84814a1.53461,1.53461,0,0,1-.38379.55957,1.086,1.086,0,0,1-.76757.24024Z"/><path class="cls-3" d="M930.63184,275.24219a.72653.72653,0,0,1-.55957-.22412.76953.76953,0,0,1-.208-.54395V257.898L925,261.64209a.78312.78312,0,0,1-.57617.144.82225.82225,0,0,1-.51172-.33593l-1.34375-1.728a.844.844,0,0,1-.14453-.60791.7277.7277,0,0,1,.33691-.51221l7.168-5.53564a.8151.8151,0,0,1,.38379-.19239,2.57267,2.57267,0,0,1,.416-.03173H933.544a.766.766,0,0,1,.76855.76806v20.86377a.766.766,0,0,1-.76855.76807Z"/><path class="cls-3" d="M939.27246,275.24219a.766.766,0,0,1-.76855-.76807v-3.168a.78156.78156,0,0,1,.22461-.57617.73942.73942,0,0,1,.54394-.22363h3.2002a.74256.74256,0,0,1,.54394.22363.78469.78469,0,0,1,.22363.57617v3.168a.76438.76438,0,0,1-.76757.76807Z"/><path class="cls-3" d="M949.67188,275.24219a.62268.62268,0,0,1-.4795-.208A.703.703,0,0,1,949,274.53809a.57349.57349,0,0,1,.04785-.25586c.03223-.064.0586-.11719.08008-.16016l4.7041-6.49609a4.32935,4.32935,0,0,1-1.3125.12841,8.04014,8.04014,0,0,1-3.02344-.624,7.90539,7.90539,0,0,1-2.43261-1.6001,7.44,7.44,0,0,1-1.63184-2.33593,7.03309,7.03309,0,0,1-.5918-2.896,7.70736,7.70736,0,0,1,.54395-2.832,7.53081,7.53081,0,0,1,4.30371-4.28809,10.04934,10.04934,0,0,1,3.792-.65625,10.78608,10.78608,0,0,1,3.77637.6084,7.75772,7.75772,0,0,1,2.73633,1.67969,7.16311,7.16311,0,0,1,1.66406,2.44824,7.65527,7.65527,0,0,1,.55957,2.91211,7.16553,7.16553,0,0,1-.44824,2.55957,10.57976,10.57976,0,0,1-1.10352,2.16016q-.65625.97632-1.2959,1.90381l-5.63183,7.8081a5.13931,5.13931,0,0,1-.36817.3999.97881.97881,0,0,1-.7207.24024Zm3.83984-10.87989a4.43463,4.43463,0,0,0,2.09668-.49609,3.82364,3.82364,0,0,0,1.5039-1.4082,4.0471,4.0471,0,0,0,.55958-2.15967,4.1145,4.1145,0,0,0-.55958-2.19238,3.79647,3.79647,0,0,0-1.5205-1.40772,4.64163,4.64163,0,0,0-4.17578,0,3.81639,3.81639,0,0,0-1.50391,1.40772,4.10606,4.10606,0,0,0-.56055,2.19238,4.0388,4.0388,0,0,0,.56055,2.15967,3.81064,3.81064,0,0,0,1.50391,1.4082A4.43066,4.43066,0,0,0,953.51172,264.3623Z"/><path class="cls-6" d="M1009.9248,275.24219a1.0255,1.0255,0,0,1-.75195-.24024,2.11972,2.11972,0,0,1-.40039-.55957l-5.98437-14.84814a.77738.77738,0,0,1-.06348-.28809.71028.71028,0,0,1,.7041-.7041h2.5918a.74849.74849,0,0,1,.57617.208,1.1505,1.1505,0,0,1,.25586.3999l4.25586,11.23242,4.25586-11.23242a1.1505,1.1505,0,0,1,.25586-.3999.74992.74992,0,0,1,.57617-.208h2.624a.64377.64377,0,0,1,.46387.208.67831.67831,0,0,1,.208.49609,1.54217,1.54217,0,0,1-.03125.28809l-6.0166,14.84814a1.53461,1.53461,0,0,1-.38379.55957,1.08606,1.08606,0,0,1-.76758.24024Z"/><path class="cls-6" d="M1029.82813,275.24219a.766.766,0,0,1-.76856-.76807v-1.63183a2.07563,2.07563,0,0,1,.14453-.688,1.98392,1.98392,0,0,1,.65625-.81592l5.05567-5.02442q2.1123-1.66332,3.4082-2.83154a10.14028,10.14028,0,0,0,1.88769-2.144,3.71507,3.71507,0,0,0,.5918-1.936,3.41913,3.41913,0,0,0-.78418-2.33593,3.1305,3.1305,0,0,0-2.47949-.896,3.58956,3.58956,0,0,0-1.8877.46387,3.3185,3.3185,0,0,0-1.20019,1.23193,5.247,5.247,0,0,0-.5918,1.6958.74071.74071,0,0,1-.35254.57617,1.17486,1.17486,0,0,1-.57617.16016H1030.084a.65027.65027,0,0,1-.48046-.19238.61265.61265,0,0,1-.19141-.44776,7.25612,7.25612,0,0,1,.57617-2.67187,6.88288,6.88288,0,0,1,1.584-2.3042,7.79855,7.79855,0,0,1,2.54394-1.61572,8.97818,8.97818,0,0,1,3.3916-.6084,9.59678,9.59678,0,0,1,4.40039.896,6.19166,6.19166,0,0,1,2.624,2.43213,6.83457,6.83457,0,0,1,.87988,3.45606,6.599,6.599,0,0,1-.57617,2.76806,9.16853,9.16853,0,0,1-1.66406,2.43213,23.57969,23.57969,0,0,1-2.624,2.38379l-4.54394,4.60791h9.12011a.71687.71687,0,0,1,.76758.76807v2.272a.76953.76953,0,0,1-.208.54395.72653.72653,0,0,1-.55957.22412Z"/><path class="cls-6" d="M1050.11523,275.24219a.76438.76438,0,0,1-.76757-.76807v-3.168a.78087.78087,0,0,1,.22363-.57617.74256.74256,0,0,1,.54394-.22363h3.2002a.7426.7426,0,0,1,.54395.22363.78087.78087,0,0,1,.22363.57617v3.168a.76438.76438,0,0,1-.76758.76807Z"/><path class="cls-6" d="M1066.14746,275.562a9.98312,9.98312,0,0,1-3.87207-.67187,6.96644,6.96644,0,0,1-2.624-1.856,7.93857,7.93857,0,0,1-1.53614-2.73584,12.74223,12.74223,0,0,1-.60742-3.312q-.03222-.86426-.04785-1.9043-.01758-1.0393,0-2.0957.01466-1.05615.04785-1.95215a11.17992,11.17992,0,0,1,.60742-3.312,7.87968,7.87968,0,0,1,1.584-2.7041,7.29348,7.29348,0,0,1,2.64062-1.82373,11.20867,11.20867,0,0,1,7.64746,0,7.30185,7.30185,0,0,1,2.64063,1.82373,7.6769,7.6769,0,0,1,1.56738,2.7041,11.56185,11.56185,0,0,1,.59278,3.312q.063.89649.06347,1.95215v2.0957q0,1.04077-.06347,1.9043a11.96708,11.96708,0,0,1-.57618,3.312,7.93839,7.93839,0,0,1-1.53613,2.73584,6.95274,6.95274,0,0,1-2.64062,1.856A10.10342,10.10342,0,0,1,1066.14746,275.562Zm0-3.67969a3.50332,3.50332,0,0,0,3.05567-1.36035,6.3757,6.3757,0,0,0,1.00878-3.6958q.063-.928.06348-1.87207v-1.90381q0-.96019-.06348-1.82422a6.41712,6.41712,0,0,0-1.00878-3.66406,4.01526,4.01526,0,0,0-6.07911,0,6.58234,6.58234,0,0,0-1.04,3.66406q0,.86427-.0166,1.82422-.01611.96021,0,1.90381.01613.9441.0166,1.87207a6.45754,6.45754,0,0,0,1.05567,3.6958A3.47723,3.47723,0,0,0,1066.14746,271.88232Z"/></g><path class="cls-3" d="M1633.67188,275.1792a.86024.86024,0,0,1-.86426-.86426V250.87939a.8787.8787,0,0,1,.25195-.64843.83732.83732,0,0,1,.61231-.252h10.44042a11.01975,11.01975,0,0,1,4.752.88184,6.01406,6.01406,0,0,1,2.71777,2.43066,7.14574,7.14574,0,0,1,.88184,3.59961,5.53745,5.53745,0,0,1-.48633,2.39453,5.37514,5.37514,0,0,1-1.1875,1.67383,6.61585,6.61585,0,0,1-1.38574,1.00782,6.359,6.359,0,0,1,2.4834,2.16015,6.02491,6.02491,0,0,1,1.08007,3.59961,7.59882,7.59882,0,0,1-.97168,3.85254,6.6455,6.6455,0,0,1-2.87988,2.64551,10.47279,10.47279,0,0,1-4.71582.9541Zm4.13964-14.86816h5.65235a3.9834,3.9834,0,0,0,2.8623-.918,3.17239,3.17239,0,0,0,.9541-2.39356,3.04236,3.04236,0,0,0-.9541-2.376,4.14542,4.14542,0,0,0-2.8623-.86426h-5.65235Zm0,11.05175h6.0127a3.88143,3.88143,0,0,0,2.95215-1.06152,3.83449,3.83449,0,0,0-.01856-5.20215,3.93158,3.93158,0,0,0-2.93359-1.04394h-6.0127Z"/><path class="cls-3" d="M1665.56738,275.1792a.86024.86024,0,0,1-.86425-.86426V250.87939a.8787.8787,0,0,1,.25195-.64843.83732.83732,0,0,1,.6123-.252h15.83985a.86312.86312,0,0,1,.90039.90039v2.376a.83732.83732,0,0,1-.252.61231.87873.87873,0,0,1-.64843.25195h-11.84375v6.37109h11.05175a.91958.91958,0,0,1,.64844.23438.82226.82226,0,0,1,.252.62988v2.23242a.82083.82083,0,0,1-.252.62989.91526.91526,0,0,1-.64844.23437h-11.05175v6.58789h12.13183a.863.863,0,0,1,.90039.89941v2.376a.83735.83735,0,0,1-.252.61231.87876.87876,0,0,1-.64844.25195Z"/><path class="cls-3" d="M1695.15918,275.1792a.86026.86026,0,0,1-.86426-.86426V250.87939a.87871.87871,0,0,1,.252-.64843.8373.8373,0,0,1,.6123-.252h9.64844a12.513,12.513,0,0,1,4.89551.88184,6.99421,6.99421,0,0,1,3.24023,2.66406,8.03765,8.03765,0,0,1,1.15234,4.44629,7.92562,7.92562,0,0,1-1.15234,4.44629,6.94857,6.94857,0,0,1-3.24023,2.60938,12.73805,12.73805,0,0,1-4.89551.86425h-5.36426v8.42383a.86629.86629,0,0,1-.23438.61231.81884.81884,0,0,1-.62988.25195Zm4.21191-13.28418h5.25586a4.67229,4.67229,0,0,0,3.2041-.99023,3.71477,3.71477,0,0,0,1.11622-2.9336,4.03625,4.03625,0,0,0-1.04395-2.89844,4.339,4.339,0,0,0-3.27637-1.09765h-5.25586Z"/><path class="cls-3" d="M1734.93848,275.53955a12.50795,12.50795,0,0,1-5.66993-1.16992,8.18548,8.18548,0,0,1-3.54687-3.34863,11.68277,11.68277,0,0,1-1.36719-5.23829q-.03661-1.47508-.03613-3.168,0-1.69044.03613-3.23926a11.58263,11.58263,0,0,1,1.38574-5.2207,8.27008,8.27008,0,0,1,3.56348-3.36524,12.41136,12.41136,0,0,1,5.63477-1.16992,13.8597,13.8597,0,0,1,4.3916.64746,10.17573,10.17573,0,0,1,3.3125,1.78223,8.17315,8.17315,0,0,1,2.124,2.6455,7.58879,7.58879,0,0,1,.792,3.27637.60863.60863,0,0,1-.19824.54.79674.79674,0,0,1-.55859.21582h-3.41992a1.01,1.01,0,0,1-.64746-.19824,1.13885,1.13885,0,0,1-.36036-.666,4.94877,4.94877,0,0,0-1.97949-3.23925,6.55267,6.55267,0,0,0-3.49219-.86426,5.40742,5.40742,0,0,0-3.85254,1.34961q-1.43994,1.35058-1.54785,4.44629-.10839,2.95165,0,6.04785.1084,3.09668,1.54785,4.44629a5.40746,5.40746,0,0,0,3.85254,1.34961,6.53318,6.53318,0,0,0,3.50977-.88184,4.84681,4.84681,0,0,0,1.96191-3.22168.91173.91173,0,0,1,1.00782-.86426h3.41992a.79678.79678,0,0,1,.55859.21582.60958.60958,0,0,1,.19824.54,7.582,7.582,0,0,1-.792,3.27637,8.17318,8.17318,0,0,1-2.124,2.64551,10.17572,10.17572,0,0,1-3.3125,1.78222A13.85892,13.85892,0,0,1,1734.93848,275.53955Z"/><path class="cls-3" d="M1757.90625,275.1792a.83356.83356,0,0,1-.6123-.25195.87719.87719,0,0,1-.252-.64844V250.87939a.86312.86312,0,0,1,.90039-.90039h3.24024a.82223.82223,0,0,1,.62988.252.919.919,0,0,1,.2334.64843v16.52344l11.84473-16.84765a2.3972,2.3972,0,0,1,.3955-.37793,1.01857,1.01857,0,0,1,.64844-.19825h2.98828a.8367.8367,0,0,1,.61133.252.8787.8787,0,0,1,.25195.64843v23.43555a.86024.86024,0,0,1-.86328.86426h-3.24023a.87722.87722,0,0,1-.64844-.25195.83354.83354,0,0,1-.252-.61231V258.11475L1761.97461,274.603a2.50807,2.50807,0,0,1-.36035.36035,1.01713,1.01713,0,0,1-.6836.21582Z"/><path class="cls-3" d="M1792.46582,275.1792a.83356.83356,0,0,1-.6123-.25195.87719.87719,0,0,1-.252-.64844V250.87939a.86312.86312,0,0,1,.90039-.90039h3.24024a.82223.82223,0,0,1,.62988.252.919.919,0,0,1,.2334.64843v16.52344l11.84473-16.84765a2.3972,2.3972,0,0,1,.3955-.37793,1.01857,1.01857,0,0,1,.64844-.19825h2.98828a.8367.8367,0,0,1,.61133.252.8787.8787,0,0,1,.252.64843v23.43555a.86024.86024,0,0,1-.86328.86426h-3.24023a.87722.87722,0,0,1-.64844-.25195.83354.83354,0,0,1-.252-.61231V258.11475L1796.53418,274.603a2.50807,2.50807,0,0,1-.36035.36035,1.01713,1.01713,0,0,1-.6836.21582Z"/></g></svg>