<svg xmlns="http://www.w3.org/2000/svg" xmlns:xlink="http://www.w3.org/1999/xlink" viewBox="0 0 1920 1080"><defs><style>.cls-1{fill:none;}.cls-2{fill:#262626;}.cls-3{fill:#d3d3d3;}.cls-4{fill:#4cb16e;}.cls-5{fill:#b3b3b3;}.cls-6{fill:#99c453;}.cls-7{clip-path:url(#clip-path);}</style><clipPath id="clip-path"><rect class="cls-1" x="158" y="305" width="1435" height="615"/></clipPath></defs><g id="_2-3" data-name="2-3"><rect class="cls-2" width="1920" height="1080"/><path class="cls-3" d="M75.81836,500.166a.86025.86025,0,0,1-.86328-.86426V475.86621a.87873.87873,0,0,1,.252-.64844.83517.83517,0,0,1,.61133-.25195H92.30664a.82444.82444,0,0,1,.63086.25195.91529.91529,0,0,1,.23438.64844v2.51953a.86629.86629,0,0,1-.23438.61231.821.821,0,0,1-.63086.252H79.959v5.75977h6.084a9.35126,9.35126,0,0,1,6.37109,2.0166,6.89493,6.89493,0,0,1,2.30469,5.47168,7.576,7.576,0,0,1-.55859,2.8623,7.32868,7.32868,0,0,1-1.63672,2.46582,7.72159,7.72159,0,0,1-2.70117,1.71,10.396,10.396,0,0,1-3.7793.62989Zm4.14062-3.81641h5.58008a4.19092,4.19092,0,0,0,2.19532-.54,3.591,3.591,0,0,0,1.36914-1.43945,4.16741,4.16741,0,0,0,.46679-1.94434,3.63245,3.63245,0,0,0-1.00781-2.62793,4.02239,4.02239,0,0,0-3.02344-1.04394H79.959Z"/><path class="cls-3" d="M72.59766,550.166a.74672.74672,0,0,1-.52149-.21582.705.705,0,0,1-.23437-.54.87121.87121,0,0,1,.07226-.32422l8.67578-23.21973a1.33957,1.33957,0,0,1,.41407-.62988,1.23041,1.23041,0,0,1,.8457-.27051h3.92383a1.16681,1.16681,0,0,1,.82812.27051,1.73851,1.73851,0,0,1,.43164.62988L95.709,549.08594a1.72778,1.72778,0,0,1,.03711.32422.73248.73248,0,0,1-.21679.54.694.694,0,0,1-.50391.21582H91.89258a.99646.99646,0,0,1-.73633-.23438,1.1822,1.1822,0,0,1-.30664-.44922l-1.69141-4.39258H78.46484l-1.6914,4.39258a1.20523,1.20523,0,0,1-.30664.44922,1.0046,1.0046,0,0,1-.73828.23438Zm7.12695-9.21582h8.17187l-4.10351-11.124Z"/><path class="cls-3" d="M90.07422,600.166a.86025.86025,0,0,1-.86328-.86426V579.46582h-7.8125V584.002a51.86073,51.86073,0,0,1-.44922,7.37989,15.37313,15.37313,0,0,1-1.459,4.95019,6.5835,6.5835,0,0,1-2.73437,2.80762,9.722,9.722,0,0,1-4.32031.99023.74962.74962,0,0,1-.63086-.2334.86672.86672,0,0,1-.26953-.63085v-2.69922q0-.75586.82812-.86426a3.19874,3.19874,0,0,0,1.85352-1.00781,6.5309,6.5309,0,0,0,1.29687-2.33985,17.80907,17.80907,0,0,0,.77344-3.76269,47.66848,47.66848,0,0,0,.252-5.23731v-7.52441a.86025.86025,0,0,1,.86328-.86426H93.31445a.86309.86309,0,0,1,.90039.90039v23.43555a.83354.83354,0,0,1-.25195.6123.87872.87872,0,0,1-.64844.252Z"/><path class="cls-3" d="M72.59766,650.166a.74672.74672,0,0,1-.52149-.21582.705.705,0,0,1-.23437-.54.87121.87121,0,0,1,.07226-.32422l8.67578-23.21973a1.33957,1.33957,0,0,1,.41407-.62988,1.23041,1.23041,0,0,1,.8457-.27051h3.92383a1.16681,1.16681,0,0,1,.82812.27051,1.73851,1.73851,0,0,1,.43164.62988L95.709,649.08594a1.72778,1.72778,0,0,1,.03711.32422.73248.73248,0,0,1-.21679.54.694.694,0,0,1-.50391.21582H91.89258a.99646.99646,0,0,1-.73633-.23438,1.1822,1.1822,0,0,1-.30664-.44922l-1.69141-4.39258H78.46484l-1.6914,4.39258a1.20523,1.20523,0,0,1-.30664.44922,1.0046,1.0046,0,0,1-.73828.23438Zm7.12695-9.21582h8.17187l-4.10351-11.124Z"/><path class="cls-3" d="M74.36133,700.166a.86437.86437,0,0,1-.61328-.23438.81593.81593,0,0,1-.252-.62988V675.86621a.87873.87873,0,0,1,.252-.64844.83954.83954,0,0,1,.61328-.25195h3.27539a.82444.82444,0,0,1,.63086.25195.92273.92273,0,0,1,.23242.64844v9.28809H89.12109v-9.28809a.87873.87873,0,0,1,.252-.64844.83515.83515,0,0,1,.61133-.25195h3.24023a.86309.86309,0,0,1,.90039.90039v23.43555a.83354.83354,0,0,1-.25195.6123.87873.87873,0,0,1-.64844.252H89.98438a.86027.86027,0,0,1-.86329-.86426V689.6543H78.5v9.64746a.87322.87322,0,0,1-.23242.6123.821.821,0,0,1-.63086.252Z"/><path class="cls-3" d="M84.02734,750.52637a12.51091,12.51091,0,0,1-5.66992-1.16992,8.18539,8.18539,0,0,1-3.54687-3.34864,11.69515,11.69515,0,0,1-1.36719-5.23828q-.03516-1.4751-.03516-3.168,0-1.69042.03516-3.23926a11.58269,11.58269,0,0,1,1.38672-5.2207,8.273,8.273,0,0,1,3.5625-3.36523,12.41122,12.41122,0,0,1,5.63476-1.16992,13.86588,13.86588,0,0,1,4.39258.64746,10.19579,10.19579,0,0,1,3.3125,1.78222,8.17008,8.17008,0,0,1,2.123,2.64551,7.60358,7.60358,0,0,1,.793,3.27637.60676.60676,0,0,1-.19922.54.79678.79678,0,0,1-.55859.21582H90.4707a1.00529,1.00529,0,0,1-.64648-.19824,1.13946,1.13946,0,0,1-.36133-.666,4.94437,4.94437,0,0,0-1.97851-3.23926,6.55753,6.55753,0,0,0-3.49219-.86426,5.4099,5.4099,0,0,0-3.85352,1.34961A6.19293,6.19293,0,0,0,78.5918,734.542q-.10841,2.95167,0,6.04785.10839,3.09669,1.54687,4.44629a5.40986,5.40986,0,0,0,3.85352,1.34961,6.538,6.538,0,0,0,3.50976-.88183,4.846,4.846,0,0,0,1.96094-3.22168.913.913,0,0,1,1.00781-.86426h3.41993a.79674.79674,0,0,1,.55859.21582.6077.6077,0,0,1,.19922.54,7.59677,7.59677,0,0,1-.793,3.27637,8.17,8.17,0,0,1-2.123,2.6455,10.19581,10.19581,0,0,1-3.3125,1.78223A13.8651,13.8651,0,0,1,84.02734,750.52637Z"/><path class="cls-3" d="M1633.19336,624.17969a.87719.87719,0,0,1-.64844-.252.8357.8357,0,0,1-.252-.61328V599.87891a.86309.86309,0,0,1,.90039-.90039h2.84375a.97983.97983,0,0,1,.75586.27148,2.07677,2.07677,0,0,1,.32422.41406l6.94824,12.959,7.01953-12.959a2.07677,2.07677,0,0,1,.32422-.41406.97983.97983,0,0,1,.75586-.27148h2.80859a.863.863,0,0,1,.89942.90039v23.43554a.83571.83571,0,0,1-.252.61328.87645.87645,0,0,1-.64746.252h-3.02441a.81737.81737,0,0,1-.62988-.252.86861.86861,0,0,1-.23438-.61328V607.72656l-5.04,9.61328a1.88675,1.88675,0,0,1-.46777.55664,1.16154,1.16154,0,0,1-.75586.23438h-1.47559a1.14513,1.14513,0,0,1-.77441-.23438,2.03982,2.03982,0,0,1-.4502-.55664l-5.04-9.61328v15.58789a.86026.86026,0,0,1-.86328.86524Z"/><path class="cls-3" d="M1669.55273,624.17969a.86027.86027,0,0,1-.86425-.86524V599.87891a.87871.87871,0,0,1,.252-.64844.84116.84116,0,0,1,.6123-.25195h15.83985a.86309.86309,0,0,1,.90039.90039v2.37695a.83517.83517,0,0,1-.252.61133.87873.87873,0,0,1-.64844.25195h-11.84375v6.37109h11.05176a.924.924,0,0,1,.64843.23438.82441.82441,0,0,1,.252.63086v2.23242a.82007.82007,0,0,1-.252.62891.91526.91526,0,0,1-.64843.23437h-11.05176v6.58789h12.13183a.8631.8631,0,0,1,.90039.90039v2.375a.83952.83952,0,0,1-.252.61328.87872.87872,0,0,1-.64844.252Z"/><path class="cls-3" d="M1708.001,624.53906a12.50795,12.50795,0,0,1-5.66993-1.16992,8.18332,8.18332,0,0,1-3.54687-3.34766,11.68269,11.68269,0,0,1-1.36719-5.23828q-.03661-1.47656-.03613-3.168,0-1.69042.03613-3.24023a11.5861,11.5861,0,0,1,1.38574-5.2207,8.27581,8.27581,0,0,1,3.56348-3.36524,12.42424,12.42424,0,0,1,5.63477-1.16992,13.85892,13.85892,0,0,1,4.3916.64844,10.17413,10.17413,0,0,1,3.3125,1.78125,8.17662,8.17662,0,0,1,2.124,2.64648,7.58113,7.58113,0,0,1,.792,3.27539.61047.61047,0,0,1-.19824.541.80022.80022,0,0,1-.55859.21484h-3.41992a1.00959,1.00959,0,0,1-.64746-.19726,1.13885,1.13885,0,0,1-.36036-.666,4.95372,4.95372,0,0,0-1.97949-3.24023,6.55264,6.55264,0,0,0-3.49219-.86328,5.4031,5.4031,0,0,0-3.85254,1.34961,6.18793,6.18793,0,0,0-1.54785,4.44531q-.10839,2.95313,0,6.04883.1084,3.09667,1.54785,4.44531a5.40314,5.40314,0,0,0,3.85254,1.34961,6.54176,6.54176,0,0,0,3.50977-.88086,4.84919,4.84919,0,0,0,1.96191-3.22266.9118.9118,0,0,1,1.00782-.86328h3.41992a.80027.80027,0,0,1,.55859.21484.61048.61048,0,0,1,.19824.541,7.5811,7.5811,0,0,1-.792,3.27539,8.17665,8.17665,0,0,1-2.124,2.64649,10.1745,10.1745,0,0,1-3.3125,1.78125A13.85893,13.85893,0,0,1,1708.001,624.53906Z"/><path class="cls-3" d="M1730.46387,624.17969a.688.688,0,0,1-.50391-.2168.731.731,0,0,1-.21582-.53906.90417.90417,0,0,1,.10742-.39649l5.94043-9.68359,4.752.791-5.36426,9.07226a3.43093,3.43093,0,0,1-.52149.666,1.24377,1.24377,0,0,1-.918.30664Zm14.40039,0a.89312.89312,0,0,1-.62988-.252.80652.80652,0,0,1-.27051-.61328v-8.24414h-5.292a9.76764,9.76764,0,0,1-4.42774-.95312,6.91951,6.91951,0,0,1-2.95215-2.73633,8.97482,8.97482,0,0,1-.03613-8.334,7.49148,7.49148,0,0,1,3.00586-2.95118,10.033,10.033,0,0,1,4.95019-1.11718h8.89161a.82792.82792,0,0,1,.63086.25195.87211.87211,0,0,1,.23339.61328v23.4707a.87208.87208,0,0,1-.23339.61328.821.821,0,0,1-.63086.252Zm-5.43653-13.17578h4.53614v-8.0293h-4.53614a3.80678,3.80678,0,0,0-2.96972,1.16992,4.30472,4.30472,0,0,0-1.0625,3.00586,3.83423,3.83423,0,0,0,1.00879,2.86328A4.14983,4.14983,0,0,0,1739.42773,611.00391Z"/><path class="cls-3" d="M1780.93555,629.21875a.81738.81738,0,0,1-.62989-.25195.86394.86394,0,0,1-.23437-.61133v-4.17578h-17.3877a.83355.83355,0,0,1-.6123-.252.87869.87869,0,0,1-.252-.64843V599.84375a.821.821,0,0,1,.252-.63086.86627.86627,0,0,1,.6123-.23437H1765.96a.82571.82571,0,0,1,.62988.25195.87208.87208,0,0,1,.2334.61328v19.83594h10.62012V599.84375a.86025.86025,0,0,1,.86426-.86523h3.24023a.88414.88414,0,0,1,.64746.25195.83574.83574,0,0,1,.252.61328v19.83594h1.72851a.87646.87646,0,0,1,.64746.25195.83224.83224,0,0,1,.25293.61133v7.8125a.83226.83226,0,0,1-.25293.61133.87646.87646,0,0,1-.64746.25195Z"/><path class="cls-3" d="M1797.13574,624.17969a.86029.86029,0,0,1-.86426-.86524v-23.4707a.86027.86027,0,0,1,.86426-.86523h3.27637a.82571.82571,0,0,1,.62988.25195.87208.87208,0,0,1,.2334.61328v8.24414h3.99609a9.903,9.903,0,0,1,6.624,1.99805,7.35277,7.35277,0,0,1,2.34082,5.92187,8.71682,8.71682,0,0,1-.99024,4.13867,7.09986,7.09986,0,0,1-2.98828,2.95313,10.40767,10.40767,0,0,1-4.98633,1.08008Zm4.13965-3.9961h3.81641a3.75406,3.75406,0,0,0,2.95215-1.16992,4.40173,4.40173,0,0,0,1.04394-3.043,3.83458,3.83458,0,0,0-1.02637-2.916,4.1541,4.1541,0,0,0-2.96972-.97071h-3.81641Zm16.9209,3.9961a.86027.86027,0,0,1-.86426-.86524v-23.4707a.86025.86025,0,0,1,.86426-.86523h3.38379a.82571.82571,0,0,1,.62988.25195.87294.87294,0,0,1,.23438.61328v23.4707a.87291.87291,0,0,1-.23438.61328.81881.81881,0,0,1-.62988.252Z"/><path class="cls-3" d="M206.7207,191.17969a.86027.86027,0,0,1-.86425-.86524V166.87891a.87871.87871,0,0,1,.25195-.64844.84116.84116,0,0,1,.6123-.25195h9.64844a12.5125,12.5125,0,0,1,4.89551.88281,6.98831,6.98831,0,0,1,3.24023,2.66406,8.032,8.032,0,0,1,1.15235,4.44531,7.92682,7.92682,0,0,1-1.15235,4.44727,6.95438,6.95438,0,0,1-3.24023,2.60937,12.73831,12.73831,0,0,1-4.89551.86329h-5.36426v8.42382a.8686.8686,0,0,1-.23437.61328.81881.81881,0,0,1-.62988.252Zm4.21192-13.28516h5.25586a4.66739,4.66739,0,0,0,3.2041-.99023,3.71205,3.71205,0,0,0,1.11621-2.9336,4.03776,4.03776,0,0,0-1.04395-2.89843,4.34282,4.34282,0,0,0-3.27636-1.09766h-5.25586Z"/><path class="cls-3" d="M244.08887,184.87891l-9.61231-17.748a.84409.84409,0,0,1-.10742-.35938.733.733,0,0,1,.252-.55859.78.78,0,0,1,.54-.23437h3.52735a.965.965,0,0,1,.55859.16211,1.1353,1.1353,0,0,1,.37793.52343l7.0918,13.24805Zm-5.58008,6.30078a.86027.86027,0,0,1-.86426-.86524v-2.66406a.87423.87423,0,0,1,.25195-.64648.83355.83355,0,0,1,.61231-.252h1.332a3.44907,3.44907,0,0,0,1.79981-.45117,4.47457,4.47457,0,0,0,1.40429-1.43945,15.96456,15.96456,0,0,0,1.2959-2.53906l6.876-15.65821a1.07147,1.07147,0,0,1,.3955-.52343,1.04756,1.04756,0,0,1,.57618-.16211h3.34863a.75037.75037,0,0,1,.52148.21679.66739.66739,0,0,1,.23438.50391,1.36059,1.36059,0,0,1-.03613.32422,1.436,1.436,0,0,1-.1084.28711l-7.23535,16.52539q-.90089,1.98047-1.69239,3.36523a9.70974,9.70974,0,0,1-1.72851,2.26758,5.77644,5.77644,0,0,1-2.21387,1.29688,10.07134,10.07134,0,0,1-3.07812.41406Z"/><path class="cls-3" d="M267.12793,191.17969a.86029.86029,0,0,1-.86426-.86524V166.87891a.87872.87872,0,0,1,.252-.64844.84114.84114,0,0,1,.6123-.25195h16.48828a.82571.82571,0,0,1,.62988.25195.91527.91527,0,0,1,.23438.64844v2.51953a.86864.86864,0,0,1-.23438.61328.8188.8188,0,0,1-.62988.25195H271.26758v5.75977h6.085a9.35268,9.35268,0,0,1,6.37109,2.01562,6.89871,6.89871,0,0,1,2.30469,5.47266,7.58984,7.58984,0,0,1-.55859,2.86133,7.34486,7.34486,0,0,1-1.6377,2.46679,7.72036,7.72036,0,0,1-2.70019,1.709,10.39531,10.39531,0,0,1-3.7793.63086Zm4.13965-3.81641h5.58008a4.18315,4.18315,0,0,0,2.19629-.541,3.58861,3.58861,0,0,0,1.36816-1.43946,4.15529,4.15529,0,0,0,.46777-1.94336,3.63473,3.63473,0,0,0-1.00781-2.6289,4.02442,4.02442,0,0,0-3.02441-1.043h-5.58008Z"/><path class="cls-3" d="M313.459,191.17969a.86028.86028,0,0,1-.86328-.86524V170.47852h-7.8125v4.53711a51.69763,51.69763,0,0,1-.45019,7.3789,15.34906,15.34906,0,0,1-1.458,4.95117,6.57753,6.57753,0,0,1-2.73535,2.80664,9.6956,9.6956,0,0,1-4.32031.99024.74413.74413,0,0,1-.62989-.23242.86939.86939,0,0,1-.2705-.63086v-2.69922a.81575.81575,0,0,1,.82812-.86524,3.19318,3.19318,0,0,0,1.85449-1.00781,6.50685,6.50685,0,0,0,1.2959-2.33984,17.842,17.842,0,0,0,.77442-3.76172,47.9445,47.9445,0,0,0,.252-5.23828v-7.52344a.86025.86025,0,0,1,.86328-.86523h15.91211a.86309.86309,0,0,1,.90039.90039v23.43554a.83952.83952,0,0,1-.25195.61328.87873.87873,0,0,1-.64844.252Z"/><path class="cls-3" d="M331.2793,191.17969a.83355.83355,0,0,1-.61231-.252.87869.87869,0,0,1-.252-.64843V166.87891a.86309.86309,0,0,1,.90039-.90039h3.24023a.82572.82572,0,0,1,.62989.25195.919.919,0,0,1,.2334.64844v16.52343l11.84472-16.84765a2.39666,2.39666,0,0,1,.39551-.377,1.01327,1.01327,0,0,1,.64844-.19921h2.98828a.84055.84055,0,0,1,.61133.25195.87871.87871,0,0,1,.25195.64844v23.43554a.86026.86026,0,0,1-.86328.86524h-3.24024a.87718.87718,0,0,1-.64843-.252.83571.83571,0,0,1-.252-.61328V174.11523l-11.80761,16.48829a2.56319,2.56319,0,0,1-.36036.35937,1.01236,1.01236,0,0,1-.68359.2168Z"/><path class="cls-4" d="M1600.22266,118.38379a1.38477,1.38477,0,0,1-1.01953-.41992,1.45919,1.45919,0,0,1-.41993-1.08008v-39a1.46225,1.46225,0,0,1,.41993-1.08008,1.38851,1.38851,0,0,1,1.01953-.41992h17.87988a20.107,20.107,0,0,1,8.19043,1.44043,9.82431,9.82431,0,0,1,4.71,4.0791,12.31163,12.31163,0,0,1,1.5,6.18066,8.8741,8.8741,0,0,1-.81055,3.89942,9.04183,9.04183,0,0,1-1.97949,2.76074,9.99848,9.99848,0,0,1-2.25,1.62012,10.6806,10.6806,0,0,1,4.13965,3.56933,9.8162,9.8162,0,0,1,1.7998,5.91016,12.46768,12.46768,0,0,1-1.71,6.59961,11.33792,11.33792,0,0,1-5.00976,4.38086,18.71738,18.71738,0,0,1-8.04,1.55957Zm8.10058-25.01953h8.63965a5.74133,5.74133,0,0,0,4.22949-1.41016,4.91519,4.91519,0,0,0,1.41016-3.62988,4.62,4.62,0,0,0-1.41016-3.54,5.98922,5.98922,0,0,0-4.22949-1.32031h-8.63965Zm0,17.93945h9.17969a5.69442,5.69442,0,0,0,4.43945-1.65039,5.56663,5.56663,0,0,0,1.5-3.86914,5.45145,5.45145,0,0,0-1.52929-3.93066,5.84019,5.84019,0,0,0-4.41016-1.58985h-9.17969Z"/><path class="cls-4" d="M1647.32227,118.38379a1.38481,1.38481,0,0,1-1.01954-.41992,1.45922,1.45922,0,0,1-.41992-1.08008v-39a1.46228,1.46228,0,0,1,.41992-1.08008,1.38855,1.38855,0,0,1,1.01954-.41992h6.60058a1.43985,1.43985,0,0,1,1.5,1.5V91.2041h6.17969q7.43847,0,11.51953,3.33008,4.0796,3.32959,4.08008,10.0498a14.2716,14.2716,0,0,1-1.76953,7.10938,12.16511,12.16511,0,0,1-5.25,4.9209,18.79689,18.79689,0,0,1-8.58008,1.76953Zm8.10058-7.5h5.87988a5.60461,5.60461,0,0,0,4.43946-1.76953,6.59906,6.59906,0,0,0,1.56054-4.53028,5.8658,5.8658,0,0,0-1.56054-4.46972,6.22453,6.22453,0,0,0-4.43946-1.47071h-5.87988Zm28.0791,7.5a1.43985,1.43985,0,0,1-1.5-1.5v-39a1.43985,1.43985,0,0,1,1.5-1.5h6.84082a1.43841,1.43841,0,0,1,1.5,1.5v39a1.43841,1.43841,0,0,1-1.5,1.5Z"/><path class="cls-4" d="M1703.84082,118.38379a1.1717,1.1717,0,0,1-.90039-.38965,1.2501,1.2501,0,0,1-.35938-.87012,1.1329,1.1329,0,0,1,.05958-.36035c.03906-.12012.08007-.24023.12011-.36035l13.25977-19.43945-12.35938-18.59961a1.6,1.6,0,0,1-.18066-.72071,1.25465,1.25465,0,0,1,.36035-.87011,1.17441,1.17441,0,0,1,.89941-.38965h7.38086a1.82674,1.82674,0,0,1,1.29.41992,4.604,4.604,0,0,1,.68946.78027l8.04,11.93946,8.04-11.93946a4.09241,4.09241,0,0,1,.71973-.78027,1.84918,1.84918,0,0,1,1.26074-.41992h7.01953a1.175,1.175,0,0,1,.90039.38965,1.25784,1.25784,0,0,1,.35938.87011,1.37532,1.37532,0,0,1-.17969.72071l-12.41992,18.53906,13.37988,19.5a.9482.9482,0,0,1,.15039.36035,2.24087,2.24087,0,0,1,.0293.36035,1.33768,1.33768,0,0,1-1.25976,1.25977h-7.67969a1.84438,1.84438,0,0,1-1.26074-.41992,3.3138,3.3138,0,0,1-.65918-.71973l-8.76075-12.54-8.63964,12.54a7.01032,7.01032,0,0,1-.69043.71973,1.72933,1.72933,0,0,1-1.2295.41992Z"/><path class="cls-4" d="M1768.76074,118.9834a22.611,22.611,0,0,1-9.41992-1.79981,13.71689,13.71689,0,0,1-6.18066-5.42968,18.469,18.469,0,0,1-2.39942-9.15039q-.06006-2.57812-.06054-5.12989,0-2.54883.06054-5.18945a18.37754,18.37754,0,0,1,2.42969-9.09082,14.12756,14.12756,0,0,1,6.24023-5.54981,24.18636,24.18636,0,0,1,18.59961,0,14.31968,14.31968,0,0,1,6.27051,5.54981,18.1811,18.1811,0,0,1,2.46,9.09082q.11865,2.63965.12012,5.18945,0,2.55176-.12012,5.12989a18.25783,18.25783,0,0,1-2.42969,9.15039,13.90168,13.90168,0,0,1-6.21,5.42968A22.45963,22.45963,0,0,1,1768.76074,118.9834Zm0-7.79981a8.06329,8.06329,0,0,0,5.72949-2.09961q2.25-2.09912,2.37012-6.78027.12012-2.63964.12012-4.95019,0-2.30861-.12012-4.88965a11.05668,11.05668,0,0,0-1.13965-5.09961,6.72314,6.72314,0,0,0-2.84961-2.88086,9.77271,9.77271,0,0,0-8.19043,0,6.67065,6.67065,0,0,0-2.87988,2.88086,11.5521,11.5521,0,0,0-1.20019,5.09961q-.06006,2.581-.05957,4.88965,0,2.31152.05957,4.95019.18017,4.68018,2.40039,6.78027A8.03593,8.03593,0,0,0,1768.76074,111.18359Z"/><path class="cls-4" d="M1798.33984,126.78418a1.39072,1.39072,0,0,1-1.0205-.41992,1.46379,1.46379,0,0,1-.41993-1.08008V111.30371a1.48937,1.48937,0,0,1,.41993-1.0498,1.34372,1.34372,0,0,1,1.0205-.4502h1.13965a3.01027,3.01027,0,0,0,2.46-1.34961,10.49768,10.49768,0,0,0,1.62012-3.90039A43.08515,43.08515,0,0,0,1804.46,98.374q.29883-3.62988.29981-8.12988V77.88379a1.46224,1.46224,0,0,1,.41992-1.08008,1.39069,1.39069,0,0,1,1.02051-.41992h27a1.43985,1.43985,0,0,1,1.5,1.5v31.91992h2.87988a1.41333,1.41333,0,0,1,1.08008.4502,1.49364,1.49364,0,0,1,.41992,1.0498v13.98047a1.49364,1.49364,0,0,1-.41992,1.0498,1.41333,1.41333,0,0,1-1.08008.4502h-6.60059a1.41041,1.41041,0,0,1-1.08008-.4502,1.4894,1.4894,0,0,1-.41992-1.0498v-6.90039h-23.04v6.90039a1.4936,1.4936,0,0,1-.41992,1.0498,1.41185,1.41185,0,0,1-1.08008.4502ZM1811,109.80371h14.16016V84.90332H1814v6.54a68.176,68.176,0,0,1-.78027,11.37012A21.94078,21.94078,0,0,1,1811,109.80371Z"/><g id="Линии"><rect class="cls-5" x="817" y="916" width="4" height="4"/><path class="cls-5" d="M821,891.71973h-4V883.626h4Zm0-32.37305h-4v-8.09375h4Zm0-32.374h-4v-8.09278h4Zm0-32.37305h-4v-8.09277h4Zm0-32.37305h-4v-8.09375h4Zm0-32.373h-4v-8.09375h4Zm0-32.374h-4v-8.09277h4Zm0-32.373h-4V657.0127h4Zm0-32.37305h-4v-8.09375h4Zm0-32.374h-4V592.2666h4Zm0-32.37305h-4v-8.09375h4Zm0-32.373h-4v-8.09375h4Zm0-32.37305h-4v-8.09375h4Zm0-32.374h-4v-8.09277h4Zm0-32.37305h-4v-8.09375h4Zm0-32.373h-4v-8.09375h4Zm0-32.374h-4v-8.09277h4Zm0-32.373h-4V333.2793h4Z"/><rect class="cls-5" x="817" y="305" width="4" height="4"/><rect class="cls-5" x="1037.66699" y="916" width="4" height="4"/><path class="cls-5" d="M1041.667,891.71973h-4V883.626h4Zm0-32.37305h-4v-8.09375h4Zm0-32.374h-4v-8.09278h4Zm0-32.37305h-4v-8.09277h4Zm0-32.37305h-4v-8.09375h4Zm0-32.373h-4v-8.09375h4Zm0-32.374h-4v-8.09277h4Zm0-32.373h-4V657.0127h4Zm0-32.37305h-4v-8.09375h4Zm0-32.374h-4V592.2666h4Zm0-32.37305h-4v-8.09375h4Zm0-32.373h-4v-8.09375h4Zm0-32.37305h-4v-8.09375h4Zm0-32.374h-4v-8.09277h4Zm0-32.37305h-4v-8.09375h4Zm0-32.373h-4v-8.09375h4Zm0-32.374h-4v-8.09277h4Zm0-32.373h-4V333.2793h4Z"/><rect class="cls-5" x="1037.66699" y="305" width="4" height="4"/><rect class="cls-6" x="1256.33398" y="911" width="8" height="9"/><path class="cls-6" d="M1264.334,885.043h-8V867.07324h8Zm0-43.92676h-8V823.14648h8Zm0-43.92578h-8V779.2207h8Zm0-43.92676h-8V735.294h8Zm0-43.92676h-8V691.36719h8Zm0-43.92578h-8V647.44141h8Zm0-43.92675h-8V603.51465h8Zm0-43.92676h-8V559.58789h8Zm0-43.92578h-8V515.66211h8Zm0-43.92676h-8V471.73535h8Zm0-43.92676h-8V427.80859h8Zm0-43.92578h-8V383.88281h8Zm0-43.92676h-8V339.95605h8Z"/><rect class="cls-6" x="1256.33398" y="305" width="8" height="9"/><rect class="cls-5" x="1479" y="916" width="4" height="4"/><path class="cls-5" d="M1483,891.71973h-4V883.626h4Zm0-32.37305h-4v-8.09375h4Zm0-32.374h-4v-8.09278h4Zm0-32.37305h-4v-8.09277h4Zm0-32.37305h-4v-8.09375h4Zm0-32.373h-4v-8.09375h4Zm0-32.374h-4v-8.09277h4Zm0-32.373h-4V657.0127h4Zm0-32.37305h-4v-8.09375h4Zm0-32.374h-4V592.2666h4Zm0-32.37305h-4v-8.09375h4Zm0-32.373h-4v-8.09375h4Zm0-32.37305h-4v-8.09375h4Zm0-32.374h-4v-8.09277h4Zm0-32.37305h-4v-8.09375h4Zm0-32.373h-4v-8.09375h4Zm0-32.374h-4v-8.09277h4Zm0-32.373h-4V333.2793h4Z"/><rect class="cls-5" x="1479" y="305" width="4" height="4"/><rect class="cls-5" x="375.66699" y="916" width="4" height="4"/><path class="cls-5" d="M379.667,891.71973h-4V883.626h4Zm0-32.37305h-4v-8.09375h4Zm0-32.374h-4v-8.09278h4Zm0-32.37305h-4v-8.09277h4Zm0-32.37305h-4v-8.09375h4Zm0-32.373h-4v-8.09375h4Zm0-32.374h-4v-8.09277h4Zm0-32.373h-4V657.0127h4Zm0-32.37305h-4v-8.09375h4Zm0-32.374h-4V592.2666h4Zm0-32.37305h-4v-8.09375h4Zm0-32.373h-4v-8.09375h4Zm0-32.37305h-4v-8.09375h4Zm0-32.374h-4v-8.09277h4Zm0-32.37305h-4v-8.09375h4Zm0-32.373h-4v-8.09375h4Zm0-32.374h-4v-8.09277h4Zm0-32.373h-4V333.2793h4Z"/><rect class="cls-5" x="375.66699" y="305" width="4" height="4"/><rect class="cls-6" x="594.33301" y="305" width="8" height="615"/><rect class="cls-3" x="155" y="199.24219" width="4" height="720.75781"/><polygon class="cls-3" points="157 171 173.262 210.797 157 201.354 140.742 210.797 157 171"/></g><g class="cls-7"><polygon class="cls-4" points="597.481 887.688 594.911 886.144 151.911 620.144 158.089 609.856 598.519 874.313 1545.741 489.441 1550.259 500.559 597.481 887.688"/></g><circle class="cls-6" cx="598" cy="963" r="50"/><path class="cls-2" d="M562.46,976.88086a.82781.82781,0,0,1-.61328-.23828.78552.78552,0,0,1-.23828-.5791V953.90234a.81626.81626,0,0,1,.85156-.85156h2.68848a.92762.92762,0,0,1,.71484.25586,1.96716,1.96716,0,0,1,.30664.3916l6.57031,12.25489,6.63868-12.25489a1.95246,1.95246,0,0,1,.30566-.3916.93138.93138,0,0,1,.71582-.25586h2.65527a.8162.8162,0,0,1,.85059.85156v22.16114a.7893.7893,0,0,1-.23828.5791.82863.82863,0,0,1-.61231.23828h-2.86035a.77184.77184,0,0,1-.5957-.23828.8182.8182,0,0,1-.2207-.5791V961.32324l-4.76661,9.08985a1.79564,1.79564,0,0,1-.44238.52734,1.09911,1.09911,0,0,1-.71484.22168h-1.39551a1.0869,1.0869,0,0,1-.73242-.22168,1.9342,1.9342,0,0,1-.42481-.52734l-4.7666-9.08985v14.74024a.81356.81356,0,0,1-.8164.81738Z"/><path class="cls-2" d="M598.71387,976.88086a1.23453,1.23453,0,0,1-.85059-.27246,1.53883,1.53883,0,0,1-.44238-.68067l-7.28516-21.85546a.82713.82713,0,0,1-.06836-.30664.69759.69759,0,0,1,.71485-.71485h2.99609a.98689.98689,0,0,1,.73145.25586,1.17863,1.17863,0,0,1,.32324.49316l5.7539,17.53223,5.75293-17.53223a1.18825,1.18825,0,0,1,.32325-.49316.98774.98774,0,0,1,.73242-.25586h2.99512a.71508.71508,0,0,1,.49414.2041.667.667,0,0,1,.2207.51075.844.844,0,0,1-.06738.30664l-7.28516,21.85546a1.54912,1.54912,0,0,1-.44336.68067,1.2362,1.2362,0,0,1-.85059.27246Z"/><path class="cls-2" d="M618.085,976.88086a.81357.81357,0,0,1-.81738-.81738V953.90234a.82935.82935,0,0,1,.23828-.61328.7893.7893,0,0,1,.5791-.23828h9.123a11.84084,11.84084,0,0,1,4.62988.834,6.61258,6.61258,0,0,1,3.06348,2.51953,7.59163,7.59163,0,0,1,1.08984,4.2041,7.48656,7.48656,0,0,1-1.08984,4.2041,6.57432,6.57432,0,0,1-3.06348,2.46875,12.06648,12.06648,0,0,1-4.62988.81641h-5.07227v7.96582a.819.819,0,0,1-.22168.5791.77184.77184,0,0,1-.5957.23828Zm3.98242-12.56152h4.97071a4.41744,4.41744,0,0,0,3.02929-.93653,3.51622,3.51622,0,0,0,1.05567-2.77441,3.81226,3.81226,0,0,0-.98731-2.74024,4.10023,4.10023,0,0,0-3.09765-1.03808h-4.97071Z"/><rect class="cls-3" x="158" y="610.5" width="1406.75781" height="4"/><polygon class="cls-3" points="1593 612.5 1553.203 628.762 1562.646 612.5 1553.203 596.242 1593 612.5"/><g id="Месяцы"><rect class="cls-3" x="242" y="587.5" width="50" height="50"/><path class="cls-2" d="M268.31445,622.75684a.65483.65483,0,0,1-.50488-.20215.69321.69321,0,0,1-.18848-.49121V607.09863l-4.39062,3.38086a.71335.71335,0,0,1-.52051.12989.74274.74274,0,0,1-.46191-.30372l-1.21289-1.55957a.75921.75921,0,0,1-.13086-.54882.66147.66147,0,0,1,.30371-.46289l6.4707-4.99708a.7412.7412,0,0,1,.34668-.17382,2.37777,2.37777,0,0,1,.376-.0293h2.542a.69184.69184,0,0,1,.69336.69336v18.83594a.69021.69021,0,0,1-.69336.69336Z"/><rect class="cls-3" x="352.36364" y="587.5" width="50" height="50"/><path class="cls-2" d="M370.416,622.75684a.69019.69019,0,0,1-.69336-.69336v-1.47364a1.90807,1.90807,0,0,1,.12988-.62109,1.80239,1.80239,0,0,1,.59277-.73633l4.56446-4.53515q1.90575-1.50294,3.07617-2.55664a9.16469,9.16469,0,0,0,1.70508-1.93555,3.36278,3.36278,0,0,0,.53418-1.748,3.08879,3.08879,0,0,0-.708-2.10937,2.82609,2.82609,0,0,0-2.23926-.8086,3.23916,3.23916,0,0,0-1.7041.41895,3.002,3.002,0,0,0-1.083,1.1123,4.728,4.728,0,0,0-.53418,1.53125.66639.66639,0,0,1-.31836.51953,1.05687,1.05687,0,0,1-.51953.14454h-2.57129a.58806.58806,0,0,1-.43359-.17286.556.556,0,0,1-.17285-.40527,6.572,6.572,0,0,1,.51953-2.41211,6.244,6.244,0,0,1,1.42968-2.08008,7.0432,7.0432,0,0,1,2.29688-1.458,8.10367,8.10367,0,0,1,3.0625-.5498,8.65315,8.65315,0,0,1,3.97168.80957,5.5768,5.5768,0,0,1,2.36914,2.19531,6.16871,6.16871,0,0,1,.79492,3.12012,5.955,5.955,0,0,1-.52051,2.499,8.27751,8.27751,0,0,1-1.50195,2.19532,21.2828,21.2828,0,0,1-2.36914,2.15234l-4.10156,4.16016h8.23242a.64645.64645,0,0,1,.69336.69336v2.05078a.69666.69666,0,0,1-.1875.49121.657.657,0,0,1-.50586.20215Z"/><rect class="cls-3" x="462.72727" y="587.5" width="50" height="50"/><path class="cls-2" d="M487.61133,623.0459a11.0914,11.0914,0,0,1-3.49512-.49121,7.58577,7.58577,0,0,1-2.44141-1.28516,5.6534,5.6534,0,0,1-1.459-1.7334,4.26985,4.26985,0,0,1-.51953-1.86328.518.518,0,0,1,.1875-.41894.66748.66748,0,0,1,.44726-.15918h2.60059a.98767.98767,0,0,1,.49121.11523.92033.92033,0,0,1,.34668.46289,2.55783,2.55783,0,0,0,.85156,1.24219,3.55472,3.55472,0,0,0,1.37207.64941,6.98126,6.98126,0,0,0,1.64747.1875,4.28364,4.28364,0,0,0,2.75878-.82324,2.84345,2.84345,0,0,0,1.02539-2.35449,2.525,2.525,0,0,0-.95312-2.21,4.525,4.525,0,0,0-2.6582-.67871h-2.97559a.73156.73156,0,0,1-.51953-.1875.65358.65358,0,0,1-.20215-.50586V611.7793a.96315.96315,0,0,1,.12988-.50586,1.83231,1.83231,0,0,1,.27442-.36133l5.1709-5.05566h-8.2627a.65143.65143,0,0,1-.50488-.20215.68913.68913,0,0,1-.1875-.49121v-1.90625a.7289.7289,0,0,1,.1875-.51954.65548.65548,0,0,1,.50488-.20312h12.39356a.694.694,0,0,1,.72265.72266v1.73339a.91159.91159,0,0,1-.11621.46192,1.60736,1.60736,0,0,1-.25976.34668l-4.99707,5.14258.3457.02832a8.9888,8.9888,0,0,1,3.13476.79492,4.92793,4.92793,0,0,1,2.1377,1.89258,5.8479,5.8479,0,0,1,.76562,3.11914,5.54339,5.54339,0,0,1-1.02539,3.36621,6.52062,6.52062,0,0,1-2.8164,2.15234A10.54451,10.54451,0,0,1,487.61133,623.0459Z"/><rect class="cls-6" x="573.09091" y="587.5" width="50" height="50"/><path class="cls-2" d="M600.084,622.75684a.69019.69019,0,0,1-.69335-.69336v-3.69727h-9.15821a.65209.65209,0,0,1-.50488-.20312.68925.68925,0,0,1-.18848-.49024V615.708a1.54281,1.54281,0,0,1,.07227-.41895,1.2202,1.2202,0,0,1,.24609-.44824l8.52246-11.81543a1.26575,1.26575,0,0,1,1.06836-.49121h3.14942a.69184.69184,0,0,1,.69336.69336V614.957h2.57031a.72607.72607,0,0,1,.53515.1875.68561.68561,0,0,1,.1875.50586v2.02246a.69183.69183,0,0,1-.69335.69336H603.291v3.69727a.69021.69021,0,0,1-.69336.69336Zm-6.52929-7.68457h5.92285v-8.34864Z"/><rect class="cls-3" x="683.45455" y="587.5" width="50" height="50"/><path class="cls-2" d="M708.33984,623.07422a9.5793,9.5793,0,0,1-4.18847-.82324,6.2732,6.2732,0,0,1-2.58594-2.15235,5.41039,5.41039,0,0,1-.93848-2.83105.45094.45094,0,0,1,.15821-.41895.67242.67242,0,0,1,.44824-.1582h2.68652a1.01885,1.01885,0,0,1,.53418.12988.82825.82825,0,0,1,.333.44727,3.60927,3.60927,0,0,0,.82324,1.416,3.28278,3.28278,0,0,0,1.24219.8086,4.447,4.447,0,0,0,3.37988-.15821,3.31685,3.31685,0,0,0,1.37207-1.25683,3.81805,3.81805,0,0,0,.51953-2.05176,3.4013,3.4013,0,0,0-.49023-1.84863,3.46506,3.46506,0,0,0-1.34375-1.22754,4.12894,4.12894,0,0,0-1.9502-.44824,3.73454,3.73454,0,0,0-1.3291.20215,3.96809,3.96809,0,0,0-.88086.46289c-.24121.17285-.45215.32714-.63574.46191a1.01946,1.01946,0,0,1-.62109.20215h-2.65723a.64022.64022,0,0,1-.63574-.63574l1.01074-9.87989a.78985.78985,0,0,1,.80957-.78027H714.2627a.69184.69184,0,0,1,.69238.69336v1.93555a.6902.6902,0,0,1-.69238.69336h-8.34961l-.46192,4.709a6.70987,6.70987,0,0,1,1.38672-.66406,7.20433,7.20433,0,0,1,2.39746-.31739,7.83227,7.83227,0,0,1,2.64356.44727,6.95863,6.95863,0,0,1,2.23925,1.2998,6.1363,6.1363,0,0,1,1.54493,2.05176,6.33755,6.33755,0,0,1,.56347,2.72949,6.73631,6.73631,0,0,1-.98242,3.66895A6.60278,6.60278,0,0,1,712.5,622.208,9.324,9.324,0,0,1,708.33984,623.07422Z"/><rect class="cls-3" x="793.81818" y="587.5" width="50" height="50"/><path class="cls-2" d="M818.97754,623.0459a9.07963,9.07963,0,0,1-4.27539-.93945,6.94061,6.94061,0,0,1-2.77344-2.542,6.74171,6.74171,0,0,1-.98242-3.59668,6.443,6.443,0,0,1,.23144-1.73339,8.64451,8.64451,0,0,1,.60645-1.58887q.375-.75.73633-1.34278a7.93708,7.93708,0,0,1,.65039-.93945l5.28613-7.251a3.7598,3.7598,0,0,1,.34668-.36132.8931.8931,0,0,1,.63574-.2168H822.126a.56579.56579,0,0,1,.43359.18848.63781.63781,0,0,1,.17285.44726.53707.53707,0,0,1-.043.2168.51324.51324,0,0,1-.10058.15918l-4.04492,5.60449a2.63345,2.63345,0,0,1,.60644-.11621q.34717-.02783.63574-.02832a7.55036,7.55036,0,0,1,2.74414.56348,7.39442,7.39442,0,0,1,2.28223,1.459,6.81229,6.81229,0,0,1,1.5459,2.166,6.49155,6.49155,0,0,1,.56348,2.71582,6.90147,6.90147,0,0,1-.95313,3.53906,7.00345,7.00345,0,0,1-2.73047,2.61426A8.676,8.676,0,0,1,818.97754,623.0459Zm-.0293-3.32227a4.28878,4.28878,0,0,0,1.9209-.43359,3.56456,3.56456,0,0,0,1.43066-1.27051,3.72345,3.72345,0,0,0,.54883-2.08008,3.66877,3.66877,0,0,0-.54883-2.05175,3.55735,3.55735,0,0,0-1.43066-1.27051,4.47171,4.47171,0,0,0-3.8418,0,3.54836,3.54836,0,0,0-1.42968,1.27051,3.66094,3.66094,0,0,0-.54883,2.05175,3.71558,3.71558,0,0,0,.54883,2.08008,3.55554,3.55554,0,0,0,1.42968,1.27051A4.28881,4.28881,0,0,0,818.94824,619.72363Z"/><rect class="cls-3" x="904.18182" y="587.5" width="50" height="50"/><path class="cls-2" d="M925.52637,622.75684a.56433.56433,0,0,1-.43262-.1875.63509.63509,0,0,1-.17383-.44825.72232.72232,0,0,1,.05762-.25976l6.96289-15.88867h-9.07129a.657.657,0,0,1-.50586-.20215.69666.69666,0,0,1-.1875-.49121v-2.02246a.7332.7332,0,0,1,.1875-.51954.65765.65765,0,0,1,.50586-.20312h12.68164a.65764.65764,0,0,1,.50586.20312.7332.7332,0,0,1,.1875.51954v1.791a2.71829,2.71829,0,0,1-.07226.67871,4.70268,4.70268,0,0,1-.1875.56348l-6.9043,15.77344a1.75288,1.75288,0,0,1-.30371.44824.78512.78512,0,0,1-.6211.24512Z"/><rect class="cls-3" x="1014.54545" y="587.5" width="50" height="50"/><path class="cls-2" d="M1039.5459,623.0459a11.60054,11.60054,0,0,1-3.40918-.46192,7.36543,7.36543,0,0,1-2.52734-1.30078,5.64091,5.64091,0,0,1-1.56055-1.96386,5.78848,5.78848,0,0,1-.53418-2.51368,5.09343,5.09343,0,0,1,.82324-2.90332,5.52636,5.52636,0,0,1,2.15234-1.89257,4.75732,4.75732,0,0,1-1.66113-1.70411,4.822,4.822,0,0,1-.5918-2.42675,5.09428,5.09428,0,0,1,.85157-2.93164,5.68523,5.68523,0,0,1,2.48437-1.9795,11.363,11.363,0,0,1,7.93067-.01464,5.51021,5.51021,0,0,1,2.45507,1.96484,5.1627,5.1627,0,0,1,.8379,2.93262,4.90583,4.90583,0,0,1-.57813,2.42578,4.95566,4.95566,0,0,1-1.61719,1.7334,5.10088,5.10088,0,0,1,2.167,1.89257,5.30845,5.30845,0,0,1,.8086,2.93262,5.64946,5.64946,0,0,1-.93945,3.2207,6.19717,6.19717,0,0,1-2.74415,2.19532A10.7638,10.7638,0,0,1,1039.5459,623.0459Zm0-3.00488a5.13015,5.13015,0,0,0,2.03711-.38965,3.44105,3.44105,0,0,0,1.44433-1.11231,3.00861,3.00861,0,0,0,0-3.42285,3.49354,3.49354,0,0,0-1.44433-1.09863,5.51988,5.51988,0,0,0-4.07422,0,3.48726,3.48726,0,0,0-1.44434,1.09863,3.00861,3.00861,0,0,0,0,3.42285,3.435,3.435,0,0,0,1.44434,1.11231A5.13015,5.13015,0,0,0,1039.5459,620.041Zm0-9.27344a4.68637,4.68637,0,0,0,1.748-.375,3.21473,3.21473,0,0,0,1.2705-.95313,2.22469,2.22469,0,0,0,.47657-1.416,2.43278,2.43278,0,0,0-.44727-1.459,2.94358,2.94358,0,0,0-1.24219-.96777,4.8757,4.8757,0,0,0-3.61133,0,2.93758,2.93758,0,0,0-1.24218.96777,2.4262,2.4262,0,0,0-.44727,1.459,2.36177,2.36177,0,0,0,.44727,1.44433,2.97933,2.97933,0,0,0,1.24218.95313A4.46456,4.46456,0,0,0,1039.5459,610.76758Z"/><rect class="cls-3" x="1124.90909" y="587.5" width="50" height="50"/><path class="cls-2" d="M1146.31348,622.75684a.56786.56786,0,0,1-.4336-.1875.63851.63851,0,0,1-.17285-.44825.52716.52716,0,0,1,.043-.23046c.0293-.0586.05273-.10645.07227-.14454l4.24707-5.86523a3.9133,3.9133,0,0,1-1.18457.11621,7.27822,7.27822,0,0,1-2.73047-.56348,7.14719,7.14719,0,0,1-2.19532-1.44433,6.71625,6.71625,0,0,1-1.47363-2.10938,6.341,6.341,0,0,1-.53418-2.61425,6.9777,6.9777,0,0,1,.49121-2.55665,6.79948,6.79948,0,0,1,3.88575-3.87109,9.06948,9.06948,0,0,1,3.42285-.5918,9.73341,9.73341,0,0,1,3.40918.54883,6.989,6.989,0,0,1,2.46972,1.5166,6.449,6.449,0,0,1,1.50293,2.21,6.926,6.926,0,0,1,.50489,2.62891,6.47389,6.47389,0,0,1-.4043,2.31055,9.5073,9.5073,0,0,1-.9961,1.95019q-.59325.88184-1.16992,1.71875l-5.085,7.04883a4.58883,4.58883,0,0,1-.332.36133.88335.88335,0,0,1-.65039.2168Zm3.46679-9.82227a4.00314,4.00314,0,0,0,1.89258-.44727,3.455,3.455,0,0,0,1.35742-1.27148,3.65488,3.65488,0,0,0,.50586-1.95019,3.71121,3.71121,0,0,0-.50586-1.97852,3.42959,3.42959,0,0,0-1.37207-1.27148,4.19676,4.19676,0,0,0-3.7705,0,3.44852,3.44852,0,0,0-1.35743,1.27148,3.7113,3.7113,0,0,0-.50586,1.97852,3.655,3.655,0,0,0,.50586,1.95019,3.44852,3.44852,0,0,0,1.35743,1.27148A4.00307,4.00307,0,0,0,1149.78027,612.93457Z"/><rect class="cls-6" x="1235.27273" y="587.5" width="50" height="50"/><path class="cls-2" d="M1251.375,622.75684a.65483.65483,0,0,1-.50488-.20215.69321.69321,0,0,1-.18848-.49121V607.09863l-4.39062,3.38086a.71335.71335,0,0,1-.52051.12989.74279.74279,0,0,1-.46192-.30372l-1.21289-1.55957a.75921.75921,0,0,1-.13086-.54882.6615.6615,0,0,1,.30371-.46289l6.47071-4.99708a.74116.74116,0,0,1,.34668-.17382,2.37773,2.37773,0,0,1,.376-.0293h2.542a.69184.69184,0,0,1,.69336.69336v18.83594a.69021.69021,0,0,1-.69336.69336Z"/><path class="cls-2" d="M1267.668,623.0459a9.01116,9.01116,0,0,1-3.49512-.60645,6.29166,6.29166,0,0,1-2.36914-1.67578,7.1449,7.1449,0,0,1-1.38672-2.46972,11.482,11.482,0,0,1-.54883-2.99024q-.0293-.78077-.04394-1.71875-.01465-.939,0-1.89258t.04394-1.76269a10.06246,10.06246,0,0,1,.54883-2.98926,7.09557,7.09557,0,0,1,1.42969-2.44141,6.58354,6.58354,0,0,1,2.38379-1.64648,8.84817,8.84817,0,0,1,3.4375-.60645,8.94038,8.94038,0,0,1,3.4668.60645,6.588,6.588,0,0,1,2.38281,1.64648,6.93016,6.93016,0,0,1,1.416,2.44141,10.44288,10.44288,0,0,1,.53418,2.98926q.05714.81006.05762,1.76269V613.585q0,.939-.05762,1.71875a10.786,10.786,0,0,1-.51953,2.99024,7.17651,7.17651,0,0,1-1.38672,2.46972,6.28568,6.28568,0,0,1-2.38379,1.67578A9.12971,9.12971,0,0,1,1267.668,623.0459Zm0-3.32227a3.1652,3.1652,0,0,0,2.75879-1.22754,5.76708,5.76708,0,0,0,.91015-3.33691q.05714-.83789.05762-1.69043V611.75c0-.57715-.01953-1.12695-.05762-1.64648a5.80142,5.80142,0,0,0-.91015-3.30762,3.62517,3.62517,0,0,0-5.48926,0,5.95126,5.95126,0,0,0-.93848,3.30762c0,.51953-.00488,1.06933-.01464,1.64648q-.01466.8672,0,1.71875.01464.85254.01464,1.69043a5.83418,5.83418,0,0,0,.95313,3.33691A3.14134,3.14134,0,0,0,1267.668,619.72363Z"/><rect class="cls-3" x="1345.63636" y="587.5" width="50" height="50"/><path class="cls-2" d="M1364.542,622.75684a.65483.65483,0,0,1-.50488-.20215.69321.69321,0,0,1-.18848-.49121V607.09863l-4.39062,3.38086a.71335.71335,0,0,1-.52051.12989.74274.74274,0,0,1-.46191-.30372l-1.21289-1.55957a.75916.75916,0,0,1-.13086-.54882.66147.66147,0,0,1,.30371-.46289l6.4707-4.99708a.7412.7412,0,0,1,.34668-.17382,2.37777,2.37777,0,0,1,.376-.0293h2.542a.69184.69184,0,0,1,.69336.69336v18.83594a.69021.69021,0,0,1-.69336.69336Z"/><path class="cls-2" d="M1379.36133,622.75684a.65481.65481,0,0,1-.50488-.20215.69321.69321,0,0,1-.18848-.49121V607.09863l-4.39063,3.38086a.71333.71333,0,0,1-.5205.12989.74276.74276,0,0,1-.46192-.30372l-1.21289-1.55957a.75921.75921,0,0,1-.13086-.54882.6615.6615,0,0,1,.30371-.46289l6.47071-4.99708a.74116.74116,0,0,1,.34668-.17382,2.37773,2.37773,0,0,1,.376-.0293h2.542a.69183.69183,0,0,1,.69336.69336v18.83594a.69019.69019,0,0,1-.69336.69336Z"/><rect class="cls-3" x="1456" y="587.5" width="50" height="50"/><path class="cls-2" d="M1472.65234,622.75684a.65483.65483,0,0,1-.50488-.20215.69321.69321,0,0,1-.18848-.49121V607.09863l-4.39062,3.38086a.71335.71335,0,0,1-.52051.12989.74274.74274,0,0,1-.46191-.30372l-1.21289-1.55957a.75921.75921,0,0,1-.13086-.54882.66147.66147,0,0,1,.30371-.46289l6.4707-4.99708a.7412.7412,0,0,1,.34668-.17382,2.37777,2.37777,0,0,1,.376-.0293h2.542a.69184.69184,0,0,1,.69336.69336v18.83594a.69021.69021,0,0,1-.69336.69336Z"/><path class="cls-2" d="M1481.46289,622.75684a.69021.69021,0,0,1-.69336-.69336v-1.47364a1.90833,1.90833,0,0,1,.12988-.62109,1.80243,1.80243,0,0,1,.59278-.73633l4.56445-4.53515q1.90577-1.50294,3.07617-2.55664a9.16412,9.16412,0,0,0,1.70508-1.93555,3.36268,3.36268,0,0,0,.53418-1.748,3.08879,3.08879,0,0,0-.708-2.10937,2.82608,2.82608,0,0,0-2.23926-.8086,3.23921,3.23921,0,0,0-1.7041.41895,3.002,3.002,0,0,0-1.083,1.1123,4.728,4.728,0,0,0-.53418,1.53125.66644.66644,0,0,1-.31836.51953,1.0569,1.0569,0,0,1-.51953.14454h-2.57129a.5881.5881,0,0,1-.4336-.17286.556.556,0,0,1-.17285-.40527,6.57221,6.57221,0,0,1,.51953-2.41211,6.24393,6.24393,0,0,1,1.42969-2.08008,7.04315,7.04315,0,0,1,2.29687-1.458,8.10375,8.10375,0,0,1,3.0625-.5498,8.6531,8.6531,0,0,1,3.97168.80957,5.57669,5.57669,0,0,1,2.36914,2.19531,6.16871,6.16871,0,0,1,.79493,3.12012,5.955,5.955,0,0,1-.52051,2.499,8.27775,8.27775,0,0,1-1.502,2.19532,21.28369,21.28369,0,0,1-2.36914,2.15234l-4.10157,4.16016h8.23242a.64645.64645,0,0,1,.69336.69336v2.05078a.69666.69666,0,0,1-.1875.49121.657.657,0,0,1-.50586.20215Z"/></g><g id="Версии"><path class="cls-3" d="M375.23828,284.001a46.26991,46.26991,0,0,0-.63867-11.23828,54.51378,54.51378,0,0,0-6.79883-16.15723h5.47852c1.59961,2.39941,4.11914,8.43848,5.23925,14.11816h.15918c1.52051-3.08008,3.64063-8.15918,3.64063-12.55859,0-.75977,0-1.15918-.041-1.55957H386.957a7.76854,7.76854,0,0,1,.08008,1.43945c0,4.96-2.959,11.39844-6.87891,17.15723a1.391,1.391,0,0,0-.24023.96c.08008,1.96.08008,5.15918.12012,7.83887Z"/><path class="cls-6" d="M570.91992,275.24316a1.0255,1.0255,0,0,1-.752-.24023,2.15831,2.15831,0,0,1-.40039-.55957l-5.98438-14.84863a.77534.77534,0,0,1-.06347-.28809.71026.71026,0,0,1,.7041-.7041h2.5918a.75026.75026,0,0,1,.57617.208,1.1564,1.1564,0,0,1,.25586.40039l4.25586,11.23242,4.25586-11.23242a1.17087,1.17087,0,0,1,.25585-.40039.75172.75172,0,0,1,.57618-.208h2.625a.6452.6452,0,0,1,.46289.208.68083.68083,0,0,1,.209.49609,1.54548,1.54548,0,0,1-.03223.28809l-6.0166,14.84863a1.55252,1.55252,0,0,1-.38281.55957,1.09031,1.09031,0,0,1-.76855.24023Z"/><path class="cls-6" d="M597.47852,275.24316a.72326.72326,0,0,1-.5586-.22461.76446.76446,0,0,1-.209-.54394V257.89844l-4.86328,3.74414a.78563.78563,0,0,1-.57618.14453.82124.82124,0,0,1-.51171-.33594l-1.34473-1.72851a.83747.83747,0,0,1-.14356-.60743.72434.72434,0,0,1,.33594-.51269l7.168-5.53516a.81055.81055,0,0,1,.38379-.19238,2.51624,2.51624,0,0,1,.416-.03223h2.81543a.76522.76522,0,0,1,.76855.76856v20.86328a.76522.76522,0,0,1-.76855.76855Z"/><path class="cls-6" d="M606.11914,275.24316a.76523.76523,0,0,1-.76758-.76855v-3.168a.78161.78161,0,0,1,.22364-.57617.74447.74447,0,0,1,.54394-.22363h3.2002a.74447.74447,0,0,1,.54394.22363.78548.78548,0,0,1,.22363.57617v3.168a.76521.76521,0,0,1-.76757.76855Z"/><path class="cls-6" d="M622.15137,275.5625a9.98308,9.98308,0,0,1-3.87207-.67187,6.96554,6.96554,0,0,1-2.624-1.85547,7.93661,7.93661,0,0,1-1.53613-2.73633,12.69778,12.69778,0,0,1-.60742-3.31153q-.03223-.86425-.04883-1.90429-.01611-1.04,0-2.09571.01611-1.05615.04883-1.95214a11.15186,11.15186,0,0,1,.60742-3.3125,7.88883,7.88883,0,0,1,1.584-2.70411,7.29262,7.29262,0,0,1,2.64062-1.82324,11.20116,11.20116,0,0,1,7.64746,0,7.29712,7.29712,0,0,1,2.63965,1.82324,7.673,7.673,0,0,1,1.56836,2.70411,11.56478,11.56478,0,0,1,.5918,3.3125q.06444.89648.06445,1.95214V265.083q0,1.04-.06445,1.90429a11.89173,11.89173,0,0,1-.57618,3.31153,7.95005,7.95005,0,0,1-1.53515,2.73633,6.95178,6.95178,0,0,1-2.64063,1.85547A10.10337,10.10337,0,0,1,622.15137,275.5625Zm0-3.67969a3.50446,3.50446,0,0,0,3.05566-1.36035,6.3813,6.3813,0,0,0,1.00781-3.69531q.06445-.92871.06446-1.87207v-1.9043q0-.95947-.06446-1.82422a6.42677,6.42677,0,0,0-1.00781-3.66406,3.47422,3.47422,0,0,0-3.05566-1.3916,3.43937,3.43937,0,0,0-3.02442,1.3916,6.59242,6.59242,0,0,0-1.03906,3.66406q0,.86426-.0166,1.82422-.01611.96095,0,1.9043t.0166,1.87207a6.46312,6.46312,0,0,0,1.05469,3.69531A3.47908,3.47908,0,0,0,622.15137,271.88281Z"/><path class="cls-3" d="M792.17676,275.24316a1.02706,1.02706,0,0,1-.752-.24023,2.11052,2.11052,0,0,1-.39941-.55957L785.041,259.59473a.77838.77838,0,0,1-.06446-.28809.71028.71028,0,0,1,.7041-.7041h2.59278a.74793.74793,0,0,1,.57519.208,1.17534,1.17534,0,0,1,.25684.40039l4.25586,11.23242,4.25586-11.23242a1.12816,1.12816,0,0,1,.25586-.40039.75025.75025,0,0,1,.57617-.208h2.62305a.64774.64774,0,0,1,.46484.208.67893.67893,0,0,1,.207.49609,1.46,1.46,0,0,1-.03125.28809l-6.01562,14.84863a1.55771,1.55771,0,0,1-.38477.55957,1.08606,1.08606,0,0,1-.76758.24023Z"/><path class="cls-3" d="M818.73633,275.24316a.72756.72756,0,0,1-.56055-.22461.76707.76707,0,0,1-.207-.54394V257.89844l-4.86523,3.74414a.78255.78255,0,0,1-.57618.14453.8263.8263,0,0,1-.51171-.33594l-1.34375-1.72851a.84276.84276,0,0,1-.14454-.60743.73166.73166,0,0,1,.33692-.51269l7.168-5.53516a.81055.81055,0,0,1,.38379-.19238,2.5162,2.5162,0,0,1,.416-.03223h2.81641a.76687.76687,0,0,1,.76758.76856v20.86328a.76687.76687,0,0,1-.76758.76855Z"/><path class="cls-3" d="M827.376,275.24316a.76687.76687,0,0,1-.76856-.76855v-3.168a.78237.78237,0,0,1,.22461-.57617.74136.74136,0,0,1,.54395-.22363h3.20019a.74451.74451,0,0,1,.54395.22363.78165.78165,0,0,1,.22363.57617v3.168a.76521.76521,0,0,1-.76758.76855Z"/><path class="cls-3" d="M843.21582,275.5625a12.26992,12.26992,0,0,1-3.87207-.54395,8.39085,8.39085,0,0,1-2.7041-1.42382,6.26087,6.26087,0,0,1-1.61621-1.91993,4.74384,4.74384,0,0,1-.57617-2.06347.57818.57818,0,0,1,.209-.46485.74442.74442,0,0,1,.49609-.17578h2.87891a1.09167,1.09167,0,0,1,.54492.12793,1.01328,1.01328,0,0,1,.38281.5127,2.84737,2.84737,0,0,0,.94532,1.376,3.93047,3.93047,0,0,0,1.51953.71973,7.76946,7.76946,0,0,0,1.82422.208,4.73964,4.73964,0,0,0,3.05566-.91211,3.15152,3.15152,0,0,0,1.13574-2.6084,2.79531,2.79531,0,0,0-1.05566-2.44726,5.01131,5.01131,0,0,0-2.94434-.752h-3.2959a.80824.80824,0,0,1-.57519-.208.72417.72417,0,0,1-.22461-.56054V263.083a1.06486,1.06486,0,0,1,.14453-.56055,2.07292,2.07292,0,0,1,.30274-.39941l5.72851-5.60059h-9.15234a.72619.72619,0,0,1-.55957-.22363.7637.7637,0,0,1-.208-.54395v-2.1123a.80726.80726,0,0,1,.208-.5752.72686.72686,0,0,1,.55957-.22461H850.0957a.7676.7676,0,0,1,.79981.79981v1.91992a1.01915,1.01915,0,0,1-.12793.5127,1.82478,1.82478,0,0,1-.28809.38378l-5.53613,5.69629.38477.03125a9.96023,9.96023,0,0,1,3.47167.88086,5.46351,5.46351,0,0,1,2.36817,2.09571,6.48992,6.48992,0,0,1,.84766,3.45605,6.13812,6.13812,0,0,1-1.13575,3.72754,7.216,7.216,0,0,1-3.12011,2.38379A11.66675,11.66675,0,0,1,843.21582,275.5625Z"/><path class="cls-3" d="M1012.85254,275.24316a1.027,1.027,0,0,1-.75195-.24023,2.11033,2.11033,0,0,1-.39942-.55957l-5.98437-14.84863a.77838.77838,0,0,1-.06446-.28809.71028.71028,0,0,1,.70411-.7041h2.59277a.74793.74793,0,0,1,.57519.208,1.17534,1.17534,0,0,1,.25684.40039l4.25586,11.23242,4.25586-11.23242a1.12816,1.12816,0,0,1,.25586-.40039.75025.75025,0,0,1,.57617-.208h2.62305a.64772.64772,0,0,1,.46484.208.67893.67893,0,0,1,.207.49609,1.46,1.46,0,0,1-.03125.28809l-6.01562,14.84863a1.55771,1.55771,0,0,1-.38477.55957,1.08606,1.08606,0,0,1-.76758.24023Z"/><path class="cls-3" d="M1039.41211,275.24316a.72756.72756,0,0,1-.56055-.22461.76707.76707,0,0,1-.207-.54394V257.89844l-4.86523,3.74414a.78254.78254,0,0,1-.57617.14453.8263.8263,0,0,1-.51172-.33594l-1.34375-1.72851a.84276.84276,0,0,1-.14453-.60743.73162.73162,0,0,1,.33691-.51269l7.168-5.53516a.81055.81055,0,0,1,.38379-.19238,2.5162,2.5162,0,0,1,.416-.03223h2.81641a.76687.76687,0,0,1,.76758.76856v20.86328a.76687.76687,0,0,1-.76758.76855Z"/><path class="cls-3" d="M1048.05176,275.24316a.76687.76687,0,0,1-.76856-.76855v-3.168a.78237.78237,0,0,1,.22461-.57617.74136.74136,0,0,1,.54395-.22363h3.20019a.74451.74451,0,0,1,.54395.22363.78165.78165,0,0,1,.22363.57617v3.168a.76521.76521,0,0,1-.76758.76855Z"/><path class="cls-3" d="M1063.8916,275.5625a10.0602,10.0602,0,0,1-4.73535-1.04,7.68538,7.68538,0,0,1-3.07227-2.81543,7.46415,7.46415,0,0,1-1.08789-3.98437,7.14151,7.14151,0,0,1,.25586-1.91993,9.63858,9.63858,0,0,1,.67188-1.75976q.416-.832.8164-1.48828a8.89043,8.89043,0,0,1,.71875-1.04l5.85645-8.03125a4.061,4.061,0,0,1,.38379-.40039.98918.98918,0,0,1,.70508-.24024h2.97461a.62494.62494,0,0,1,.48047.208.70219.70219,0,0,1,.19238.4961.61326.61326,0,0,1-.04785.24023.557.557,0,0,1-.11231.17578l-4.47949,6.208a2.8731,2.8731,0,0,1,.67187-.12793q.38379-.03224.70313-.03223a8.38071,8.38071,0,0,1,3.041.624,8.2281,8.2281,0,0,1,2.52734,1.61621,7.55307,7.55307,0,0,1,1.71191,2.40039,7.19542,7.19542,0,0,1,.624,3.00781,7.63485,7.63485,0,0,1-1.05567,3.91992,7.75224,7.75224,0,0,1-3.02441,2.89551A9.611,9.611,0,0,1,1063.8916,275.5625Zm-.03222-3.67969a4.77454,4.77454,0,0,0,2.1289-.47949,3.95589,3.95589,0,0,0,1.584-1.4082,4.127,4.127,0,0,0,.60742-2.30371,4.06665,4.06665,0,0,0-.60742-2.27246,3.96311,3.96311,0,0,0-1.584-1.40821,4.96367,4.96367,0,0,0-4.25683,0,3.95025,3.95025,0,0,0-1.584,1.40821,4.05906,4.05906,0,0,0-.6084,2.27246,4.11924,4.11924,0,0,0,.6084,2.30371,3.94309,3.94309,0,0,0,1.584,1.4082A4.76735,4.76735,0,0,0,1063.85938,271.88281Z"/><path class="cls-6" d="M1234.17188,275.24316a1.027,1.027,0,0,1-.752-.24023,2.13261,2.13261,0,0,1-.39941-.55957l-5.98438-14.84863a.77534.77534,0,0,1-.06347-.28809.70858.70858,0,0,1,.70312-.7041h2.59277a.74651.74651,0,0,1,.5752.208,1.16061,1.16061,0,0,1,.25684.40039l4.25586,11.23242,4.25585-11.23242a1.14225,1.14225,0,0,1,.25586-.40039.75027.75027,0,0,1,.57618-.208h2.624a.64732.64732,0,0,1,.46387.208.67987.67987,0,0,1,.208.49609,1.53793,1.53793,0,0,1-.03125.28809l-6.0166,14.84863a1.555,1.555,0,0,1-.38379.55957,1.08929,1.08929,0,0,1-.76757.24023Z"/><path class="cls-6" d="M1260.73145,275.24316a.72538.72538,0,0,1-.55957-.22461.76784.76784,0,0,1-.208-.54394V257.89844l-4.86426,3.74414a.78356.78356,0,0,1-.57617.14453.82378.82378,0,0,1-.51172-.33594l-1.34375-1.72851a.83811.83811,0,0,1-.14453-.60743.7303.7303,0,0,1,.33594-.51269l7.168-5.53516a.81344.81344,0,0,1,.38477-.19238,2.49924,2.49924,0,0,1,.416-.03223h2.81542a.76687.76687,0,0,1,.76856.76856v20.86328a.76687.76687,0,0,1-.76856.76855Z"/><path class="cls-6" d="M1269.37109,275.24316a.76687.76687,0,0,1-.76757-.76855v-3.168a.7785.7785,0,0,1,.22461-.57617.74069.74069,0,0,1,.543-.22363h3.20118a.74069.74069,0,0,1,.543.22363.78233.78233,0,0,1,.22461.57617v3.168a.76687.76687,0,0,1-.76757.76855Z"/><path class="cls-6" d="M1279.77148,275.24316a.62781.62781,0,0,1-.48046-.208.70725.70725,0,0,1-.19141-.4961.572.572,0,0,1,.04785-.25586c.03223-.06445.05762-.11718.08008-.16015l4.7041-6.4961a4.33564,4.33564,0,0,1-1.3125.12793,8.02121,8.02121,0,0,1-3.02344-.624,7.90407,7.90407,0,0,1-2.43261-1.59961,7.44551,7.44551,0,0,1-1.63184-2.33594,7.03531,7.03531,0,0,1-.5918-2.89648,7.70736,7.70736,0,0,1,.54395-2.832,7.5345,7.5345,0,0,1,4.30371-4.28809,10.059,10.059,0,0,1,3.792-.65625,10.78994,10.78994,0,0,1,3.77637.6084,7.76479,7.76479,0,0,1,2.73633,1.67969,7.16778,7.16778,0,0,1,1.66406,2.44824,7.657,7.657,0,0,1,.55957,2.91211,7.16173,7.16173,0,0,1-.44824,2.55957,10.56738,10.56738,0,0,1-1.10352,2.16016q-.65625.977-1.29687,1.90429l-5.63086,7.80762a5.17979,5.17979,0,0,1-.36914.40039.97636.97636,0,0,1-.71973.24023Zm3.83985-10.87988a4.43077,4.43077,0,0,0,2.0957-.49609,3.82065,3.82065,0,0,0,1.50391-1.40821,4.05048,4.05048,0,0,0,.56054-2.16015,4.11608,4.11608,0,0,0-.56054-2.19238,3.78972,3.78972,0,0,0-1.51953-1.40723,4.64163,4.64163,0,0,0-4.17578,0,3.81852,3.81852,0,0,0-1.50391,1.40723,4.10722,4.10722,0,0,0-.56055,2.19238,4.04168,4.04168,0,0,0,.56055,2.16015,3.81414,3.81414,0,0,0,1.50391,1.40821A4.43077,4.43077,0,0,0,1283.61133,264.36328Z"/><path class="cls-3" d="M1451.625,275.24316a1.02547,1.02547,0,0,1-.752-.24023,2.13551,2.13551,0,0,1-.40039-.55957l-5.98438-14.84863a.77835.77835,0,0,1-.06445-.28809.712.712,0,0,1,.70508-.7041h2.59179a.75172.75172,0,0,1,.57618.208,1.17087,1.17087,0,0,1,.25585.40039l4.25586,11.23242,4.25586-11.23242a1.1564,1.1564,0,0,1,.25586-.40039.75171.75171,0,0,1,.57617-.208h2.624a.64566.64566,0,0,1,.46387.208.67987.67987,0,0,1,.208.49609,1.46758,1.46758,0,0,1-.03222.28809l-6.01563,14.84863a1.55511,1.55511,0,0,1-.38379.55957,1.08707,1.08707,0,0,1-.76855.24023Z"/><path class="cls-3" d="M1471.52734,275.24316a.76687.76687,0,0,1-.76757-.76855v-1.63184a2.07324,2.07324,0,0,1,.14453-.6875,1.98486,1.98486,0,0,1,.65625-.8164l5.05468-5.02442q2.11231-1.6626,3.40821-2.83105a10.12223,10.12223,0,0,0,1.88867-2.14453,3.71224,3.71224,0,0,0,.5918-1.93555,3.41831,3.41831,0,0,0-.78418-2.33594,3.129,3.129,0,0,0-2.4795-.89648,3.59528,3.59528,0,0,0-1.88867.46387,3.31358,3.31358,0,0,0-1.19922,1.23242,5.19457,5.19457,0,0,0-.59179,1.69531.73994.73994,0,0,1-.35254.57617,1.16977,1.16977,0,0,1-.57617.16016h-2.84864a.64776.64776,0,0,1-.47949-.19238.61258.61258,0,0,1-.19238-.44727,7.27366,7.27366,0,0,1,.57617-2.67188,6.91344,6.91344,0,0,1,1.584-2.30468,7.8024,7.8024,0,0,1,2.54493-1.61524,8.97837,8.97837,0,0,1,3.3916-.6084,9.58989,9.58989,0,0,1,4.39941.89551,6.19223,6.19223,0,0,1,2.625,2.43262,6.83125,6.83125,0,0,1,.87891,3.456,6.58182,6.58182,0,0,1-.57617,2.76758,9.13238,9.13238,0,0,1-1.66407,2.43262,23.61373,23.61373,0,0,1-2.623,2.38379l-4.54492,4.60742h9.12109a.71692.71692,0,0,1,.76758.76856v2.27148a.76788.76788,0,0,1-.208.54394.72829.72829,0,0,1-.55957.22461Z"/><path class="cls-3" d="M1491.81543,275.24316a.76686.76686,0,0,1-.76855-.76855v-3.168a.78236.78236,0,0,1,.2246-.57617.74136.74136,0,0,1,.54395-.22363h3.2002a.74447.74447,0,0,1,.54394.22363.78165.78165,0,0,1,.22363.57617v3.168a.76521.76521,0,0,1-.76757.76855Z"/><path class="cls-3" d="M1507.84766,275.5625a9.97967,9.97967,0,0,1-3.87207-.67187,6.95782,6.95782,0,0,1-2.624-1.85547,7.905,7.905,0,0,1-1.53613-2.73633,12.77935,12.77935,0,0,1-.6084-3.31153q-.03222-.86425-.04687-1.90429-.01758-1.04,0-2.09571.01464-1.05615.04687-1.95214a11.215,11.215,0,0,1,.6084-3.3125,7.87327,7.87327,0,0,1,1.584-2.70411,7.29721,7.29721,0,0,1,2.63965-1.82324,11.204,11.204,0,0,1,7.64844,0,7.30107,7.30107,0,0,1,2.64063,1.82324,7.70061,7.70061,0,0,1,1.56738,2.70411,11.56481,11.56481,0,0,1,.59277,3.3125q.063.89648.06348,1.95214V265.083q0,1.04-.06348,1.90429a11.99947,11.99947,0,0,1-.57617,3.31153,7.92291,7.92291,0,0,1-1.53711,2.73633,6.94049,6.94049,0,0,1-2.63965,1.85547A10.1034,10.1034,0,0,1,1507.84766,275.5625Zm0-3.67969a3.50446,3.50446,0,0,0,3.05566-1.36035,6.374,6.374,0,0,0,1.00879-3.69531q.063-.92871.06348-1.87207v-1.9043q0-.95947-.06348-1.82422a6.41932,6.41932,0,0,0-1.00879-3.66406,3.47422,3.47422,0,0,0-3.05566-1.3916,3.4387,3.4387,0,0,0-3.02344,1.3916,6.58481,6.58481,0,0,0-1.041,3.66406q0,.86426-.01562,1.82422-.01758.96095,0,1.9043.01464.94335.01562,1.87207a6.45582,6.45582,0,0,0,1.05664,3.69531A3.47608,3.47608,0,0,0,1507.84766,271.88281Z"/></g><path class="cls-3" d="M1633.67188,275.17969a.86027.86027,0,0,1-.86426-.86524V250.87891a.87871.87871,0,0,1,.25195-.64844.84116.84116,0,0,1,.61231-.25195h10.44042a11.01881,11.01881,0,0,1,4.752.88281,6.01217,6.01217,0,0,1,2.71777,2.42969,7.15083,7.15083,0,0,1,.88184,3.59961,5.53446,5.53446,0,0,1-.48633,2.39453,5.36384,5.36384,0,0,1-1.1875,1.67382,6.5804,6.5804,0,0,1-1.38574,1.00782,6.359,6.359,0,0,1,2.4834,2.16015,6.027,6.027,0,0,1,1.08007,3.59961,7.60248,7.60248,0,0,1-.97168,3.85352,6.64354,6.64354,0,0,1-2.87988,2.64453,10.4724,10.4724,0,0,1-4.71582.95508Zm4.13964-14.86914h5.65235a3.979,3.979,0,0,0,2.8623-.918,3.1687,3.1687,0,0,0,.9541-2.39258,3.04451,3.04451,0,0,0-.9541-2.37695,4.14538,4.14538,0,0,0-2.8623-.86328h-5.65235Zm0,11.05273h6.0127a3.87816,3.87816,0,0,0,2.95215-1.0625,3.83324,3.83324,0,0,0-.01856-5.20117,3.932,3.932,0,0,0-2.93359-1.04492h-6.0127Z"/><path class="cls-3" d="M1665.56738,275.17969a.86027.86027,0,0,1-.86425-.86524V250.87891a.87871.87871,0,0,1,.25195-.64844.84116.84116,0,0,1,.6123-.25195h15.83985a.8631.8631,0,0,1,.90039.90039v2.377a.83514.83514,0,0,1-.252.61133.87869.87869,0,0,1-.64843.25195h-11.84375v6.37109h11.05175a.924.924,0,0,1,.64844.23438.82445.82445,0,0,1,.252.63086v2.23242a.82011.82011,0,0,1-.252.62891.91526.91526,0,0,1-.64844.23437h-11.05175v6.58789h12.13183a.8631.8631,0,0,1,.90039.90039v2.375a.83952.83952,0,0,1-.252.61328.87873.87873,0,0,1-.64844.252Z"/><path class="cls-3" d="M1695.15918,275.17969a.86029.86029,0,0,1-.86426-.86524V250.87891a.87872.87872,0,0,1,.252-.64844.84114.84114,0,0,1,.6123-.25195h9.64844a12.51253,12.51253,0,0,1,4.89551.88281,6.98836,6.98836,0,0,1,3.24023,2.66406,8.032,8.032,0,0,1,1.15234,4.44531,7.92682,7.92682,0,0,1-1.15234,4.44727,6.95443,6.95443,0,0,1-3.24023,2.60937,12.73835,12.73835,0,0,1-4.89551.86329h-5.36426v8.42382a.86861.86861,0,0,1-.23438.61328.81881.81881,0,0,1-.62988.252Zm4.21191-13.28516h5.25586a4.66739,4.66739,0,0,0,3.2041-.99023,3.712,3.712,0,0,0,1.11622-2.9336,4.0378,4.0378,0,0,0-1.04395-2.89843,4.34284,4.34284,0,0,0-3.27637-1.09766h-5.25586Z"/><path class="cls-3" d="M1734.93848,275.53906a12.50795,12.50795,0,0,1-5.66993-1.16992,8.18332,8.18332,0,0,1-3.54687-3.34766,11.68269,11.68269,0,0,1-1.36719-5.23828q-.03661-1.47656-.03613-3.168,0-1.69043.03613-3.24023a11.5861,11.5861,0,0,1,1.38574-5.2207,8.27581,8.27581,0,0,1,3.56348-3.36524,12.42424,12.42424,0,0,1,5.63477-1.16992,13.85892,13.85892,0,0,1,4.3916.64844,10.17413,10.17413,0,0,1,3.3125,1.78125,8.17662,8.17662,0,0,1,2.124,2.64648,7.58113,7.58113,0,0,1,.792,3.27539.61047.61047,0,0,1-.19824.541.80022.80022,0,0,1-.55859.21484h-3.41992a1.00959,1.00959,0,0,1-.64746-.19726,1.13885,1.13885,0,0,1-.36036-.666,4.95372,4.95372,0,0,0-1.97949-3.24023,6.55264,6.55264,0,0,0-3.49219-.86328,5.4031,5.4031,0,0,0-3.85254,1.34961,6.18793,6.18793,0,0,0-1.54785,4.44531q-.10839,2.95313,0,6.04883.1084,3.09668,1.54785,4.44531a5.40314,5.40314,0,0,0,3.85254,1.34961,6.54176,6.54176,0,0,0,3.50977-.88086,4.84919,4.84919,0,0,0,1.96191-3.22266.9118.9118,0,0,1,1.00782-.86328h3.41992a.80027.80027,0,0,1,.55859.21484.61048.61048,0,0,1,.19824.541,7.5811,7.5811,0,0,1-.792,3.27539,8.17665,8.17665,0,0,1-2.124,2.64649,10.1745,10.1745,0,0,1-3.3125,1.78125A13.85893,13.85893,0,0,1,1734.93848,275.53906Z"/><path class="cls-3" d="M1757.90625,275.17969a.83353.83353,0,0,1-.6123-.252.87869.87869,0,0,1-.252-.64843V250.87891a.8631.8631,0,0,1,.90039-.90039h3.24024a.82571.82571,0,0,1,.62988.25195.919.919,0,0,1,.2334.64844v16.52343l11.84473-16.84765a2.39615,2.39615,0,0,1,.3955-.377,1.01327,1.01327,0,0,1,.64844-.19921h2.98828a.84055.84055,0,0,1,.61133.25195.87871.87871,0,0,1,.25195.64844v23.43554a.86026.86026,0,0,1-.86328.86524h-3.24023a.87719.87719,0,0,1-.64844-.252.8357.8357,0,0,1-.252-.61328V258.11523l-11.80762,16.48829a2.563,2.563,0,0,1-.36035.35937,1.0124,1.0124,0,0,1-.6836.2168Z"/><path class="cls-3" d="M1792.46582,275.17969a.83353.83353,0,0,1-.6123-.252.87869.87869,0,0,1-.252-.64843V250.87891a.8631.8631,0,0,1,.90039-.90039h3.24024a.82571.82571,0,0,1,.62988.25195.919.919,0,0,1,.2334.64844v16.52343l11.84473-16.84765a2.39615,2.39615,0,0,1,.3955-.377,1.01327,1.01327,0,0,1,.64844-.19921h2.98828a.84055.84055,0,0,1,.61133.25195.87871.87871,0,0,1,.252.64844v23.43554a.86026.86026,0,0,1-.86328.86524h-3.24023a.87719.87719,0,0,1-.64844-.252.8357.8357,0,0,1-.252-.61328V258.11523l-11.80762,16.48829a2.563,2.563,0,0,1-.36035.35937,1.0124,1.0124,0,0,1-.6836.2168Z"/></g></svg>