<svg width="1200" height="1200" viewBox="0 0 1200 1200">
        <!-- Here our SVG elements will be added -->
    <path d="M 600 480 A 120 120 0 0 1 600 720 L 600 600 A 0 0 0 0 0 600 600 Z" fill="#AF6420"></path><a xlink:href="-"><text x="660" y="600" class="label-text">Dev | CapEx</text></a><path d="M 600 720 A 120 120 0 0 1 600 480 L 600 600 A 0 0 0 0 0 600 600 Z" fill="#549695"></path><a xlink:href="-"><text x="540" y="600" class="label-text">Ops | OpEx</text></a><path d="M 600 360 A 240 240 0 0 1 840 599.9999999999999 L 720 600 A 120 120 0 0 0 600 480 Z" fill="#392D75"></path><a xlink:href="-"><text x="727.2792206135786" y="472.72077938642144" class="label-text">Распределение</text></a><path d="M 840 599.9999999999999 A 240 240 0 0 1 600.0000000000001 840 L 600 720 A 120 120 0 0 0 720 600 Z" fill="#E59F13"></path><a xlink:href="-"><text x="727.2792206135786" y="727.2792206135786" class="label-text">Производство</text></a><path d="M 600.0000000000001 840 A 240 240 0 0 1 360 600.0000000000001 L 480 600 A 120 120 0 0 0 600 720 Z" fill="#9FC713"></path><a xlink:href="-"><text x="472.7207793864216" y="727.2792206135787" class="label-text">Обмен</text></a><path d="M 360 600.0000000000001 A 240 240 0 0 1 599.9999999999999 360 L 600 480 A 120 120 0 0 0 480 600 Z" fill="#0E759F"></path><a xlink:href="-"><text x="472.7207793864215" y="472.7207793864214" class="label-text">Потребление</text></a><path d="M 599.9999999999999 240 A 360 360 0 0 1 779.9999999999997 288.2308546376019 L 719.9999999999998 392.1539030917346 A 240 240 0 0 0 599.9999999999999 360 Z" fill="#602980"></path><a xlink:href="https://petaflops.guru/metod/12-etapov/formalizatsiya"><text x="677.645713530756" y="310.22225211327947" class="label-text">📝Формализация</text></a><path d="M 779.9999999999997 288.2308546376019 A 360 360 0 0 1 911.7691453623977 419.9999999999995 L 807.846096908265 479.99999999999966 A 240 240 0 0 0 719.9999999999998 392.1539030917346 Z" fill="#9C1A55"></path><a xlink:href="https://petaflops.guru/metod/12-etapov/proektirovanie"><text x="812.1320343559639" y="387.86796564403545" class="label-text">📐Проектирование</text></a><path d="M 911.7691453623977 419.9999999999995 A 360 360 0 0 1 960 599.9999999999992 L 840 599.9999999999994 A 240 240 0 0 0 807.846096908265 479.99999999999966 Z" fill="#C12020"></path><a xlink:href="https://petaflops.guru/metod/12-etapov/planirovanie"><text x="889.7777478867204" y="522.3542864692432" class="label-text">📅Планирование</text></a><path d="M 960 599.9999999999992 A 360 360 0 0 1 911.7691453623984 779.9999999999991 L 807.8460969082656 719.9999999999994 A 240 240 0 0 0 840 599.9999999999994 Z" fill="#D75020"></path><a xlink:href="https://petaflops.guru/metod/12-etapov/codirovanie"><text x="889.7777478867207" y="677.6457135307555" class="label-text">⌨️Кодирование</text></a><path d="M 911.7691453623984 779.9999999999991 A 360 360 0 0 1 780.0000000000011 911.7691453623972 L 720.0000000000007 807.8460969082648 A 240 240 0 0 0 807.8460969082656 719.9999999999994 Z" fill="#FA9C20"></path><a xlink:href="https://petaflops.guru/metod/12-etapov/sborka"><text x="812.132034355965" y="812.1320343559636" class="label-text">🔧 Сборка</text></a><path d="M 780.0000000000011 911.7691453623972 A 360 360 0 0 1 600.0000000000015 960 L 600.000000000001 840 A 240 240 0 0 0 720.0000000000007 807.8460969082648 Z" fill="#FFCC20"></path><a xlink:href="https://petaflops.guru/metod/12-etapov/ispitaniya"><text x="677.6457135307573" y="889.7777478867201" class="label-text">🐞Испытания</text></a><path d="M 600.0000000000015 960 A 360 360 0 0 1 420.0000000000015 911.7691453623988 L 480.00000000000097 807.8460969082658 A 240 240 0 0 0 600.000000000001 840 Z" fill="#FFEA20"></path><a xlink:href="https://petaflops.guru/metod/12-etapov/vipusk"><text x="522.354286469245" y="889.7777478867208" class="label-text">🚀 Выпуск</text></a><path d="M 420.0000000000015 911.7691453623988 A 360 360 0 0 1 288.23085463760304 780.0000000000017 L 392.1539030917354 720.0000000000011 A 240 240 0 0 0 480.00000000000097 807.8460969082658 Z" fill="#80BE00"></path><a xlink:href="https://petaflops.guru/metod/12-etapov/postavka"><text x="387.86796564403676" y="812.1320343559653" class="label-text">🚚 Поставка</text></a><path d="M 288.23085463760304 780.0000000000017 A 360 360 0 0 1 240 600.0000000000022 L 360 600.0000000000015 A 240 240 0 0 0 392.1539030917354 720.0000000000011 Z" fill="#12A050"></path><a xlink:href="https://petaflops.guru/metod/12-etapov/ekspluatatsiya"><text x="310.2222521132799" y="677.6457135307578" class="label-text">🤖 Эксплуатация</text></a><path d="M 240 600.0000000000022 A 360 360 0 0 1 288.2308546376012 420.0000000000015 L 392.15390309173415 480.000000000001 A 240 240 0 0 0 360 600.0000000000015 Z" fill="#1E72B0"></path><a xlink:href="https://petaflops.guru/metod/12-etapov/monitoring"><text x="310.222252113279" y="522.3542864692456" class="label-text">🖥️Мониторинг</text></a><path d="M 288.2308546376012 420.0000000000015 A 360 360 0 0 1 419.9999999999983 288.23085463760304 L 479.99999999999886 392.1539030917354 A 240 240 0 0 0 392.15390309173415 480.000000000001 Z" fill="#0150A0"></path><a xlink:href="https://petaflops.guru/metod/12-etapov/obuchenie"><text x="387.86796564403505" y="387.8679656440364" class="label-text">📚 Обучение</text></a><path d="M 419.9999999999983 288.23085463760304 A 360 360 0 0 1 599.9999999999978 240 L 599.9999999999985 360 A 240 240 0 0 0 479.99999999999886 392.1539030917354 Z" fill="#342D90"></path><a xlink:href="https://petaflops.guru/metod/12-etapov/otzivi"><text x="522.3542864692427" y="310.2222521132798" class="label-text">✍️ Отзывы</text></a><path d="M 599.9999999999972 120 A 480 480 0 0 1 1015.6921938165287 359.99999999999704 L 911.7691453623966 419.9999999999977 A 360 360 0 0 0 599.9999999999978 240 Z" fill="#7C4087"></path><a xlink:href="-"><text x="809.9999999999976" y="236.2693304105344" class="label-text">🌟Перспективы</text></a><path d="M 1015.6921938165287 359.99999999999704 A 480 480 0 0 1 1015.6921938165326 839.9999999999965 L 911.7691453623995 779.9999999999974 A 360 360 0 0 0 911.7691453623966 419.9999999999977 Z" fill="#D63420"></path><a xlink:href="-"><text x="1020" y="599.9999999999967" class="label-text">📌Задачи</text></a><path d="M 1015.6921938165326 839.9999999999965 A 480 480 0 0 1 600.0000000000047 1080 L 600.0000000000035 960 A 360 360 0 0 0 911.7691453623995 779.9999999999974 Z" fill="#FFB71F"></path><a xlink:href="-"><text x="810.0000000000033" y="963.7306695894624" class="label-text">🎖️Реагирование</text></a><path d="M 600.0000000000047 1080 A 480 480 0 0 1 184.3078061834721 840.0000000000045 L 288.23085463760407 780.0000000000034 A 360 360 0 0 0 600.0000000000035 960 Z" fill="#FFD710"></path><a xlink:href="-"><text x="390.00000000000375" y="963.7306695894664" class="label-text">🕒 Сроки</text></a><path d="M 184.3078061834721 840.0000000000045 A 480 480 0 0 1 184.30780618346654 360.000000000005 L 288.2308546375999 420.00000000000375 A 360 360 0 0 0 288.23085463760407 780.0000000000034 Z" fill="#149C78"></path><a xlink:href="-"><text x="180" y="600.0000000000049" class="label-text">🔄Обновления</text></a><path d="M 184.30780618346654 360.000000000005 A 480 480 0 0 1 599.9999999999936 120 L 599.9999999999952 240 A 360 360 0 0 0 288.2308546375999 420.00000000000375 Z" fill="#1B3CA4"></path><a xlink:href="-"><text x="389.9999999999954" y="236.26933041053843" class="label-text">🚦Качество</text></a><path d="M 599.999999999992 0 A 600 600 0 0 1 1119.6152422706668 899.9999999999936 L 1015.6921938165335 839.9999999999949 A 480 480 0 0 0 599.9999999999936 120 Z" fill="#602980"></path><a xlink:href="-"><text x="1067.653718043593" y="329.9999999999932" class="label-text">📉Дешевле</text></a><path d="M 1119.6152422706668 899.9999999999936 A 600 600 0 0 1 80.38475772934021 900.0000000000058 L 184.30780618347217 840.0000000000047 A 480 480 0 0 0 1015.6921938165335 839.9999999999949 Z" fill="#FA9C20"></path><a xlink:href="-"><text x="600.0000000000073" y="1140" class="label-text">🏆Быстрее</text></a><path d="M 80.38475772934021 900.0000000000058 A 600 600 0 0 1 599.999999999994 0 L 599.9999999999952 120 A 480 480 0 0 0 184.30780618347217 840.0000000000047 Z" fill="#1E72B0"></path><a xlink:href="-"><text x="132.34628195639982" y="330.0000000000058" class="label-text">💎Лучше</text></a></svg>