<svg width="340" height="340" xmlns="http://www.w3.org/2000/svg">
    <!-- Внутренний круг: 3 доли -->
    <path d="M170,170 L170,50 A50,50 0 0,1 292.38,170" fill="#602980"/>
    <path d="M170,170 L292.38,170 A50,50 0 0,1 47.62,170" fill="#FA9C20"/>
    <path d="M170,170 L47.62,170 A50,50 0 0,1 170,50" fill="#1E72B0"/>

    <!-- Второй слой: 6 долей -->
    <path d="M170,170 L292.38,170 A70,70 0 0,1 266.03,111.28" fill="#7C4087"/>
    <path d="M170,170 L266.03,111.28 A70,70 0 0,1 229.03,52.56" fill="#D63420"/>
    <path d="M170,170 L229.03,52.56 A70,70 0 0,1 111.03,52.56" fill="#FFB71F"/>
    <path d="M170,170 L111.03,52.56 A70,70 0 0,1 74.03,111.28" fill="#FFD710"/>
    <path d="M170,170 L74.03,111.28 A70,70 0 0,1 47.62,170" fill="#149C78"/>
    <path d="M170,170 L47.62,170 A70,70 0 0,1 74.03,228.72" fill="#1B3CA4"/>

    <!-- Третий слой: 12 долей (для простоты показаны только первые две доли) -->
    <path d="M170,170 L292.38,170 A90,90 0 0,1 281.86,143.54" fill="#602980"/>
    <path d="M170,170 L281.86,143.54 A90,90 0 0,1 271.34,117.08" fill="#9C1A55"/>
    <!-- ... продолжите для всех долей этого слоя ... -->

    <!-- Четвёртый слой: 4 доли (для простоты показаны только первые две доли) -->
    <path d="M170,170 L292.38,170 A110,110 0 0,1 265.15,82.06" fill="#392D75"/>
    <path d="M170,170 L265.15,82.06 A110,110 0 0,1 170,60" fill="#E59F13"/>
    <!-- ... продолжите для всех долей этого слоя ... -->

    <!-- Внешний слой: 2 доли -->
    <path d="M170,170 L292.38,170 A130,130 0 0,1 231.38,50" fill="#AF6420"/>
    <path d="M170,170 L231.38,50 A130,130 0 0,1 108.62,50" fill="#549695"/>

</svg>