<svg id="main_diagram" width="1200" height="1200" viewBox="0 0 1200 1200">
    <path d="M 600 480 A 120 120 0 0 1 703.9230484541326 660 L 600 600 A 0 0 0 0 0 600 600 Z" fill="#602980"></path><path d="M 703.9230484541326 660 A 120 120 0 0 1 496.07695154586736 660 L 600 600 A 0 0 0 0 0 600 600 Z" fill="#FA9C20"></path><path d="M 496.07695154586736 660 A 120 120 0 0 1 600 480 L 600 600 A 0 0 0 0 0 600 600 Z" fill="#1E72B0"></path><path d="M 600 360 A 240 240 0 0 1 807.8460969082653 479.9999999999999 L 703.9230484541326 540 A 120 120 0 0 0 600 480 Z" fill="#7C4087"></path><path d="M 807.8460969082653 479.9999999999999 A 240 240 0 0 1 807.8460969082654 719.9999999999998 L 703.9230484541326 659.9999999999999 A 120 120 0 0 0 703.9230484541326 540 Z" fill="#D63420"></path><path d="M 807.8460969082654 719.9999999999998 A 240 240 0 0 1 600.0000000000003 840 L 600.0000000000001 720 A 120 120 0 0 0 703.9230484541326 659.9999999999999 Z" fill="#FFB71F"></path><path d="M 600.0000000000003 840 A 240 240 0 0 1 392.1539030917349 720.0000000000003 L 496.0769515458675 660.0000000000001 A 120 120 0 0 0 600.0000000000001 720 Z" fill="#FFD710"></path><path d="M 392.1539030917349 720.0000000000003 A 240 240 0 0 1 392.1539030917346 480.0000000000002 L 496.0769515458673 540.0000000000001 A 120 120 0 0 0 496.0769515458675 660.0000000000001 Z" fill="#149C78"></path><path d="M 392.1539030917346 480.0000000000002 A 240 240 0 0 1 599.9999999999999 360 L 600 480 A 120 120 0 0 0 496.0769515458673 540.0000000000001 Z" fill="#1B3CA4"></path><path d="M 599.9999999999999 240 A 360 360 0 0 1 779.9999999999997 288.2308546376019 L 719.9999999999998 392.1539030917346 A 240 240 0 0 0 599.9999999999999 360 Z" fill="#6E3888"></path><path d="M 779.9999999999997 288.2308546376019 A 360 360 0 0 1 911.7691453623977 419.9999999999995 L 807.846096908265 479.99999999999966 A 240 240 0 0 0 719.9999999999998 392.1539030917346 Z" fill="#A52A5A"></path><path d="M 911.7691453623977 419.9999999999995 A 360 360 0 0 1 960 599.9999999999992 L 840 599.9999999999994 A 240 240 0 0 0 807.846096908265 479.99999999999966 Z" fill="#B23528"></path><path d="M 960 599.9999999999992 A 360 360 0 0 1 911.7691453623984 779.9999999999991 L 807.8460969082656 719.9999999999994 A 240 240 0 0 0 840 599.9999999999994 Z" fill="#E85E40"></path><path d="M 911.7691453623984 779.9999999999991 A 360 360 0 0 1 780.0000000000011 911.7691453623972 L 720.0000000000007 807.8460969082648 A 240 240 0 0 0 807.8460969082656 719.9999999999994 Z" fill="#F8991B"></path><path d="M 780.0000000000011 911.7691453623972 A 360 360 0 0 1 600.0000000000015 960 L 600.000000000001 840 A 240 240 0 0 0 720.0000000000007 807.8460969082648 Z" fill="#FFD700"></path><path d="M 600.0000000000015 960 A 360 360 0 0 1 420.0000000000015 911.7691453623988 L 480.00000000000097 807.8460969082658 A 240 240 0 0 0 600.000000000001 840 Z" fill="#E9E05C"></path><path d="M 420.0000000000015 911.7691453623988 A 360 360 0 0 1 288.23085463760304 780.0000000000017 L 392.1539030917354 720.0000000000011 A 240 240 0 0 0 480.00000000000097 807.8460969082658 Z" fill="#8A9A34"></path><path d="M 288.23085463760304 780.0000000000017 A 360 360 0 0 1 240 600.0000000000022 L 360 600.0000000000015 A 240 240 0 0 0 392.1539030917354 720.0000000000011 Z" fill="#31B067"></path><path d="M 240 600.0000000000022 A 360 360 0 0 1 288.2308546376012 420.0000000000015 L 392.15390309173415 480.000000000001 A 240 240 0 0 0 360 600.0000000000015 Z" fill="#2D78B5"></path><path d="M 288.2308546376012 420.0000000000015 A 360 360 0 0 1 419.9999999999983 288.23085463760304 L 479.99999999999886 392.1539030917354 A 240 240 0 0 0 392.15390309173415 480.000000000001 Z" fill="#186BAA"></path><path d="M 419.9999999999983 288.23085463760304 A 360 360 0 0 1 599.9999999999978 240 L 599.9999999999985 360 A 240 240 0 0 0 479.99999999999886 392.1539030917354 Z" fill="#25319D"></path><path d="M 599.9999999999972 120 A 480 480 0 0 1 1080 599.9999999999962 L 960 599.9999999999972 A 360 360 0 0 0 599.9999999999978 240 Z" fill="#392D75"></path><path d="M 1080 599.9999999999962 A 480 480 0 0 1 600.000000000003 1080 L 600.0000000000022 960 A 360 360 0 0 0 960 599.9999999999972 Z" fill="#E59F13"></path><path d="M 600.000000000003 1080 A 480 480 0 0 1 120 600.0000000000022 L 240 600.0000000000016 A 360 360 0 0 0 600.0000000000022 960 Z" fill="#9FC713"></path><path d="M 120 600.0000000000022 A 480 480 0 0 1 599.9999999999987 120 L 599.999999999999 240 A 360 360 0 0 0 240 600.0000000000016 Z" fill="#0E759F"></path><path d="M 599.9999999999984 0 A 600 600 0 0 1 600.0000000000017 1200 L 600.0000000000014 1080 A 480 480 0 0 0 599.9999999999987 120 Z" fill="#AF6420"></path><path d="M 600.0000000000017 1200 A 600 600 0 0 1 599.9999999999982 0 L 599.9999999999986 120 A 480 480 0 0 0 600.0000000000014 1080 Z" fill="#549695"></path>
</svg>