<svg xmlns="http://www.w3.org/2000/svg" xmlns:xlink="http://www.w3.org/1999/xlink" viewBox="0 0 1920 1080"><defs><style>.cls-1{fill:none;}.cls-2{fill:#262626;}.cls-3{fill:#d3d3d3;}.cls-4{fill:#99c453;}.cls-5{fill:#de754a;}.cls-6{fill:#b3b3b3;}.cls-7{clip-path:url(#clip-path);}.cls-8{fill:#cf475e;}</style><clipPath id="clip-path"><rect class="cls-1" x="158" y="305" width="1435" height="615"/></clipPath></defs><g id="Слой_5" data-name="Слой 5"><rect class="cls-2" x="-0.38462" y="-0.46154" width="1920" height="1080"/><path class="cls-3" d="M75.81836,500.1665a.86024.86024,0,0,1-.86328-.86425V475.8667a.87873.87873,0,0,1,.252-.64844.83517.83517,0,0,1,.61133-.25195H92.30664a.82444.82444,0,0,1,.63086.25195.91529.91529,0,0,1,.23438.64844v2.51953a.86631.86631,0,0,1-.23438.61231.821.821,0,0,1-.63086.252H79.959v5.75976h6.084a9.35126,9.35126,0,0,1,6.37109,2.01661,6.89492,6.89492,0,0,1,2.30469,5.47168,7.576,7.576,0,0,1-.55859,2.8623,7.32878,7.32878,0,0,1-1.63672,2.46582,7.72159,7.72159,0,0,1-2.70117,1.71,10.396,10.396,0,0,1-3.7793.62988Zm4.14062-3.8164h5.58008a4.19092,4.19092,0,0,0,2.19532-.54,3.59112,3.59112,0,0,0,1.36914-1.43945,4.16741,4.16741,0,0,0,.46679-1.94434,3.63245,3.63245,0,0,0-1.00781-2.62793,4.02239,4.02239,0,0,0-3.02344-1.04395H79.959Z"/><path class="cls-3" d="M72.59766,550.166a.74672.74672,0,0,1-.52149-.21582.705.705,0,0,1-.23437-.54.87121.87121,0,0,1,.07226-.32422l8.67578-23.21924a1.33948,1.33948,0,0,1,.41407-.62988,1.23041,1.23041,0,0,1,.8457-.27051h3.92383a1.16681,1.16681,0,0,1,.82812.27051,1.73834,1.73834,0,0,1,.43164.62988L95.709,549.08594a1.72778,1.72778,0,0,1,.03711.32422.73248.73248,0,0,1-.21679.54.694.694,0,0,1-.50391.21582H91.89258a.99646.99646,0,0,1-.73633-.23438,1.1822,1.1822,0,0,1-.30664-.44922l-1.69141-4.39258H78.46484l-1.6914,4.39258a1.20523,1.20523,0,0,1-.30664.44922,1.0046,1.0046,0,0,1-.73828.23438Zm7.12695-9.21582h8.17187L83.793,529.82666Z"/><path class="cls-3" d="M90.07422,600.166a.86025.86025,0,0,1-.86328-.86426V579.46582h-7.8125V584.002a51.86073,51.86073,0,0,1-.44922,7.37989,15.37313,15.37313,0,0,1-1.459,4.95019,6.5835,6.5835,0,0,1-2.73437,2.80762,9.722,9.722,0,0,1-4.32031.99023.74962.74962,0,0,1-.63086-.2334.86672.86672,0,0,1-.26953-.63085v-2.69922q0-.75586.82812-.86426a3.19874,3.19874,0,0,0,1.85352-1.00781,6.5309,6.5309,0,0,0,1.29687-2.33985,17.80907,17.80907,0,0,0,.77344-3.76269,47.66848,47.66848,0,0,0,.252-5.23731v-7.52441a.86025.86025,0,0,1,.86328-.86426H93.31445a.86309.86309,0,0,1,.90039.90039v23.43555a.83354.83354,0,0,1-.25195.6123.87872.87872,0,0,1-.64844.252Z"/><path class="cls-3" d="M72.59766,650.166a.74672.74672,0,0,1-.52149-.21582.705.705,0,0,1-.23437-.54.87121.87121,0,0,1,.07226-.32422l8.67578-23.21973a1.33957,1.33957,0,0,1,.41407-.62988,1.23041,1.23041,0,0,1,.8457-.27051h3.92383a1.16681,1.16681,0,0,1,.82812.27051,1.73851,1.73851,0,0,1,.43164.62988L95.709,649.08594a1.72778,1.72778,0,0,1,.03711.32422.73248.73248,0,0,1-.21679.54.694.694,0,0,1-.50391.21582H91.89258a.99646.99646,0,0,1-.73633-.23438,1.1822,1.1822,0,0,1-.30664-.44922l-1.69141-4.39258H78.46484l-1.6914,4.39258a1.20523,1.20523,0,0,1-.30664.44922,1.0046,1.0046,0,0,1-.73828.23438Zm7.12695-9.21582h8.17187l-4.10351-11.124Z"/><path class="cls-3" d="M74.36133,700.166a.86437.86437,0,0,1-.61328-.23438.81593.81593,0,0,1-.252-.62988V675.86621a.87873.87873,0,0,1,.252-.64844.83954.83954,0,0,1,.61328-.25195h3.27539a.82444.82444,0,0,1,.63086.25195.92273.92273,0,0,1,.23242.64844v9.28809H89.12109v-9.28809a.87873.87873,0,0,1,.252-.64844.83515.83515,0,0,1,.61133-.25195h3.24023a.86309.86309,0,0,1,.90039.90039v23.43555a.83354.83354,0,0,1-.25195.6123.87873.87873,0,0,1-.64844.252H89.98438a.86027.86027,0,0,1-.86329-.86426V689.6543H78.5v9.64746a.87322.87322,0,0,1-.23242.6123.821.821,0,0,1-.63086.252Z"/><path class="cls-3" d="M84.02734,750.52637a12.51091,12.51091,0,0,1-5.66992-1.16992,8.18539,8.18539,0,0,1-3.54687-3.34864,11.69515,11.69515,0,0,1-1.36719-5.23828q-.03516-1.4751-.03516-3.168,0-1.69042.03516-3.23926a11.58269,11.58269,0,0,1,1.38672-5.2207,8.273,8.273,0,0,1,3.5625-3.36523,12.41122,12.41122,0,0,1,5.63476-1.16992,13.86588,13.86588,0,0,1,4.39258.64746,10.19579,10.19579,0,0,1,3.3125,1.78222,8.17008,8.17008,0,0,1,2.123,2.64551,7.60358,7.60358,0,0,1,.793,3.27637.60676.60676,0,0,1-.19922.54.79678.79678,0,0,1-.55859.21582H90.4707a1.00529,1.00529,0,0,1-.64648-.19824,1.13946,1.13946,0,0,1-.36133-.666,4.94437,4.94437,0,0,0-1.97851-3.23926,6.55753,6.55753,0,0,0-3.49219-.86426,5.4099,5.4099,0,0,0-3.85352,1.34961A6.19293,6.19293,0,0,0,78.5918,734.542q-.10841,2.95167,0,6.04785.10839,3.09669,1.54687,4.44629a5.40986,5.40986,0,0,0,3.85352,1.34961,6.538,6.538,0,0,0,3.50976-.88183,4.846,4.846,0,0,0,1.96094-3.22168.913.913,0,0,1,1.00781-.86426h3.41993a.79674.79674,0,0,1,.55859.21582.6077.6077,0,0,1,.19922.54,7.59677,7.59677,0,0,1-.793,3.27637,8.17,8.17,0,0,1-2.123,2.6455,10.19581,10.19581,0,0,1-3.3125,1.78223A13.8651,13.8651,0,0,1,84.02734,750.52637Z"/><path class="cls-3" d="M1633.19336,624.17969a.87719.87719,0,0,1-.64844-.252.8357.8357,0,0,1-.252-.61328V599.87891a.86309.86309,0,0,1,.90039-.90039h2.84375a.97983.97983,0,0,1,.75586.27148,2.07677,2.07677,0,0,1,.32422.41406l6.94824,12.959,7.01953-12.959a2.07677,2.07677,0,0,1,.32422-.41406.97983.97983,0,0,1,.75586-.27148h2.80859a.863.863,0,0,1,.89942.90039v23.43554a.83571.83571,0,0,1-.252.61328.87645.87645,0,0,1-.64746.252h-3.02441a.81737.81737,0,0,1-.62988-.252.86861.86861,0,0,1-.23438-.61328V607.72656l-5.04,9.61328a1.88675,1.88675,0,0,1-.46777.55664,1.16154,1.16154,0,0,1-.75586.23438h-1.47559a1.14513,1.14513,0,0,1-.77441-.23438,2.03982,2.03982,0,0,1-.4502-.55664l-5.04-9.61328v15.58789a.86026.86026,0,0,1-.86328.86524Z"/><path class="cls-3" d="M1669.55273,624.17969a.86027.86027,0,0,1-.86425-.86524V599.87891a.87871.87871,0,0,1,.252-.64844.84116.84116,0,0,1,.6123-.25195h15.83985a.86309.86309,0,0,1,.90039.90039v2.37695a.83517.83517,0,0,1-.252.61133.87873.87873,0,0,1-.64844.25195h-11.84375v6.37109h11.05176a.924.924,0,0,1,.64843.23438.82441.82441,0,0,1,.252.63086v2.23242a.82007.82007,0,0,1-.252.62891.91526.91526,0,0,1-.64843.23437h-11.05176v6.58789h12.13183a.8631.8631,0,0,1,.90039.90039v2.375a.83952.83952,0,0,1-.252.61328.87872.87872,0,0,1-.64844.252Z"/><path class="cls-3" d="M1708.001,624.53906a12.50795,12.50795,0,0,1-5.66993-1.16992,8.18332,8.18332,0,0,1-3.54687-3.34766,11.68269,11.68269,0,0,1-1.36719-5.23828q-.03661-1.47656-.03613-3.168,0-1.69042.03613-3.24023a11.5861,11.5861,0,0,1,1.38574-5.2207,8.27581,8.27581,0,0,1,3.56348-3.36524,12.42424,12.42424,0,0,1,5.63477-1.16992,13.85892,13.85892,0,0,1,4.3916.64844,10.17413,10.17413,0,0,1,3.3125,1.78125,8.17662,8.17662,0,0,1,2.124,2.64648,7.58113,7.58113,0,0,1,.792,3.27539.61047.61047,0,0,1-.19824.541.80022.80022,0,0,1-.55859.21484h-3.41992a1.00959,1.00959,0,0,1-.64746-.19726,1.13885,1.13885,0,0,1-.36036-.666,4.95372,4.95372,0,0,0-1.97949-3.24023,6.55264,6.55264,0,0,0-3.49219-.86328,5.4031,5.4031,0,0,0-3.85254,1.34961,6.18793,6.18793,0,0,0-1.54785,4.44531q-.10839,2.95313,0,6.04883.1084,3.09667,1.54785,4.44531a5.40314,5.40314,0,0,0,3.85254,1.34961,6.54176,6.54176,0,0,0,3.50977-.88086,4.84919,4.84919,0,0,0,1.96191-3.22266.9118.9118,0,0,1,1.00782-.86328h3.41992a.80027.80027,0,0,1,.55859.21484.61048.61048,0,0,1,.19824.541,7.5811,7.5811,0,0,1-.792,3.27539,8.17665,8.17665,0,0,1-2.124,2.64649,10.1745,10.1745,0,0,1-3.3125,1.78125A13.85893,13.85893,0,0,1,1708.001,624.53906Z"/><path class="cls-3" d="M1730.46387,624.17969a.688.688,0,0,1-.50391-.2168.731.731,0,0,1-.21582-.53906.90417.90417,0,0,1,.10742-.39649l5.94043-9.68359,4.752.791-5.36426,9.07226a3.43093,3.43093,0,0,1-.52149.666,1.24377,1.24377,0,0,1-.918.30664Zm14.40039,0a.89312.89312,0,0,1-.62988-.252.80652.80652,0,0,1-.27051-.61328v-8.24414h-5.292a9.76764,9.76764,0,0,1-4.42774-.95312,6.91951,6.91951,0,0,1-2.95215-2.73633,8.97482,8.97482,0,0,1-.03613-8.334,7.49148,7.49148,0,0,1,3.00586-2.95118,10.033,10.033,0,0,1,4.95019-1.11718h8.89161a.82792.82792,0,0,1,.63086.25195.87211.87211,0,0,1,.23339.61328v23.4707a.87208.87208,0,0,1-.23339.61328.821.821,0,0,1-.63086.252Zm-5.43653-13.17578h4.53614v-8.0293h-4.53614a3.80678,3.80678,0,0,0-2.96972,1.16992,4.30472,4.30472,0,0,0-1.0625,3.00586,3.83423,3.83423,0,0,0,1.00879,2.86328A4.14983,4.14983,0,0,0,1739.42773,611.00391Z"/><path class="cls-3" d="M1780.93555,629.21875a.81738.81738,0,0,1-.62989-.25195.86394.86394,0,0,1-.23437-.61133v-4.17578h-17.3877a.83355.83355,0,0,1-.6123-.252.87869.87869,0,0,1-.252-.64843V599.84375a.821.821,0,0,1,.252-.63086.86627.86627,0,0,1,.6123-.23437H1765.96a.82571.82571,0,0,1,.62988.25195.87208.87208,0,0,1,.2334.61328v19.83594h10.62012V599.84375a.86025.86025,0,0,1,.86426-.86523h3.24023a.88414.88414,0,0,1,.64746.25195.83574.83574,0,0,1,.252.61328v19.83594h1.72851a.87646.87646,0,0,1,.64746.25195.83224.83224,0,0,1,.25293.61133v7.8125a.83226.83226,0,0,1-.25293.61133.87646.87646,0,0,1-.64746.25195Z"/><path class="cls-3" d="M1797.13574,624.17969a.86029.86029,0,0,1-.86426-.86524v-23.4707a.86027.86027,0,0,1,.86426-.86523h3.27637a.82571.82571,0,0,1,.62988.25195.87208.87208,0,0,1,.2334.61328v8.24414h3.99609a9.903,9.903,0,0,1,6.624,1.99805,7.35277,7.35277,0,0,1,2.34082,5.92187,8.71682,8.71682,0,0,1-.99024,4.13867,7.09986,7.09986,0,0,1-2.98828,2.95313,10.40767,10.40767,0,0,1-4.98633,1.08008Zm4.13965-3.9961h3.81641a3.75406,3.75406,0,0,0,2.95215-1.16992,4.40173,4.40173,0,0,0,1.04394-3.043,3.83458,3.83458,0,0,0-1.02637-2.916,4.1541,4.1541,0,0,0-2.96972-.97071h-3.81641Zm16.9209,3.9961a.86027.86027,0,0,1-.86426-.86524v-23.4707a.86025.86025,0,0,1,.86426-.86523h3.38379a.82571.82571,0,0,1,.62988.25195.87294.87294,0,0,1,.23438.61328v23.4707a.87291.87291,0,0,1-.23438.61328.81881.81881,0,0,1-.62988.252Z"/><path class="cls-3" d="M206.7207,191.1792a.86024.86024,0,0,1-.86425-.86426V166.87939a.8787.8787,0,0,1,.25195-.64843.83732.83732,0,0,1,.6123-.252h9.64844a12.51292,12.51292,0,0,1,4.89551.88184,6.99416,6.99416,0,0,1,3.24023,2.66406,8.03765,8.03765,0,0,1,1.15235,4.44629,7.92562,7.92562,0,0,1-1.15235,4.44629,6.94853,6.94853,0,0,1-3.24023,2.60938,12.738,12.738,0,0,1-4.89551.86425h-5.36426v8.42383a.86628.86628,0,0,1-.23437.61231.81884.81884,0,0,1-.62988.252Zm4.21192-13.28418h5.25586a4.67229,4.67229,0,0,0,3.2041-.99023,3.7148,3.7148,0,0,0,1.11621-2.9336,4.03621,4.03621,0,0,0-1.04395-2.89844,4.339,4.339,0,0,0-3.27636-1.09765h-5.25586Z"/><path class="cls-3" d="M244.08887,184.87939l-9.61231-17.748a.84386.84386,0,0,1-.10742-.36035.73251.73251,0,0,1,.252-.55762.78.78,0,0,1,.54-.23438h3.52735a.95791.95791,0,0,1,.55859.16211,1.12694,1.12694,0,0,1,.37793.52246l7.0918,13.24805Zm-5.58008,6.29981a.86024.86024,0,0,1-.86426-.86426v-2.66406a.87649.87649,0,0,1,.25195-.64746.83355.83355,0,0,1,.61231-.252h1.332a3.44875,3.44875,0,0,0,1.79981-.45019,4.47867,4.47867,0,0,0,1.40429-1.44043,15.94957,15.94957,0,0,0,1.2959-2.53809l6.876-15.65918a1.06415,1.06415,0,0,1,.3955-.52246,1.03958,1.03958,0,0,1,.57618-.16211h3.34863a.75358.75358,0,0,1,.52148.21582.6674.6674,0,0,1,.23438.50391,1.36053,1.36053,0,0,1-.03613.32422,1.42183,1.42183,0,0,1-.1084.28809l-7.23535,16.52441q-.90089,1.98046-1.69239,3.36621a9.70974,9.70974,0,0,1-1.72851,2.26758,5.77429,5.77429,0,0,1-2.21387,1.2959,10.04153,10.04153,0,0,1-3.07812.41406Z"/><path class="cls-3" d="M267.12793,191.1792a.86026.86026,0,0,1-.86426-.86426V166.87939a.87871.87871,0,0,1,.252-.64843.8373.8373,0,0,1,.6123-.252h16.48828a.82223.82223,0,0,1,.62988.252.91526.91526,0,0,1,.23438.64843v2.51954a.86628.86628,0,0,1-.23438.6123.8188.8188,0,0,1-.62988.25195H271.26758V176.023h6.085a9.353,9.353,0,0,1,6.37109,2.0166,6.898,6.898,0,0,1,2.30469,5.47168,7.59475,7.59475,0,0,1-.55859,2.86231,7.33149,7.33149,0,0,1-1.6377,2.46582,7.70855,7.70855,0,0,1-2.70019,1.71,10.396,10.396,0,0,1-3.7793.62988Zm4.13965-3.81641h5.58008a4.192,4.192,0,0,0,2.19629-.54,3.58853,3.58853,0,0,0,1.36816-1.43945,4.15639,4.15639,0,0,0,.46777-1.94434,3.63241,3.63241,0,0,0-1.00781-2.62792,4.02474,4.02474,0,0,0-3.02441-1.04395h-5.58008Z"/><path class="cls-3" d="M313.459,191.1792a.86025.86025,0,0,1-.86328-.86426V170.479h-7.8125v4.53614a51.70272,51.70272,0,0,1-.45019,7.37988,15.35021,15.35021,0,0,1-1.458,4.95019,6.58006,6.58006,0,0,1-2.73535,2.80762,9.72205,9.72205,0,0,1-4.32031.99024.74775.74775,0,0,1-.62989-.2334.8678.8678,0,0,1-.2705-.63086v-2.69922q0-.75586.82812-.86426a3.20408,3.20408,0,0,0,1.85449-1.00781,6.51536,6.51536,0,0,0,1.2959-2.33984,17.86577,17.86577,0,0,0,.77442-3.7627,47.91281,47.91281,0,0,0,.252-5.2373v-7.52442a.86025.86025,0,0,1,.86328-.86426h15.91211a.8631.8631,0,0,1,.90039.90039v23.43555a.83735.83735,0,0,1-.25195.61231.87876.87876,0,0,1-.64844.252Z"/><path class="cls-3" d="M331.2793,191.1792a.83358.83358,0,0,1-.61231-.252.87718.87718,0,0,1-.252-.64844V166.87939a.8631.8631,0,0,1,.90039-.90039h3.24023a.82224.82224,0,0,1,.62989.252.919.919,0,0,1,.2334.64843v16.52344l11.84472-16.84765a2.39771,2.39771,0,0,1,.39551-.37793,1.01857,1.01857,0,0,1,.64844-.19825h2.98828a.8367.8367,0,0,1,.61133.252.8787.8787,0,0,1,.25195.64843v23.43555a.86024.86024,0,0,1-.86328.86426h-3.24024a.87721.87721,0,0,1-.64843-.252.83355.83355,0,0,1-.252-.61231V174.11475L335.34766,190.603a2.50824,2.50824,0,0,1-.36036.36035,1.01708,1.01708,0,0,1-.68359.21582Z"/><g id="Линии"><rect class="cls-4" x="704.66699" y="305" width="8" height="615"/><rect class="cls-5" x="925.33301" y="911" width="8" height="9"/><path class="cls-5" d="M933.333,885.043h-8V867.07324h8Zm0-43.92676h-8V823.14648h8Zm0-43.92578h-8V779.2207h8Zm0-43.92676h-8V735.294h8Zm0-43.92676h-8V691.36719h8Zm0-43.92578h-8V647.44141h8Zm0-43.92675h-8V603.51465h8Zm0-43.92676h-8V559.58789h8Zm0-43.92627h-8V515.66162h8Zm0-43.92627h-8V471.73535h8Zm0-43.92627h-8V427.80859h8Zm0-43.92627h-8V383.88232h8Zm0-43.92676h-8V339.95605h8Z"/><rect class="cls-5" x="925.33301" y="305" width="8" height="9"/><rect class="cls-4" x="1477" y="911" width="8" height="9"/><path class="cls-4" d="M1485,885.043h-8V867.07324h8Zm0-43.92676h-8V823.14648h8Zm0-43.92578h-8V779.2207h8Zm0-43.92676h-8V735.294h8Zm0-43.92676h-8V691.36719h8Zm0-43.92578h-8V647.44141h8Zm0-43.92675h-8V603.51465h8Zm0-43.92676h-8V559.58789h8Zm0-43.92627h-8V515.66162h8Zm0-43.92627h-8V471.73535h8Zm0-43.92627h-8V427.80859h8Zm0-43.92627h-8V383.88232h8Zm0-43.92676h-8V339.95605h8Z"/><rect class="cls-4" x="1477" y="305" width="8" height="9"/><rect class="cls-6" x="375.66699" y="916" width="4" height="4"/><path class="cls-6" d="M379.667,891.71973h-4V883.626h4Zm0-32.37305h-4v-8.09375h4Zm0-32.374h-4v-8.09278h4Zm0-32.37305h-4v-8.09277h4Zm0-32.37305h-4v-8.09375h4Zm0-32.373h-4v-8.09375h4Zm0-32.374h-4v-8.09277h4Zm0-32.373h-4V657.0127h4Zm0-32.37305h-4v-8.09375h4Zm0-32.374h-4V592.2666h4Zm0-32.37305h-4v-8.09375h4Zm0-32.373h-4v-8.09375h4Zm0-32.37353h-4v-8.09327h4Zm0-32.37354h-4V462.773h4Zm0-32.37305h-4V430.3999h4Zm0-32.37353h-4v-8.09326h4Zm0-32.373h-4v-8.09326h4Zm0-32.37353h-4v-8.09326h4Z"/><rect class="cls-6" x="375.66699" y="305" width="4" height="4"/><path class="cls-6" d="M600.333,920h-4v-8h4Zm0-32h-4v-8h4Zm0-32h-4v-8h4Zm0-32h-4v-8h4Zm0-32h-4v-8h4Zm0-32h-4v-8h4Zm0-32h-4v-8h4Zm0-32h-4v-8h4Zm0-32h-4v-8h4Zm0-32h-4v-8h4Zm0-32h-4v-8h4Zm0-32h-4v-8h4Zm0-32h-4v-8h4Zm0-32h-4v-8h4Zm0-32h-4v-8h4Zm0-32h-4v-8h4Zm0-32h-4v-8h4Zm0-32h-4v-8h4Zm0-32h-4v-8h4Zm0-32h-4v-7h4Z"/><rect class="cls-3" x="155" y="199.24219" width="4" height="720.75781"/><polygon class="cls-3" points="157 171 173.262 210.797 157 201.354 140.742 210.797 157 171"/></g><g class="cls-7"><polygon class="cls-8" points="929.905 883.469 927.582 882.686 151.082 620.686 154.918 609.314 929.095 870.531 1555.388 567.599 1560.612 578.401 929.905 883.469"/></g><circle class="cls-4" cx="708.5" cy="963" r="50"/><path class="cls-2" d="M674.07031,976.50391a.80594.80594,0,0,1-.59375-.23047.76584.76584,0,0,1-.23047-.56055V954.24316a.78957.78957,0,0,1,.82422-.82421h2.60547a.90121.90121,0,0,1,.69238.24707,1.9232,1.9232,0,0,1,.29688.3789l6.36523,11.873,6.43067-11.873a1.92305,1.92305,0,0,1,.29687-.3789.90123.90123,0,0,1,.69239-.24707h2.57226a.79108.79108,0,0,1,.8252.82421v21.46973a.76673.76673,0,0,1-.23145.56055.80593.80593,0,0,1-.59375.23047h-2.76953a.75032.75032,0,0,1-.57715-.23047.79231.79231,0,0,1-.21484-.56055V961.43262l-4.61719,8.80566a1.75393,1.75393,0,0,1-.42871.51074,1.06119,1.06119,0,0,1-.69238.21485h-1.35157a1.04923,1.04923,0,0,1-.71-.21485,1.89958,1.89958,0,0,1-.41211-.51074l-4.61621-8.80566v14.28027a.78855.78855,0,0,1-.792.791Z"/><path class="cls-2" d="M709.19238,976.50391a1.19884,1.19884,0,0,1-.82422-.26368,1.49144,1.49144,0,0,1-.42871-.66015l-7.05761-21.17188a.80708.80708,0,0,1-.06543-.29687.67434.67434,0,0,1,.69238-.69238h2.90234a.95922.95922,0,0,1,.709.24707,1.16293,1.16293,0,0,1,.3125.47851l5.57422,16.9834,5.57324-16.9834a1.1564,1.1564,0,0,1,.31347-.47851.9562.9562,0,0,1,.709-.24707h2.90137a.69018.69018,0,0,1,.47851.19726.6485.6485,0,0,1,.21485.49512.81037.81037,0,0,1-.06641.29687l-7.05762,21.17188a1.49144,1.49144,0,0,1-.42871.66015,1.19711,1.19711,0,0,1-.82422.26368Z"/><path class="cls-2" d="M727.958,976.50391a.7869.7869,0,0,1-.792-.791V954.24316a.80747.80747,0,0,1,.23046-.59375.76646.76646,0,0,1,.56153-.23046h8.83789a11.47744,11.47744,0,0,1,4.48535.80761A6.40537,6.40537,0,0,1,744.249,956.667a7.36273,7.36273,0,0,1,1.05567,4.07324,7.25632,7.25632,0,0,1-1.05567,4.07227,6.37078,6.37078,0,0,1-2.96777,2.3916,11.68424,11.68424,0,0,1-4.48535.791h-4.91406v7.71777a.79573.79573,0,0,1-.21387.56055.75322.75322,0,0,1-.57715.23047Zm3.8584-12.16895h4.81445a4.281,4.281,0,0,0,2.93555-.90723,3.40709,3.40709,0,0,0,1.02246-2.6875,3.69466,3.69466,0,0,0-.957-2.65527,3.97434,3.97434,0,0,0-3.001-1.00586h-4.81445Z"/><rect class="cls-3" x="158" y="610.5" width="1406.75781" height="4"/><polygon class="cls-3" points="1593 612.5 1553.203 628.762 1562.646 612.5 1553.203 596.242 1593 612.5"/><g id="Месяцы"><rect class="cls-3" x="242" y="587.5" width="50" height="50"/><path class="cls-2" d="M268.31445,622.75684a.65483.65483,0,0,1-.50488-.20215.69321.69321,0,0,1-.18848-.49121V607.09863l-4.39062,3.38086a.71335.71335,0,0,1-.52051.12989.74274.74274,0,0,1-.46191-.30372l-1.21289-1.55957a.75921.75921,0,0,1-.13086-.54882.66147.66147,0,0,1,.30371-.46289l6.4707-4.99708a.7412.7412,0,0,1,.34668-.17382,2.37777,2.37777,0,0,1,.376-.0293h2.542a.69184.69184,0,0,1,.69336.69336v18.83594a.69021.69021,0,0,1-.69336.69336Z"/><rect class="cls-3" x="352.36364" y="587.5" width="50" height="50"/><path class="cls-2" d="M370.415,622.75684a.69021.69021,0,0,1-.69336-.69336v-1.47364a1.90833,1.90833,0,0,1,.12988-.62109,1.80243,1.80243,0,0,1,.59278-.73633l4.56445-4.53515q1.90576-1.50294,3.07617-2.55664a9.1644,9.1644,0,0,0,1.70508-1.93555,3.36268,3.36268,0,0,0,.53418-1.748,3.08879,3.08879,0,0,0-.708-2.10937,2.82608,2.82608,0,0,0-2.23926-.8086,3.23921,3.23921,0,0,0-1.7041.41895,3.0021,3.0021,0,0,0-1.083,1.1123,4.72844,4.72844,0,0,0-.53418,1.53125.66639.66639,0,0,1-.31836.51953,1.05684,1.05684,0,0,1-.51953.14454h-2.57129a.58809.58809,0,0,1-.43359-.17286.556.556,0,0,1-.17285-.40527,6.572,6.572,0,0,1,.51953-2.41211,6.24393,6.24393,0,0,1,1.42969-2.08008,7.043,7.043,0,0,1,2.29687-1.458,8.10371,8.10371,0,0,1,3.0625-.5498,8.6531,8.6531,0,0,1,3.97168.80957,5.57669,5.57669,0,0,1,2.36914,2.19531,6.16871,6.16871,0,0,1,.79493,3.12012,5.955,5.955,0,0,1-.52051,2.499,8.27756,8.27756,0,0,1-1.502,2.19532,21.2819,21.2819,0,0,1-2.36914,2.15234l-4.10156,4.16016h8.23242a.64645.64645,0,0,1,.69336.69336v2.05078a.69666.69666,0,0,1-.1875.49121.657.657,0,0,1-.50586.20215Z"/><rect class="cls-3" x="462.72727" y="587.5" width="50" height="50"/><path class="cls-2" d="M487.6123,623.0459a11.09129,11.09129,0,0,1-3.49511-.49121,7.58567,7.58567,0,0,1-2.44141-1.28516,5.65326,5.65326,0,0,1-1.459-1.7334,4.26972,4.26972,0,0,1-.51953-1.86328.518.518,0,0,1,.1875-.41894.66748.66748,0,0,1,.44726-.15918h2.60059a.98767.98767,0,0,1,.49121.11523.92033.92033,0,0,1,.34668.46289,2.55783,2.55783,0,0,0,.85156,1.24219,3.55465,3.55465,0,0,0,1.37207.64941,6.98123,6.98123,0,0,0,1.64746.1875,4.28365,4.28365,0,0,0,2.75879-.82324,2.84347,2.84347,0,0,0,1.02539-2.35449,2.525,2.525,0,0,0-.95312-2.21,4.525,4.525,0,0,0-2.65821-.67871h-2.97558a.73154.73154,0,0,1-.51953-.1875.65355.65355,0,0,1-.20215-.50586V611.7793a.96315.96315,0,0,1,.12988-.50586,1.83229,1.83229,0,0,1,.27441-.36133l5.1709-5.05566h-8.26269a.65143.65143,0,0,1-.50489-.20215.68917.68917,0,0,1-.1875-.49121v-1.90625a.72894.72894,0,0,1,.1875-.51954.65549.65549,0,0,1,.50489-.20312h12.39355a.694.694,0,0,1,.72266.72266v1.73339a.91159.91159,0,0,1-.11621.46192,1.60739,1.60739,0,0,1-.25977.34668l-4.99707,5.14258.3457.02832a8.98879,8.98879,0,0,1,3.13477.79492,4.928,4.928,0,0,1,2.1377,1.89258,5.8479,5.8479,0,0,1,.76562,3.11914,5.54345,5.54345,0,0,1-1.02539,3.36621,6.52065,6.52065,0,0,1-2.81641,2.15234A10.54444,10.54444,0,0,1,487.6123,623.0459Z"/><rect class="cls-3" x="573.09091" y="587.5" width="50" height="50"/><path class="cls-2" d="M600.085,622.75684a.69021.69021,0,0,1-.69336-.69336v-3.69727h-9.1582a.65207.65207,0,0,1-.50488-.20312.68925.68925,0,0,1-.18848-.49024V615.708a1.54275,1.54275,0,0,1,.07226-.41895,1.22022,1.22022,0,0,1,.2461-.44824l8.52246-11.81543a1.26574,1.26574,0,0,1,1.06836-.49121h3.14941a.69184.69184,0,0,1,.69336.69336V614.957h2.57031a.7261.7261,0,0,1,.53516.1875.68561.68561,0,0,1,.1875.50586v2.02246a.69184.69184,0,0,1-.69336.69336H603.292v3.69727a.69021.69021,0,0,1-.69336.69336Zm-6.5293-7.68457h5.92286v-8.34864Z"/><rect class="cls-4" x="683.45455" y="587.5" width="50" height="50"/><path class="cls-2" d="M708.34082,623.07422a9.57938,9.57938,0,0,1-4.18848-.82324,6.27323,6.27323,0,0,1-2.58593-2.15235,5.41039,5.41039,0,0,1-.93848-2.83105.45094.45094,0,0,1,.1582-.41895.67245.67245,0,0,1,.44825-.1582h2.68652a1.01888,1.01888,0,0,1,.53418.12988.82825.82825,0,0,1,.333.44727,3.60915,3.60915,0,0,0,.82324,1.416,3.28278,3.28278,0,0,0,1.24219.8086,4.447,4.447,0,0,0,3.37988-.15821,3.31685,3.31685,0,0,0,1.37207-1.25683,3.81805,3.81805,0,0,0,.51953-2.05176,3.40139,3.40139,0,0,0-.49023-1.84863,3.46506,3.46506,0,0,0-1.34375-1.22754,4.12894,4.12894,0,0,0-1.9502-.44824,3.73454,3.73454,0,0,0-1.3291.20215,3.96787,3.96787,0,0,0-.88086.46289c-.24121.17285-.45215.32714-.63574.46191a1.01947,1.01947,0,0,1-.6211.20215H702.2168a.64022.64022,0,0,1-.63575-.63574l1.01075-9.87989a.78985.78985,0,0,1,.80957-.78027h10.8623a.69182.69182,0,0,1,.69238.69336v1.93555a.69018.69018,0,0,1-.69238.69336h-8.34961l-.46191,4.709a6.70962,6.70962,0,0,1,1.38672-.66406,7.20429,7.20429,0,0,1,2.39746-.31739,7.83226,7.83226,0,0,1,2.64355.44727,6.95868,6.95868,0,0,1,2.23926,1.2998,6.13627,6.13627,0,0,1,1.54492,2.05176,6.33741,6.33741,0,0,1,.56348,2.72949,6.73631,6.73631,0,0,1-.98242,3.66895A6.60278,6.60278,0,0,1,712.501,622.208,9.324,9.324,0,0,1,708.34082,623.07422Z"/><rect class="cls-3" x="793.81818" y="587.5" width="50" height="50"/><path class="cls-2" d="M818.97852,623.0459a9.0796,9.0796,0,0,1-4.27539-.93945,6.94054,6.94054,0,0,1-2.77344-2.542,6.74162,6.74162,0,0,1-.98242-3.59668,6.443,6.443,0,0,1,.23144-1.73339,8.64451,8.64451,0,0,1,.60645-1.58887q.375-.75.73632-1.34278a7.93819,7.93819,0,0,1,.6504-.93945l5.28613-7.251a3.7598,3.7598,0,0,1,.34668-.36132.89308.89308,0,0,1,.63574-.2168H822.127a.56581.56581,0,0,1,.4336.18848.63781.63781,0,0,1,.17285.44726.53707.53707,0,0,1-.043.2168.51325.51325,0,0,1-.10059.15918l-4.04492,5.60449a2.63354,2.63354,0,0,1,.60645-.11621q.34716-.02783.63574-.02832a7.55036,7.55036,0,0,1,2.74414.56348,7.39442,7.39442,0,0,1,2.28223,1.459,6.81229,6.81229,0,0,1,1.5459,2.166,6.4917,6.4917,0,0,1,.56347,2.71582,6.90155,6.90155,0,0,1-.95312,3.53906,7.00351,7.00351,0,0,1-2.73047,2.61426A8.676,8.676,0,0,1,818.97852,623.0459Zm-.0293-3.32227a4.28881,4.28881,0,0,0,1.9209-.43359,3.56456,3.56456,0,0,0,1.43066-1.27051,3.72345,3.72345,0,0,0,.54883-2.08008,3.66877,3.66877,0,0,0-.54883-2.05175,3.55735,3.55735,0,0,0-1.43066-1.27051,4.47171,4.47171,0,0,0-3.8418,0,3.54845,3.54845,0,0,0-1.42969,1.27051,3.66094,3.66094,0,0,0-.54883,2.05175,3.71558,3.71558,0,0,0,.54883,2.08008,3.55563,3.55563,0,0,0,1.42969,1.27051A4.28878,4.28878,0,0,0,818.94922,619.72363Z"/><rect class="cls-5" x="904.18182" y="587.5" width="50" height="50"/><path class="cls-2" d="M925.52734,622.75684a.56431.56431,0,0,1-.43261-.1875.63509.63509,0,0,1-.17383-.44825.72232.72232,0,0,1,.05762-.25976l6.96289-15.88867h-9.07129a.657.657,0,0,1-.50586-.20215.69666.69666,0,0,1-.1875-.49121v-2.02246a.7332.7332,0,0,1,.1875-.51954.65764.65764,0,0,1,.50586-.20312h12.68164a.65765.65765,0,0,1,.50586.20312.7332.7332,0,0,1,.1875.51954v1.791a2.71824,2.71824,0,0,1-.07227.67871,4.69912,4.69912,0,0,1-.1875.56348l-6.9043,15.77344a1.75235,1.75235,0,0,1-.30371.44824.78508.78508,0,0,1-.62109.24512Z"/><rect class="cls-3" x="1014.54545" y="587.5" width="50" height="50"/><path class="cls-2" d="M1039.5459,623.0459a11.60054,11.60054,0,0,1-3.40918-.46192,7.36543,7.36543,0,0,1-2.52734-1.30078,5.64091,5.64091,0,0,1-1.56055-1.96386,5.78848,5.78848,0,0,1-.53418-2.51368,5.09343,5.09343,0,0,1,.82324-2.90332,5.52636,5.52636,0,0,1,2.15234-1.89257,4.75732,4.75732,0,0,1-1.66113-1.70411,4.822,4.822,0,0,1-.5918-2.42675,5.09428,5.09428,0,0,1,.85157-2.93164,5.68523,5.68523,0,0,1,2.48437-1.9795,11.363,11.363,0,0,1,7.93067-.01464,5.51021,5.51021,0,0,1,2.45507,1.96484,5.1627,5.1627,0,0,1,.8379,2.93262,4.90583,4.90583,0,0,1-.57813,2.42578,4.95566,4.95566,0,0,1-1.61719,1.7334,5.10088,5.10088,0,0,1,2.167,1.89257,5.30845,5.30845,0,0,1,.8086,2.93262,5.64946,5.64946,0,0,1-.93945,3.2207,6.19717,6.19717,0,0,1-2.74415,2.19532A10.7638,10.7638,0,0,1,1039.5459,623.0459Zm0-3.00488a5.13015,5.13015,0,0,0,2.03711-.38965,3.44105,3.44105,0,0,0,1.44433-1.11231,3.00861,3.00861,0,0,0,0-3.42285,3.49354,3.49354,0,0,0-1.44433-1.09863,5.51988,5.51988,0,0,0-4.07422,0,3.48726,3.48726,0,0,0-1.44434,1.09863,3.00861,3.00861,0,0,0,0,3.42285,3.435,3.435,0,0,0,1.44434,1.11231A5.13015,5.13015,0,0,0,1039.5459,620.041Zm0-9.27344a4.68637,4.68637,0,0,0,1.748-.375,3.21473,3.21473,0,0,0,1.2705-.95313,2.22469,2.22469,0,0,0,.47657-1.416,2.43278,2.43278,0,0,0-.44727-1.459,2.94358,2.94358,0,0,0-1.24219-.96777,4.8757,4.8757,0,0,0-3.61133,0,2.93758,2.93758,0,0,0-1.24218.96777,2.4262,2.4262,0,0,0-.44727,1.459,2.36177,2.36177,0,0,0,.44727,1.44433,2.97933,2.97933,0,0,0,1.24218.95313A4.46456,4.46456,0,0,0,1039.5459,610.76758Z"/><rect class="cls-3" x="1124.90909" y="587.5" width="50" height="50"/><path class="cls-2" d="M1146.31348,622.75684a.56786.56786,0,0,1-.4336-.1875.63851.63851,0,0,1-.17285-.44825.52716.52716,0,0,1,.043-.23046c.0293-.0586.05273-.10645.07227-.14454l4.24707-5.86523a3.9133,3.9133,0,0,1-1.18457.11621,7.27822,7.27822,0,0,1-2.73047-.56348,7.14719,7.14719,0,0,1-2.19532-1.44433,6.71625,6.71625,0,0,1-1.47363-2.10938,6.341,6.341,0,0,1-.53418-2.61425,6.9777,6.9777,0,0,1,.49121-2.55665,6.79948,6.79948,0,0,1,3.88575-3.87109,9.06948,9.06948,0,0,1,3.42285-.5918,9.73341,9.73341,0,0,1,3.40918.54883,6.989,6.989,0,0,1,2.46972,1.5166,6.449,6.449,0,0,1,1.50293,2.21,6.926,6.926,0,0,1,.50489,2.62891,6.47389,6.47389,0,0,1-.4043,2.31055,9.5073,9.5073,0,0,1-.9961,1.95019q-.59325.88184-1.16992,1.71875l-5.085,7.04883a4.58883,4.58883,0,0,1-.332.36133.88335.88335,0,0,1-.65039.2168Zm3.46679-9.82227a4.00314,4.00314,0,0,0,1.89258-.44727,3.455,3.455,0,0,0,1.35742-1.27148,3.65488,3.65488,0,0,0,.50586-1.95019,3.71121,3.71121,0,0,0-.50586-1.97852,3.42959,3.42959,0,0,0-1.37207-1.27148,4.19676,4.19676,0,0,0-3.7705,0,3.44852,3.44852,0,0,0-1.35743,1.27148,3.7113,3.7113,0,0,0-.50586,1.97852,3.655,3.655,0,0,0,.50586,1.95019,3.44852,3.44852,0,0,0,1.35743,1.27148A4.00307,4.00307,0,0,0,1149.78027,612.93457Z"/><rect class="cls-3" x="1235.27273" y="587.5" width="50" height="50"/><path class="cls-2" d="M1251.374,622.75684a.65483.65483,0,0,1-.50488-.20215.69321.69321,0,0,1-.18848-.49121V607.09863l-4.39062,3.38086a.71335.71335,0,0,1-.52051.12989.74274.74274,0,0,1-.46191-.30372l-1.21289-1.55957a.75921.75921,0,0,1-.13086-.54882.66147.66147,0,0,1,.30371-.46289l6.4707-4.99708a.7412.7412,0,0,1,.34668-.17382,2.37777,2.37777,0,0,1,.376-.0293h2.542a.69184.69184,0,0,1,.69336.69336v18.83594a.69021.69021,0,0,1-.69336.69336Z"/><path class="cls-2" d="M1267.667,623.0459a9.0111,9.0111,0,0,1-3.49511-.60645,6.29178,6.29178,0,0,1-2.36915-1.67578,7.14488,7.14488,0,0,1-1.38671-2.46972,11.48122,11.48122,0,0,1-.54883-2.99024q-.0293-.78077-.04395-1.71875-.01464-.939,0-1.89258t.04395-1.76269a10.06183,10.06183,0,0,1,.54883-2.98926,7.09555,7.09555,0,0,1,1.42968-2.44141,6.58363,6.58363,0,0,1,2.38379-1.64648,8.84817,8.84817,0,0,1,3.4375-.60645,8.94038,8.94038,0,0,1,3.4668.60645,6.58792,6.58792,0,0,1,2.38281,1.64648,6.93,6.93,0,0,1,1.416,2.44141,10.44357,10.44357,0,0,1,.53418,2.98926q.05712.81006.05761,1.76269V613.585q0,.939-.05761,1.71875a10.7867,10.7867,0,0,1-.51953,2.99024,7.17667,7.17667,0,0,1-1.38672,2.46972,6.28583,6.28583,0,0,1-2.38379,1.67578A9.1298,9.1298,0,0,1,1267.667,623.0459Zm0-3.32227a3.16519,3.16519,0,0,0,2.75879-1.22754,5.767,5.767,0,0,0,.91016-3.33691q.05712-.83789.05761-1.69043V611.75c0-.57715-.01953-1.12695-.05761-1.64648a5.80135,5.80135,0,0,0-.91016-3.30762,3.62517,3.62517,0,0,0-5.48926,0,5.95118,5.95118,0,0,0-.93847,3.30762c0,.51953-.00489,1.06933-.01465,1.64648q-.01466.8672,0,1.71875.01464.85254.01465,1.69043a5.8341,5.8341,0,0,0,.95312,3.33691A3.14134,3.14134,0,0,0,1267.667,619.72363Z"/><rect class="cls-3" x="1345.63636" y="587.5" width="50" height="50"/><path class="cls-2" d="M1364.541,622.75684a.65483.65483,0,0,1-.50489-.20215.69325.69325,0,0,1-.18847-.49121V607.09863l-4.39063,3.38086a.71335.71335,0,0,1-.52051.12989.74277.74277,0,0,1-.46191-.30372l-1.21289-1.55957a.75921.75921,0,0,1-.13086-.54882.6615.6615,0,0,1,.30371-.46289l6.4707-4.99708a.7412.7412,0,0,1,.34668-.17382,2.37777,2.37777,0,0,1,.376-.0293h2.542a.69184.69184,0,0,1,.69336.69336v18.83594a.69021.69021,0,0,1-.69336.69336Z"/><path class="cls-2" d="M1379.36035,622.75684a.65483.65483,0,0,1-.50488-.20215.69321.69321,0,0,1-.18848-.49121V607.09863l-4.39062,3.38086a.71335.71335,0,0,1-.52051.12989.74274.74274,0,0,1-.46191-.30372l-1.2129-1.55957a.7592.7592,0,0,1-.13085-.54882.66144.66144,0,0,1,.30371-.46289l6.4707-4.99708a.74116.74116,0,0,1,.34668-.17382,2.37777,2.37777,0,0,1,.376-.0293h2.542a.69184.69184,0,0,1,.69336.69336v18.83594a.69021.69021,0,0,1-.69336.69336Z"/><rect class="cls-4" x="1456" y="587.5" width="50" height="50"/><path class="cls-2" d="M1472.65137,622.75684a.65483.65483,0,0,1-.50489-.20215.69325.69325,0,0,1-.18847-.49121V607.09863l-4.39063,3.38086a.71334.71334,0,0,1-.5205.12989.74276.74276,0,0,1-.46192-.30372l-1.21289-1.55957a.75921.75921,0,0,1-.13086-.54882.6615.6615,0,0,1,.30371-.46289l6.47071-4.99708a.74117.74117,0,0,1,.34667-.17382,2.378,2.378,0,0,1,.376-.0293h2.542a.69184.69184,0,0,1,.69336.69336v18.83594a.69021.69021,0,0,1-.69336.69336Z"/><path class="cls-2" d="M1481.46191,622.75684a.69021.69021,0,0,1-.69336-.69336v-1.47364a1.90812,1.90812,0,0,1,.12989-.62109,1.80239,1.80239,0,0,1,.59277-.73633l4.56445-4.53515q1.90576-1.50294,3.07618-2.55664a9.16432,9.16432,0,0,0,1.70507-1.93555,3.36268,3.36268,0,0,0,.53418-1.748,3.08879,3.08879,0,0,0-.708-2.10937,2.82609,2.82609,0,0,0-2.23926-.8086,3.23916,3.23916,0,0,0-1.7041.41895,3.002,3.002,0,0,0-1.083,1.1123,4.728,4.728,0,0,0-.53418,1.53125.66639.66639,0,0,1-.31836.51953,1.05687,1.05687,0,0,1-.51953.14454h-2.57129a.58806.58806,0,0,1-.43359-.17286.556.556,0,0,1-.17286-.40527,6.57223,6.57223,0,0,1,.51954-2.41211,6.2439,6.2439,0,0,1,1.42968-2.08008,7.04309,7.04309,0,0,1,2.29688-1.458,8.10367,8.10367,0,0,1,3.0625-.5498,8.65315,8.65315,0,0,1,3.97168.80957,5.5768,5.5768,0,0,1,2.36914,2.19531,6.16871,6.16871,0,0,1,.79492,3.12012,5.955,5.955,0,0,1-.52051,2.499,8.27751,8.27751,0,0,1-1.50195,2.19532,21.2828,21.2828,0,0,1-2.36914,2.15234l-4.10156,4.16016h8.23242a.64645.64645,0,0,1,.69336.69336v2.05078a.69666.69666,0,0,1-.1875.49121.657.657,0,0,1-.50586.20215Z"/></g><g id="Версии"><path class="cls-3" d="M387.11719,256.60547c-.24024,2.59961-.52051,8.63818-.52051,13.23779,0,2.23926.68066,2.99951,1.83984,2.95947l-.28027,3.4795a6.10744,6.10744,0,0,1-1.71875.23974c-2,0-3.43945-1.15967-3.7998-3.79931h-.12012a7.17,7.17,0,0,1-6.43945,3.79931c-4.5586,0-8.03809-3.83935-8.03809-9.79834,0-6.439,4.31934-10.5581,8.79785-10.5581a5.91069,5.91069,0,0,1,5.59961,3.39941h.16016c.11914-1.19971.27929-2.11963.40039-2.95947Zm-9.71875,15.99707c2.08008,0,3.79883-1.99951,4.31933-4.19922a13.58619,13.58619,0,0,0,.15918-2.27978,9.34981,9.34981,0,0,0-.11914-1.8794c-.40039-2.35986-2-4.2793-4.11914-4.2793-2.75976,0-4.59961,2.8794-4.59961,6.59864C373.03906,269.84326,374.71875,272.60254,377.39844,272.60254Z"/><path class="cls-3" d="M593.61914,274.44238v2.4795a37.65575,37.65575,0,0,0,.47949,7.07861h-4.55957c-.51953-1.19971-.67968-4.0791-.67968-6.83887V259.20508c0-5.6792,1.44042-8.15869,3.08007-9.71875a8.645,8.645,0,0,1,6.15821-2.23926c4.55957,0,7.51953,3.0791,7.51953,7.11865a6.935,6.935,0,0,1-3.35938,6.11914v.19971a7.34028,7.34028,0,0,1,5.59864,7.479,8.0938,8.0938,0,0,1-8.39844,8.3584,7.95969,7.95969,0,0,1-5.75879-2.07959Zm0-4.19922a5.71838,5.71838,0,0,0,4.67871,2.55957,4.49246,4.49246,0,0,0,4.59961-4.75927c0-3.2793-2.28027-4.999-5.19922-5.15918h-.96v-3.11963a3.93368,3.93368,0,0,0,.67969-.08008,4.2361,4.2361,0,0,0,3.71973-4.519c0-2.43946-1.36036-4.0791-3.39942-4.0791-2.59961,0-4.11914,2.19921-4.11914,7.31836Z"/><path class="cls-4" d="M682.12012,273.24219a1.02706,1.02706,0,0,1-.752-.24024,2.09466,2.09466,0,0,1-.39941-.55957l-5.98437-14.84814a.78043.78043,0,0,1-.06446-.28809.71028.71028,0,0,1,.7041-.7041h2.59278a.74618.74618,0,0,1,.57519.208,1.16926,1.16926,0,0,1,.25684.3999l4.25586,11.23242L687.56055,257.21a1.12251,1.12251,0,0,1,.25586-.3999.74849.74849,0,0,1,.57617-.208h2.62305a.64586.64586,0,0,1,.46484.208.67737.67737,0,0,1,.207.49609,1.46457,1.46457,0,0,1-.03125.28809l-6.01562,14.84814a1.54923,1.54923,0,0,1-.38477.55957,1.08606,1.08606,0,0,1-.76758.24024Z"/><path class="cls-4" d="M708.67969,273.24219a.72727.72727,0,0,1-.56055-.22412.76876.76876,0,0,1-.207-.54395V255.898l-4.86523,3.74414a.78212.78212,0,0,1-.57618.144.8223.8223,0,0,1-.51172-.33593l-1.34375-1.728a.844.844,0,0,1-.14453-.60791.73074.73074,0,0,1,.33692-.51221l7.168-5.53564a.8151.8151,0,0,1,.38379-.19239,2.57254,2.57254,0,0,1,.416-.03173h2.81641a.766.766,0,0,1,.76758.76806v20.86377a.766.766,0,0,1-.76758.76807Z"/><path class="cls-4" d="M717.31934,273.24219a.766.766,0,0,1-.76856-.76807v-3.168a.78159.78159,0,0,1,.22461-.57617.73946.73946,0,0,1,.54395-.22363h3.20019a.7426.7426,0,0,1,.54395.22363.78087.78087,0,0,1,.22363.57617v3.168a.76438.76438,0,0,1-.76758.76807Z"/><path class="cls-4" d="M733.35156,273.562a9.97974,9.97974,0,0,1-3.87207-.67187,6.95888,6.95888,0,0,1-2.624-1.856,7.907,7.907,0,0,1-1.53613-2.73584,12.78309,12.78309,0,0,1-.6084-3.312q-.03224-.86426-.04688-1.9043-.01758-1.0393,0-2.0957.01466-1.05615.04688-1.95215a11.21147,11.21147,0,0,1,.6084-3.312,7.864,7.864,0,0,1,1.584-2.7041,7.2979,7.2979,0,0,1,2.63965-1.82373,11.21147,11.21147,0,0,1,7.64844,0,7.30189,7.30189,0,0,1,2.64062,1.82373,7.69162,7.69162,0,0,1,1.56738,2.7041,11.56185,11.56185,0,0,1,.59278,3.312q.063.89649.06347,1.95215v2.0957q0,1.04077-.06347,1.9043a12.00334,12.00334,0,0,1-.57617,3.312,7.925,7.925,0,0,1-1.53711,2.73584,6.94149,6.94149,0,0,1-2.63965,1.856A10.10342,10.10342,0,0,1,733.35156,273.562Zm0-3.67969a3.50448,3.50448,0,0,0,3.05567-1.36035,6.37578,6.37578,0,0,0,1.00879-3.6958q.063-.928.06347-1.87207v-1.90381q0-.96019-.06347-1.82422a6.4172,6.4172,0,0,0-1.00879-3.66406,3.47424,3.47424,0,0,0-3.05567-1.3916,3.43869,3.43869,0,0,0-3.02343,1.3916,6.58229,6.58229,0,0,0-1.041,3.66406q0,.86427-.01563,1.82422-.01756.96021,0,1.90381.01466.9441.01563,1.87207a6.4575,6.4575,0,0,0,1.05664,3.6958A3.47606,3.47606,0,0,0,733.35156,269.88232Z"/><path class="cls-5" d="M903.17676,273.24219a1.02706,1.02706,0,0,1-.752-.24024,2.09466,2.09466,0,0,1-.39941-.55957L896.041,257.59424a.78043.78043,0,0,1-.06446-.28809.71028.71028,0,0,1,.7041-.7041h2.59278a.74618.74618,0,0,1,.57519.208,1.16926,1.16926,0,0,1,.25684.3999l4.25586,11.23242L908.61719,257.21a1.12251,1.12251,0,0,1,.25586-.3999.74849.74849,0,0,1,.57617-.208h2.62305a.64586.64586,0,0,1,.46484.208.67737.67737,0,0,1,.207.49609,1.46381,1.46381,0,0,1-.03125.28809l-6.01562,14.84814a1.54923,1.54923,0,0,1-.38477.55957,1.08606,1.08606,0,0,1-.76758.24024Z"/><path class="cls-5" d="M929.73633,273.24219a.72727.72727,0,0,1-.56055-.22412.76876.76876,0,0,1-.207-.54395V255.898l-4.86523,3.74414a.78212.78212,0,0,1-.57618.144.82226.82226,0,0,1-.51171-.33593l-1.34375-1.728a.844.844,0,0,1-.14454-.60791.73077.73077,0,0,1,.33692-.51221l7.168-5.53564a.8151.8151,0,0,1,.38379-.19239,2.57263,2.57263,0,0,1,.416-.03173h2.81641a.766.766,0,0,1,.76758.76806v20.86377a.766.766,0,0,1-.76758.76807Z"/><path class="cls-5" d="M938.376,273.24219a.766.766,0,0,1-.76856-.76807v-3.168a.78159.78159,0,0,1,.22461-.57617.73946.73946,0,0,1,.54395-.22363h3.20019a.7426.7426,0,0,1,.54395.22363.78087.78087,0,0,1,.22363.57617v3.168a.76438.76438,0,0,1-.76758.76807Z"/><path class="cls-5" d="M954.21582,273.562a12.28434,12.28434,0,0,1-3.87207-.54394,8.39105,8.39105,0,0,1-2.7041-1.42383,6.26651,6.26651,0,0,1-1.61621-1.91992,4.74589,4.74589,0,0,1-.57617-2.064.57651.57651,0,0,1,.209-.46435.74193.74193,0,0,1,.49609-.17579h2.87891a1.09167,1.09167,0,0,1,.54492.12793,1.0117,1.0117,0,0,1,.38281.51221,2.84283,2.84283,0,0,0,.94532,1.376,3.91665,3.91665,0,0,0,1.51953.71972,7.74367,7.74367,0,0,0,1.82422.208,4.73964,4.73964,0,0,0,3.05566-.91211,3.15054,3.15054,0,0,0,1.13574-2.60791,2.79625,2.79625,0,0,0-1.05566-2.44775,5.01131,5.01131,0,0,0-2.94434-.75195h-3.2959a.80828.80828,0,0,1-.57519-.208.72383.72383,0,0,1-.22461-.56006V261.082a1.06309,1.06309,0,0,1,.14453-.56006,2.07721,2.07721,0,0,1,.30274-.3999l5.72851-5.6001h-9.15234a.72619.72619,0,0,1-.55957-.22363.76533.76533,0,0,1-.208-.54395v-2.1123a.80843.80843,0,0,1,.208-.57568.72649.72649,0,0,1,.55957-.22412H961.0957a.76688.76688,0,0,1,.79981.7998V253.562a1.016,1.016,0,0,1-.12793.51221,1.82511,1.82511,0,0,1-.28809.38379l-5.53613,5.69629.38477.03174a9.95989,9.95989,0,0,1,3.47167.88037,5.46656,5.46656,0,0,1,2.36817,2.0957,6.49113,6.49113,0,0,1,.84766,3.45605,6.1406,6.1406,0,0,1-1.13575,3.728,7.2197,7.2197,0,0,1-3.12011,2.38379A11.66675,11.66675,0,0,1,954.21582,273.562Z"/><path class="cls-4" d="M1454.85254,273.24219a1.027,1.027,0,0,1-.752-.24024,2.09447,2.09447,0,0,1-.39942-.55957l-5.98437-14.84814a.78043.78043,0,0,1-.06446-.28809.71028.71028,0,0,1,.70411-.7041h2.59277a.74618.74618,0,0,1,.57519.208,1.16926,1.16926,0,0,1,.25684.3999l4.25586,11.23242L1460.293,257.21a1.12251,1.12251,0,0,1,.25586-.3999.74849.74849,0,0,1,.57617-.208h2.623a.64584.64584,0,0,1,.46484.208.67737.67737,0,0,1,.207.49609,1.46381,1.46381,0,0,1-.03125.28809l-6.01562,14.84814a1.54923,1.54923,0,0,1-.38477.55957,1.08606,1.08606,0,0,1-.76758.24024Z"/><path class="cls-4" d="M1481.41211,273.24219a.72727.72727,0,0,1-.56055-.22412.76876.76876,0,0,1-.207-.54395V255.898l-4.86523,3.74414a.78211.78211,0,0,1-.57617.144.82225.82225,0,0,1-.51172-.33593l-1.34375-1.728a.844.844,0,0,1-.14453-.60791.73073.73073,0,0,1,.33691-.51221l7.168-5.53564a.8151.8151,0,0,1,.38379-.19239,2.57263,2.57263,0,0,1,.416-.03173h2.81641a.766.766,0,0,1,.76758.76806v20.86377a.766.766,0,0,1-.76758.76807Z"/><path class="cls-4" d="M1490.05176,273.24219a.766.766,0,0,1-.76856-.76807v-3.168a.78159.78159,0,0,1,.22461-.57617.73946.73946,0,0,1,.54395-.22363h3.20019a.7426.7426,0,0,1,.54395.22363.78087.78087,0,0,1,.22363.57617v3.168a.76438.76438,0,0,1-.76758.76807Z"/><path class="cls-4" d="M1505.8916,273.562a10.06611,10.06611,0,0,1-4.73535-1.04,7.68649,7.68649,0,0,1-3.07227-2.81592,7.46243,7.46243,0,0,1-1.08789-3.98388,7.14144,7.14144,0,0,1,.25586-1.91992,9.64322,9.64322,0,0,1,.67188-1.76026q.416-.8313.8164-1.48779a8.84939,8.84939,0,0,1,.71875-1.04l5.85645-8.03174a4.11763,4.11763,0,0,1,.38379-.40039.99115.99115,0,0,1,.70508-.23974h2.97461a.62493.62493,0,0,1,.48047.208.70219.70219,0,0,1,.19238.4961.61258.61258,0,0,1-.04785.23974.56539.56539,0,0,1-.11231.17627l-4.47949,6.208a2.87236,2.87236,0,0,1,.67187-.12842q.38379-.03148.70313-.03174a8.38092,8.38092,0,0,1,3.041.624,8.227,8.227,0,0,1,2.52734,1.61572,7.55863,7.55863,0,0,1,1.71191,2.40039,7.197,7.197,0,0,1,.624,3.00781,7.63486,7.63486,0,0,1-1.05567,3.91993,7.75343,7.75343,0,0,1-3.02441,2.896A9.611,9.611,0,0,1,1505.8916,273.562Zm-.03222-3.67969a4.76829,4.76829,0,0,0,2.1289-.48,3.95589,3.95589,0,0,0,1.584-1.4082,4.1247,4.1247,0,0,0,.60742-2.30371,4.06667,4.06667,0,0,0-.60742-2.27246,3.95833,3.95833,0,0,0-1.584-1.40772,4.95909,4.95909,0,0,0-4.25683,0,3.9455,3.9455,0,0,0-1.584,1.40772,4.05908,4.05908,0,0,0-.6084,2.27246,4.117,4.117,0,0,0,.6084,2.30371,3.94309,3.94309,0,0,0,1.584,1.4082A4.76112,4.76112,0,0,0,1505.85938,269.88232Z"/></g><path class="cls-8" d="M1390.88281,118.38379a1.38478,1.38478,0,0,1-1.01953-.41992,1.45922,1.45922,0,0,1-.41992-1.08008v-39a1.46228,1.46228,0,0,1,.41992-1.08008,1.38852,1.38852,0,0,1,1.01953-.41992h16.44043a21.91641,21.91641,0,0,1,8.46,1.5,11.9724,11.9724,0,0,1,5.58008,4.53027,13.60945,13.60945,0,0,1,1.97949,7.58985,13.19189,13.19189,0,0,1-1.97949,7.46972,11.74283,11.74283,0,0,1-5.58008,4.41016,22.70955,22.70955,0,0,1-8.46,1.44043h-8.04v13.55957a1.43841,1.43841,0,0,1-1.5,1.5Zm8.28028-22.5h7.85937a6.8778,6.8778,0,0,0,4.74024-1.5,5.64574,5.64574,0,0,0,1.68066-4.44043,6.25686,6.25686,0,0,0-1.53027-4.37988q-1.53076-1.67871-4.89063-1.67969h-7.85937Z"/><path class="cls-8" d="M1436.36328,118.38379a1.38478,1.38478,0,0,1-1.01953-.41992,1.45922,1.45922,0,0,1-.41992-1.08008v-39a1.46228,1.46228,0,0,1,.41992-1.08008,1.38852,1.38852,0,0,1,1.01953-.41992h27.24024a1.43842,1.43842,0,0,1,1.5,1.5v4.7998a1.43842,1.43842,0,0,1-1.5,1.5h-19.44043V93.544h18.12011a1.43841,1.43841,0,0,1,1.5,1.5V99.4834a1.4959,1.4959,0,0,1-.41992,1.05078,1.41255,1.41255,0,0,1-1.08008.44922h-18.12011V110.584H1464.083a1.43842,1.43842,0,0,1,1.5,1.5v4.79981a1.43841,1.43841,0,0,1-1.5,1.5Z"/><path class="cls-8" d="M1475.72266,118.38379a1.17169,1.17169,0,0,1-.90039-.38965,1.25116,1.25116,0,0,1-.36036-.87012,2.18046,2.18046,0,0,1,.06055-.54l14.2793-38.58007a2.32179,2.32179,0,0,1,.7207-1.13965,2.17619,2.17619,0,0,1,1.5-.48047h7.67969a2.17955,2.17955,0,0,1,1.5.48047,2.77832,2.77832,0,0,1,.78027,1.13965l14.21973,38.58007a1.18986,1.18986,0,0,1,.12012.54,1.20835,1.20835,0,0,1-.38965.87012,1.26857,1.26857,0,0,1-.93067.38965h-6.2998a1.7076,1.7076,0,0,1-1.25977-.41992,2.09583,2.09583,0,0,1-.54-.78028l-2.58007-6.71972h-16.91993l-2.5205,6.71972a3.45367,3.45367,0,0,1-.56934.78028,1.69586,1.69586,0,0,1-1.29.41992Zm12.96-15.66016H1501.042l-6.17969-17.21972Z"/><path class="cls-8" d="M1553.78223,118.38379a1.43841,1.43841,0,0,1-1.5-1.5V84.90332h-12.06055v6.54a89.60491,89.60491,0,0,1-.71973,12.33008,24.43863,24.43863,0,0,1-2.46,8.25,11.05745,11.05745,0,0,1-4.77051,4.71,18.11251,18.11251,0,0,1-7.71,1.65039,1.43861,1.43861,0,0,1-1.0498-.4502,1.50669,1.50669,0,0,1-.4502-1.10937v-5.40039q0-1.25978,1.37989-1.44043a4.97453,4.97453,0,0,0,2.9707-1.71,11.14476,11.14476,0,0,0,2.04-3.87012,28.77309,28.77309,0,0,0,1.16992-6.0293q.36035-3.56982.35938-8.12988V77.88379a1.46224,1.46224,0,0,1,.41992-1.08008,1.39226,1.39226,0,0,1,1.02051-.41992h27.96a1.43842,1.43842,0,0,1,1.5,1.5v39a1.43842,1.43842,0,0,1-1.5,1.5Z"/><path class="cls-8" d="M1577.60059,118.38379a1.38481,1.38481,0,0,1-1.01954-.41992,1.45922,1.45922,0,0,1-.41992-1.08008v-39a1.46228,1.46228,0,0,1,.41992-1.08008,1.38855,1.38855,0,0,1,1.01954-.41992h6.60058a1.43985,1.43985,0,0,1,1.5,1.5V91.2041h7.0791q7.38135,0,11.46,3.33008,4.07959,3.32959,4.08008,10.0498a14.26133,14.26133,0,0,1-1.76953,7.10938,12.165,12.165,0,0,1-5.25,4.9209,18.648,18.648,0,0,1-8.52051,1.76953Zm8.10058-7.5h6.7793a5.60812,5.60812,0,0,0,4.44043-1.76953,6.60322,6.60322,0,0,0,1.55957-4.53028,5.8692,5.8692,0,0,0-1.55957-4.46972,6.22869,6.22869,0,0,0-4.44043-1.47071h-6.7793Z"/><path class="cls-8" d="M1621.64063,118.38379a1.38479,1.38479,0,0,1-1.01954-.41992,1.45922,1.45922,0,0,1-.41992-1.08008v-39a1.46228,1.46228,0,0,1,.41992-1.08008,1.38853,1.38853,0,0,1,1.01954-.41992h6.60058a1.43985,1.43985,0,0,1,1.5,1.5v15H1646.001v-15a1.46228,1.46228,0,0,1,.41992-1.08008,1.38852,1.38852,0,0,1,1.01953-.41992h6.60059a1.43842,1.43842,0,0,1,1.5,1.5v39a1.43842,1.43842,0,0,1-1.5,1.5h-6.60059a1.38478,1.38478,0,0,1-1.01953-.41992,1.45922,1.45922,0,0,1-.41992-1.08008V101.40332h-16.25977v15.48047a1.43985,1.43985,0,0,1-1.5,1.5Z"/><path class="cls-8" d="M1686.501,118.9834a22.611,22.611,0,0,1-9.41993-1.79981,13.71689,13.71689,0,0,1-6.18066-5.42968,18.469,18.469,0,0,1-2.39941-9.15039q-.06006-2.57812-.06055-5.12989,0-2.54883.06055-5.18945a18.37744,18.37744,0,0,1,2.42968-9.09082,14.12758,14.12758,0,0,1,6.24024-5.54981,24.18636,24.18636,0,0,1,18.59961,0,14.31973,14.31973,0,0,1,6.27051,5.54981,18.1812,18.1812,0,0,1,2.46,9.09082q.11865,2.63965.12011,5.18945,0,2.55176-.12011,5.12989a18.25793,18.25793,0,0,1-2.42969,9.15039,13.90168,13.90168,0,0,1-6.21,5.42968A22.45966,22.45966,0,0,1,1686.501,118.9834Zm0-7.79981a8.06331,8.06331,0,0,0,5.72949-2.09961q2.25-2.09912,2.37012-6.78027.1201-2.63964.12011-4.95019,0-2.30861-.12011-4.88965a11.05681,11.05681,0,0,0-1.13965-5.09961,6.72319,6.72319,0,0,0-2.84961-2.88086,9.77271,9.77271,0,0,0-8.19043,0,6.67054,6.67054,0,0,0-2.87988,2.88086,11.55223,11.55223,0,0,0-1.2002,5.09961q-.06006,2.581-.05957,4.88965,0,2.31152.05957,4.95019.18018,4.68018,2.40039,6.78027A8.036,8.036,0,0,0,1686.501,111.18359Z"/><path class="cls-8" d="M1734.08008,118.9834a21.99619,21.99619,0,0,1-9.54-1.88965,13.91112,13.91112,0,0,1-6.12012-5.51953,18.751,18.751,0,0,1-2.40039-8.85059q-.06006-2.45948-.05957-5.28027,0-2.81837.05957-5.39941a18.41542,18.41542,0,0,1,2.43067-8.79,14.27671,14.27671,0,0,1,6.14941-5.54981,21.54472,21.54472,0,0,1,9.48047-1.91992,24.64947,24.64947,0,0,1,7.34961,1.01953,17.14843,17.14843,0,0,1,5.66992,2.94043,14.11191,14.11191,0,0,1,3.75,4.5,12.75932,12.75932,0,0,1,1.41016,5.75977,1.00734,1.00734,0,0,1-.33008.89941,1.32335,1.32335,0,0,1-.92969.36035h-6.90039a1.79183,1.79183,0,0,1-1.13965-.33008,2.214,2.214,0,0,1-.66016-1.16992q-.8994-3.59911-3-4.88965a9.80542,9.80542,0,0,0-5.21972-1.29,8.13392,8.13392,0,0,0-5.82031,2.04q-2.15919,2.04054-2.33985,6.71973-.18018,4.92041,0,10.08008.18018,4.68018,2.33985,6.71972a8.1296,8.1296,0,0,0,5.82031,2.04,9.79321,9.79321,0,0,0,5.25-1.31933q2.12841-1.31982,2.96972-4.86035a2.222,2.222,0,0,1,.66016-1.16993,1.79781,1.79781,0,0,1,1.13965-.33007H1751a1.3233,1.3233,0,0,1,.92969.36035,1.00734,1.00734,0,0,1,.33008.89941,12.753,12.753,0,0,1-1.41016,5.75977,14.09109,14.09109,0,0,1-3.75,4.5,17.11194,17.11194,0,0,1-5.66992,2.94043A24.64979,24.64979,0,0,1,1734.08008,118.9834Z"/><path class="cls-8" d="M1775.11914,118.38379a1.43841,1.43841,0,0,1-1.5-1.5V84.78418h-10.91992a1.38477,1.38477,0,0,1-1.01953-.41992,1.46072,1.46072,0,0,1-.41992-1.08008V77.88379a1.46224,1.46224,0,0,1,.41992-1.08008,1.38851,1.38851,0,0,1,1.01953-.41992h31.44043a1.43841,1.43841,0,0,1,1.5,1.5v5.40039a1.43841,1.43841,0,0,1-1.5,1.5H1783.2793v32.09961a1.43841,1.43841,0,0,1-1.5,1.5Z"/><path class="cls-8" d="M1808.23828,118.38379a1.38478,1.38478,0,0,1-1.01953-.41992,1.45922,1.45922,0,0,1-.41992-1.08008v-39a1.46228,1.46228,0,0,1,.41992-1.08008,1.38852,1.38852,0,0,1,1.01953-.41992h6.60059a1.43985,1.43985,0,0,1,1.5,1.5V91.2041h7.0791q7.38135,0,11.46,3.33008,4.07959,3.32959,4.08008,10.0498a14.26144,14.26144,0,0,1-1.76953,7.10938,12.16511,12.16511,0,0,1-5.25,4.9209,18.64811,18.64811,0,0,1-8.52051,1.76953Zm8.10059-7.5h6.77929a5.60809,5.60809,0,0,0,4.44043-1.76953,6.60317,6.60317,0,0,0,1.55957-4.53028,5.86916,5.86916,0,0,0-1.55957-4.46972,6.22866,6.22866,0,0,0-4.44043-1.47071h-6.77929Z"/></g></svg>